<svg xmlns="http://www.w3.org/2000/svg" xmlns:xlink="http://www.w3.org/1999/xlink" width="500" zoomAndPan="magnify" viewBox="0 0 375 374.999991" height="500" preserveAspectRatio="xMidYMid meet" version="1.0"><defs><clipPath id="id1"><path d="M 44.375 101 L 330 101 L 330 277.460938 L 44.375 277.460938 Z M 44.375 101 " clip-rule="nonzero"/></clipPath><clipPath id="id2"><path d="M 187 97.460938 L 190 97.460938 L 190 105 L 187 105 Z M 187 97.460938 " clip-rule="nonzero"/></clipPath></defs><path fill="#ffffff" d="M 132.492188 258.933594 L 138.808594 276.28125 L 127.933594 276.632812 Z M 214.070312 267.347656 C 214.773438 270.496094 213.019531 273.832031 208.457031 274 C 203.894531 274.175781 173.195312 272.777344 173.195312 272.777344 C 171.96875 273.480469 171.617188 275.582031 171.617188 275.582031 L 160.917969 276.109375 L 138.816406 276.285156 L 131.625 256.492188 L 131.976562 260.699219 L 127.941406 276.644531 L 111.972656 276.46875 C 111.972656 276.46875 112.53125 276.09375 113.410156 275.457031 C 112.332031 275.683594 111.097656 275.757812 109.691406 275.597656 C 103.722656 274.894531 87.234375 260.351562 83.550781 253.167969 C 83.550781 253.167969 83.902344 245.460938 88.285156 242.308594 C 92.671875 239.15625 99.335938 240.203125 99.335938 240.203125 L 111.445312 251.417969 L 130.390625 224.960938 C 130.390625 224.960938 127.058594 223.914062 127.582031 218.304688 C 128.101562 212.699219 128.460938 210.773438 128.460938 210.773438 C 128.460938 210.773438 120.652344 209.722656 118.027344 209.371094 C 116.65625 209.191406 115.085938 208.863281 113.941406 208.109375 C 114.632812 209.039062 115.789062 209.648438 117.761719 209.957031 C 117.761719 209.957031 121.621094 218.25 113.667969 220.234375 C 105.71875 222.21875 97.996094 216.496094 93.785156 210.1875 C 93.785156 210.1875 95.816406 210.039062 97.769531 207.972656 C 96.40625 208.839844 94.488281 209.367188 91.800781 209.253906 L 94.371094 195.234375 L 100.921875 199.441406 C 100.921875 199.441406 101.015625 199.953125 101.035156 200.75 C 101.777344 197.4375 101.96875 194.304688 101.96875 194.304688 C 101.96875 194.304688 95.308594 191.152344 96.238281 188.464844 C 97.175781 185.777344 98.695312 184.84375 101.089844 185.371094 C 103.484375 185.898438 101.96875 182.738281 101.96875 182.738281 L 99.046875 176.667969 C 99.046875 176.667969 97.644531 173.515625 101.386719 172.582031 C 105.125 171.644531 107.230469 171.292969 109.808594 169.894531 C 112.382812 168.492188 114.957031 164.640625 117.058594 167.207031 C 117.308594 167.515625 117.605469 167.921875 117.9375 168.417969 C 117.511719 167.628906 117.355469 167.082031 116.96875 166.015625 C 116.179688 163.824219 114.863281 160.933594 109.425781 161.367188 C 103.988281 161.808594 98.109375 164.519531 98.109375 164.519531 C 98.109375 164.519531 99.6875 156.808594 104.773438 154.355469 C 109.859375 151.898438 115.648438 152.484375 115.648438 152.484375 C 128.28125 154.355469 125.003906 135.433594 125.003906 135.433594 C 123.371094 133.800781 120.328125 128.65625 122.433594 126.785156 C 124.539062 124.914062 128.046875 127.25 128.046875 127.25 C 134.125 125.851562 146.289062 114.871094 146.289062 114.871094 C 146.289062 114.871094 149.566406 120.476562 150.269531 129.820312 C 150.972656 139.160156 137.167969 141.496094 137.167969 141.496094 C 137.167969 141.496094 135.0625 146.871094 138.335938 149.910156 C 141.613281 152.949219 148.859375 149.207031 148.859375 149.207031 C 148.859375 149.207031 158.277344 147.160156 164.765625 155.222656 C 171.261719 163.28125 174.769531 170.992188 174.769531 170.992188 C 174.769531 170.992188 171.296875 171.765625 168.335938 175.199219 C 172.214844 171.789062 174.769531 170.992188 174.769531 170.992188 L 177.050781 174.320312 L 176.699219 151.542969 C 176.699219 151.542969 176.699219 145.40625 178.980469 145.40625 C 181.261719 145.40625 180.207031 150.839844 181.4375 152.589844 C 182.667969 154.34375 182.664062 154.34375 182.664062 154.34375 C 182.664062 154.34375 191.960938 146.984375 194.769531 145.757812 C 197.582031 144.535156 199.335938 143.65625 200.207031 145.054688 C 201.082031 146.457031 194.945312 151.015625 194.945312 151.015625 C 194.945312 151.015625 205.648438 150.3125 206 152.589844 C 206.351562 154.871094 205.117188 154.871094 205.472656 156.445312 C 205.824219 158.019531 204.421875 159.25 203.539062 160.300781 C 202.660156 161.347656 202.316406 162.402344 198.632812 163.105469 C 194.945312 163.808594 189.507812 165.210938 189.15625 168.890625 C 188.804688 172.566406 191.792969 194.296875 191.261719 198.144531 C 190.734375 201.996094 189.683594 206.382812 185.472656 207.257812 C 181.261719 208.136719 176.703125 208.65625 164.246094 187.628906 L 161.265625 184.125 C 161.265625 184.125 154.769531 193.589844 156.003906 200.769531 C 157.226562 207.953125 163.019531 226.179688 163.019531 226.179688 L 172.667969 257.019531 C 172.667969 257.019531 171.265625 260.699219 172.492188 262.097656 C 173.410156 263.144531 174.429688 264.390625 175.027344 265.902344 C 174.667969 264.464844 174.070312 263.320312 174.070312 263.320312 C 174.070312 263.320312 202.492188 262.441406 207.929688 262.617188 C 213.367188 262.789062 213.367188 264.1875 214.070312 267.347656 Z M 151.777344 200.480469 C 151.734375 200.21875 151.632812 200.003906 151.4375 199.890625 C 151.582031 200.0625 151.695312 200.253906 151.777344 200.480469 Z M 148.457031 208.648438 C 148.457031 208.648438 148.445312 208.726562 148.433594 208.851562 C 148.609375 208.503906 148.875 208.121094 149.144531 207.632812 C 148.925781 207.960938 148.699219 208.296875 148.457031 208.648438 Z M 150.597656 213.019531 C 151.355469 213.878906 151.929688 214.59375 152.664062 215.824219 C 152.691406 215.863281 152.707031 215.902344 152.734375 215.9375 C 152.507812 215.160156 152.304688 214.515625 151.351562 213.722656 C 151.035156 213.472656 150.804688 213.246094 150.597656 213.019531 Z M 148.730469 210.589844 C 148.894531 210.972656 149.136719 211.386719 149.507812 211.808594 C 149.816406 212.152344 150.085938 212.453125 150.339844 212.738281 C 149.765625 212.035156 149.515625 211.4375 148.730469 210.589844 Z M 142.316406 176.058594 C 148.132812 175.0625 150.628906 171.363281 151.445312 167.019531 C 150.515625 171.085938 147.949219 174.632812 142.316406 176.058594 Z M 119.1875 170.371094 C 120.9375 173.257812 123.0625 177.246094 124.40625 180.320312 C 123.570312 177.464844 122.28125 174.695312 120.742188 172.554688 C 120.09375 171.664062 119.589844 170.953125 119.1875 170.371094 Z M 125.300781 188.9375 C 125.363281 188.476562 125.398438 188 125.414062 187.511719 C 124.929688 189.394531 123.910156 191.402344 122.308594 192.960938 C 123.828125 191.957031 125.0625 190.632812 125.300781 188.9375 Z M 134.421875 215.128906 C 134.421875 215.128906 134.773438 208.730469 133.542969 206.980469 C 132.316406 205.226562 130.386719 202.949219 129.152344 204.613281 C 130.730469 204.613281 132.660156 205.492188 133.542969 209.171875 C 134.421875 212.855469 134.246094 215.65625 134.421875 215.128906 Z M 147.402344 201.820312 C 145.585938 203.21875 143.65625 205.035156 142.582031 206.195312 C 141.230469 207.65625 138.25 210.929688 136.289062 213.082031 C 139.320312 209.925781 145.175781 204.042969 147.402344 201.820312 Z M 145.824219 237.730469 C 145.824219 237.730469 154.945312 224.414062 155.472656 220.558594 C 155.472656 221.613281 145.824219 237.730469 145.824219 237.730469 Z M 155.457031 220.351562 C 155.394531 219.824219 155.203125 219.484375 154.953125 219.210938 C 155.203125 219.636719 155.394531 220.027344 155.457031 220.351562 Z M 295.472656 227.222656 C 299.863281 231.425781 302.136719 236.859375 302.136719 236.859375 C 298.628906 234.929688 291.261719 239.488281 291.261719 239.488281 C 290.910156 237.035156 286 232.660156 286 232.660156 C 286 232.660156 246.175781 231.957031 243.71875 231.957031 C 241.257812 231.957031 240.738281 235.457031 240.738281 235.457031 C 240.738281 235.457031 242.359375 235.753906 243.300781 237.160156 L 243.011719 236.25 L 269.769531 235.984375 C 269.769531 235.984375 274.941406 236.160156 275.382812 239.488281 C 275.824219 242.816406 273.714844 244.390625 269.0625 244.65625 C 264.414062 244.917969 242.925781 244.742188 242.925781 244.742188 L 243.121094 243.738281 L 240.730469 245.269531 C 240.378906 246.320312 243.367188 248.773438 243.367188 248.773438 L 239.328125 256.484375 C 239.328125 256.484375 238.28125 253.679688 236.519531 250 C 234.765625 246.320312 235.292969 235.105469 235.292969 235.105469 L 230.558594 235.808594 C 230.558594 235.808594 208.457031 240.714844 201.960938 238.960938 C 195.46875 237.210938 191.4375 233.53125 192.136719 226.171875 C 192.839844 218.816406 199.855469 204.796875 199.855469 204.796875 C 199.855469 204.796875 201.960938 201.820312 200.5625 198.484375 C 199.160156 195.15625 196.347656 192.878906 197.925781 190.425781 C 199.503906 187.96875 198.277344 187.273438 200.5625 185.519531 C 202.84375 183.769531 203.371094 183.417969 203.539062 182.015625 C 203.714844 180.617188 203.011719 176.761719 204.589844 174.835938 C 206.167969 172.90625 208.976562 172.027344 208.800781 174.660156 C 208.625 177.289062 206.519531 180.441406 208.097656 182.191406 C 209.675781 183.945312 213.359375 186.921875 214.417969 186.574219 C 215.464844 186.222656 215.121094 181.320312 215.464844 179.921875 C 215.8125 178.519531 217.75 177.992188 219.148438 181.671875 C 220.550781 185.351562 219.855469 188.328125 218.101562 194.988281 C 216.347656 201.644531 214.417969 206.378906 214.417969 212.160156 C 214.417969 217.941406 214.417969 217.941406 214.417969 217.941406 L 226.171875 215.488281 C 226.171875 215.488281 225.007812 227.566406 229.1875 234.082031 C 226.441406 228.820312 226.171875 215.488281 226.171875 215.488281 C 235.644531 210.054688 244.414062 213.734375 244.414062 213.734375 C 244.058594 217.050781 243.152344 220.523438 245.785156 223.402344 C 244.703125 221.476562 244.394531 219.265625 244.238281 217.765625 C 243.886719 214.4375 245.640625 213.734375 245.640625 213.734375 C 247.746094 215.3125 249.675781 214.785156 251.78125 212.855469 C 253.890625 210.929688 249.324219 202.347656 249.324219 202.347656 C 244.0625 200.769531 241.957031 198.316406 240.730469 195.339844 C 239.503906 192.363281 241.257812 187.453125 241.257812 187.453125 L 240.554688 184.476562 L 246.695312 182.023438 C 248.273438 178.34375 254.945312 173.441406 254.945312 173.441406 L 264.769531 188.859375 C 264.769531 188.859375 271.609375 189.910156 271.265625 193.589844 C 270.914062 197.265625 264.601562 196.738281 264.601562 196.738281 L 261.789062 197.441406 C 261.789062 197.441406 261.085938 199.195312 260.910156 204.273438 C 260.734375 209.351562 263.015625 214.085938 266.523438 214.960938 C 270.03125 215.839844 273.1875 216.359375 273.1875 216.359375 C 273.1875 216.359375 277.046875 215.832031 283.015625 218.289062 C 288.980469 220.742188 291.085938 223.015625 295.472656 227.222656 Z M 243.835938 238.859375 C 243.863281 239.257812 243.855469 239.675781 243.824219 240.097656 L 243.976562 239.308594 Z M 266.058594 223.390625 C 262.789062 225.5 258.753906 227.132812 254.421875 227.390625 C 254.335938 227.398438 254.261719 227.398438 254.171875 227.398438 C 258.484375 227.992188 262.695312 225.910156 266.058594 223.390625 Z M 317.753906 260.628906 C 316.230469 256.191406 302.136719 236.859375 302.136719 236.859375 C 302.136719 236.859375 294.472656 237.035156 292.023438 239.953125 C 289.566406 242.875 290.386719 244.742188 288.394531 246.144531 C 286.402344 247.542969 290.382812 248.128906 290.734375 249.765625 C 291.085938 251.398438 289.445312 251.054688 288.394531 252.101562 L 270.03125 251.398438 C 270.824219 253.855469 273.011719 254.117188 276.613281 254.992188 C 276.917969 255.066406 277.25 255.121094 277.601562 255.167969 C 275.742188 255.128906 274.042969 254.957031 272.960938 254.550781 C 269.222656 253.152344 268.050781 250.816406 266.296875 249.992188 C 264.542969 249.175781 259.050781 246.257812 260.332031 249.761719 C 260.332031 249.761719 261.195312 250.890625 262.03125 252.140625 C 261.46875 251.820312 260.828125 251.613281 260.132812 251.65625 C 257.410156 251.832031 255.480469 256.300781 255.480469 256.300781 L 260.917969 257.238281 L 263.734375 255.519531 C 263.910156 256.597656 263.355469 257.332031 260.917969 257.238281 C 257.875 257.117188 249.921875 255.367188 246.765625 255.132812 C 243.609375 254.902344 242.203125 255.132812 243.957031 257.46875 C 245.710938 259.804688 244.539062 260.15625 247.351562 262.492188 C 248.136719 263.144531 249.078125 263.765625 250.179688 264.351562 C 249.253906 264.023438 248.363281 263.78125 247.238281 263.660156 C 243.84375 263.308594 239.636719 258.171875 239.636719 258.171875 C 239.636719 258.171875 239.988281 261.675781 239.519531 266.933594 C 239.046875 272.1875 235.777344 276.273438 235.777344 276.273438 C 235.777344 276.273438 297.296875 276.507812 295.421875 276.15625 C 293.550781 275.804688 290.394531 271.25 290.042969 271.011719 C 289.773438 270.832031 287.371094 270.308594 283.308594 269.5 C 283.835938 269.574219 284.359375 269.644531 284.894531 269.730469 C 293.429688 271.132812 302.90625 274.171875 309.921875 272.769531 C 316.9375 271.371094 319.273438 265.066406 317.753906 260.628906 Z M 317.753906 260.628906 " fill-opacity="1" fill-rule="evenodd"/><path fill="#ffb935" d="M 181.148438 125.832031 C 179.859375 123.144531 176.824219 119.875 177.640625 116.488281 C 178.457031 113.101562 181.851562 107.492188 188.402344 107.730469 C 194.953125 107.964844 198.460938 114.386719 198.230469 118.480469 C 197.996094 122.566406 194.835938 125.71875 194.367188 127.710938 C 193.902344 129.695312 193.785156 130.277344 193.785156 130.277344 C 193.785156 130.277344 194.015625 131.675781 194.136719 133.667969 C 194.253906 135.65625 190.980469 135.652344 190.980469 135.652344 C 190.980469 135.652344 190.515625 138.339844 188.640625 138.570312 C 186.769531 138.804688 186.070312 136.117188 186.070312 136.117188 C 186.070312 136.117188 185.132812 135.882812 183.613281 135.414062 C 182.089844 134.949219 183.613281 133.894531 182.796875 132.957031 C 181.976562 132.023438 182.796875 130.390625 182.796875 130.390625 C 182.796875 130.390625 182.429688 128.519531 181.148438 125.832031 Z M 128.457031 210.753906 L 117.757812 209.9375 C 118.804688 215.078125 120.039062 218.992188 111.964844 220.917969 C 103.894531 222.84375 93.78125 210.167969 93.78125 210.167969 C 93.78125 210.167969 84.769531 210.226562 76.351562 212.328125 C 67.929688 214.433594 67.40625 221.613281 67.40625 221.613281 C 67.125 228.835938 69.703125 234.453125 72.554688 239.300781 C 72.070312 238.640625 71.796875 238.257812 71.796875 238.257812 L 63.898438 276.105469 L 100.214844 276.632812 L 107.761719 275.582031 C 103.371094 274.359375 94.425781 265.945312 90.390625 262.089844 C 88.628906 260.410156 84.851562 255.644531 81.164062 250.816406 C 82.558594 252.265625 83.546875 253.15625 83.546875 253.15625 C 86.355469 237.210938 99.160156 238.96875 99.160156 238.96875 L 111.4375 251.40625 L 130.386719 224.949219 C 130.386719 224.949219 128.808594 221.09375 127.574219 218.292969 C 126.347656 215.480469 128.457031 210.753906 128.457031 210.753906 Z M 226.699219 258.757812 C 223.890625 258.230469 172.667969 258.757812 172.667969 258.757812 C 172.667969 258.757812 169.859375 262.964844 175.300781 262.964844 C 180.738281 262.964844 208.109375 261.386719 210.5625 263.140625 C 213.015625 264.890625 214.597656 269.792969 213.894531 271.722656 C 213.191406 273.648438 211.085938 274 208.457031 274 C 205.828125 274 172.316406 274 172.316406 274 L 171.613281 275.578125 L 231.785156 276.28125 C 231.785156 276.28125 232.136719 266.46875 231.609375 263.667969 C 231.089844 260.859375 229.511719 259.285156 226.699219 258.757812 Z M 286.875 247.542969 C 286.875 247.542969 292.605469 244.503906 291.261719 239.484375 C 289.917969 234.460938 288.164062 232.355469 282.78125 232.242188 C 277.398438 232.125 243.71875 231.949219 243.71875 231.949219 C 243.71875 231.949219 240.5625 233.875 240.738281 235.453125 C 240.914062 237.027344 270.96875 235.277344 273.308594 236.445312 C 275.644531 237.613281 276.464844 240.652344 275.527344 242.171875 C 274.589844 243.6875 273.421875 244.503906 269.679688 244.625 C 265.941406 244.742188 239.625 244.625 239.625 244.625 C 239.625 244.625 241.964844 247.542969 247.113281 247.777344 C 252.253906 248.015625 286.875 247.542969 286.875 247.542969 Z M 255.738281 248.492188 C 255.902344 248.335938 256 248.242188 256 248.242188 L 244.863281 248.679688 C 244.863281 248.679688 240.472656 251.136719 240.648438 255.421875 C 240.824219 259.71875 244.070312 262.871094 246.441406 263.046875 C 248.808594 263.222656 246.792969 260.503906 245.472656 258.574219 C 244.15625 256.648438 242.140625 254.984375 244.507812 254.632812 C 246.878906 254.28125 252.230469 256.382812 252.230469 256.382812 C 252.230469 256.382812 251.613281 252.878906 253.191406 251.128906 C 253.488281 250.800781 253.757812 250.507812 254.019531 250.230469 C 253.234375 251.726562 252.316406 253.898438 252.574219 255.511719 C 253.015625 258.230469 256.171875 256.824219 256.171875 256.824219 C 256.171875 256.824219 256.691406 251.511719 260.117188 251.65625 C 262.226562 251.746094 259.589844 248.417969 259.589844 248.417969 Z M 264.066406 248.070312 L 268.976562 251.488281 C 268.976562 251.488281 290.726562 252.101562 290.558594 251.136719 C 290.382812 250.175781 288.804688 248.503906 288.804688 248.503906 Z M 264.066406 248.070312 " fill-opacity="1" fill-rule="evenodd"/><path fill="#000000" d="M 117.050781 167.179688 C 117.050781 167.179688 112.664062 169.75 108.804688 170.628906 C 104.945312 171.507812 101.4375 170.628906 100.035156 172.90625 C 98.632812 175.1875 100.210938 180.265625 101.964844 182.71875 C 103.71875 185.175781 103.71875 185.695312 101.085938 185.351562 C 98.449219 185 96.695312 185.703125 96.175781 187.628906 C 95.652344 189.558594 98.808594 193.238281 101.964844 194.285156 L 100.914062 199.425781 C 100.914062 199.425781 89.222656 194.523438 88.75 185.644531 C 88.75 185.644531 78.925781 186.8125 77.753906 180.976562 C 76.585938 175.136719 77.753906 171.863281 80.566406 170.226562 C 83.375 168.585938 88.75 167.660156 92.496094 169.996094 C 92.496094 169.996094 98.34375 163.21875 106.0625 162.050781 C 113.777344 160.878906 115.417969 162.277344 117.050781 167.179688 Z M 147.113281 104.925781 C 141.035156 101.191406 133.429688 102.007812 125.363281 104.109375 C 117.289062 106.210938 114.367188 114.273438 113.667969 118.824219 C 112.972656 123.378906 115.65625 133.308594 115.304688 138.332031 C 114.953125 143.355469 108.640625 152.9375 108.640625 152.9375 C 108.640625 152.9375 119.636719 152.816406 122.792969 150.832031 C 125.945312 148.847656 125.011719 135.414062 125.011719 135.414062 C 122.90625 132.957031 121.152344 128.40625 122.4375 126.769531 C 123.726562 125.136719 128.054688 127.230469 128.054688 127.230469 C 136.125 125.015625 146.296875 114.851562 146.296875 114.851562 C 146.296875 114.851562 149.21875 119.753906 149.804688 125.015625 C 150.390625 130.277344 150.269531 133.078125 147.699219 137.046875 C 145.128906 141.011719 137.175781 141.484375 137.175781 141.484375 C 137.175781 141.484375 136.359375 140.195312 136.824219 146.738281 C 137.289062 153.28125 144.894531 150.363281 148.867188 149.195312 C 152.847656 148.027344 157.875 149.425781 157.875 149.425781 C 157.875 149.425781 153.199219 140.195312 152.847656 135.0625 C 152.496094 129.925781 157.171875 122.800781 157.875 117.890625 C 158.574219 112.988281 153.191406 108.660156 147.113281 104.925781 Z M 323.015625 230.957031 C 323.015625 230.957031 330.855469 225.933594 329.09375 220.679688 C 327.332031 215.425781 322.429688 214.257812 317.050781 211.921875 C 311.667969 209.585938 301.609375 205.5 299.621094 199.773438 C 297.636719 194.046875 296.226562 186.921875 295.296875 182.367188 C 294.367188 177.816406 293.425781 174.777344 288.515625 173.257812 C 283.605469 171.738281 277.285156 176.179688 277.285156 176.179688 C 277.285156 176.179688 281.964844 181.289062 282.273438 187.609375 C 281.34375 181.628906 276.46875 173.671875 269.804688 170.453125 C 262.558594 166.949219 253.429688 169.515625 248.519531 171.851562 C 243.609375 174.1875 242.554688 183.066406 242.554688 183.066406 C 242.554688 183.066406 246.183594 182.128906 246.703125 182.015625 C 249.097656 176.292969 254.953125 173.433594 254.953125 173.433594 L 264.777344 188.855469 C 264.777344 188.855469 271.328125 188.679688 271.269531 193.582031 C 271.214844 198.484375 263.023438 196.734375 263.023438 196.734375 L 260.453125 199.421875 L 260.917969 204.269531 C 260.917969 204.269531 266.761719 203.859375 272.960938 202.222656 C 275.484375 201.554688 277.542969 200.269531 279.105469 198.574219 C 278.394531 199.558594 277.871094 199.886719 277.871094 199.886719 C 277.871094 199.886719 279.859375 215.539062 282.546875 217.40625 C 285.238281 219.277344 291.558594 223.015625 299.269531 232.476562 C 306.992188 241.9375 312.605469 251.519531 312.605469 251.519531 C 312.605469 251.519531 316.582031 253.621094 321.027344 250.46875 C 325.472656 247.316406 328.042969 241.128906 326.875 237.152344 C 325.707031 233.179688 323.015625 230.957031 323.015625 230.957031 Z M 323.015625 230.957031 " fill-opacity="1" fill-rule="evenodd"/><g clip-path="url(#id1)"><path fill="#000000" d="M 324.515625 231.445312 C 325.152344 231.121094 325.898438 230.660156 326.640625 230.007812 C 328.289062 228.566406 330.195312 225.914062 329.886719 221.46875 C 329.488281 215.679688 325.554688 214.164062 319.035156 211.652344 C 315.835938 210.414062 311.84375 208.882812 307.230469 206.425781 C 299.734375 202.445312 298.316406 194.152344 297.050781 186.839844 C 296.050781 181.019531 295.183594 175.988281 291.542969 173.792969 C 284.433594 169.5 278.511719 173.496094 277.015625 174.679688 C 269.988281 167.03125 261.324219 165.492188 250.601562 169.980469 C 242.070312 173.546875 241.976562 181.328125 242.03125 182.738281 C 241.757812 182.828125 241.484375 182.910156 241.253906 182.992188 C 240.679688 183.179688 240.253906 183.574219 240.027344 184.121094 C 239.585938 185.1875 240.046875 186.59375 240.347656 187.304688 C 239.800781 188.761719 238.191406 193.863281 240.5 197.984375 C 241.957031 200.59375 244.667969 202.257812 248.550781 202.9375 C 250.480469 208.105469 251.234375 213.082031 250.128906 213.535156 C 248.949219 214.019531 248.28125 213.730469 246.941406 213.152344 C 245.597656 212.566406 243.761719 211.769531 240.6875 211.683594 C 235.476562 211.5 219.488281 215.3125 214.976562 216.417969 C 215.140625 212.46875 215.449219 207.871094 216.03125 204.761719 C 216.542969 202.058594 217.472656 199.628906 218.363281 197.28125 C 219.652344 193.894531 220.871094 190.707031 220.871094 186.921875 C 220.871094 182.023438 218.9375 178.558594 217.019531 177.660156 C 216.285156 177.316406 215.558594 177.371094 215.039062 177.8125 C 214.234375 178.476562 214.347656 179.859375 214.503906 181.761719 C 214.578125 182.707031 214.742188 184.652344 214.453125 185.117188 C 214.441406 185.117188 214.421875 185.113281 214.398438 185.113281 C 211.875 184.609375 208.496094 181.785156 208.363281 180.070312 C 208.3125 179.441406 208.726562 178.363281 209.085938 177.414062 C 209.695312 175.808594 210.28125 174.292969 209.558594 173.191406 C 209.179688 172.613281 208.539062 172.292969 207.644531 172.242188 C 206.332031 172.167969 205.117188 172.742188 204.152344 173.898438 C 202.542969 175.828125 201.894531 179.058594 202.460938 182.097656 C 200.894531 182.992188 200.234375 184.824219 200.152344 185.074219 C 199.988281 185.15625 199.824219 185.25 199.675781 185.355469 C 198.058594 186.542969 198.066406 188.835938 198.078125 189.09375 C 198.085938 189.261719 198.132812 189.414062 198.214844 189.550781 C 198.078125 189.621094 197.988281 189.664062 197.972656 189.675781 C 197.894531 189.722656 197.828125 189.769531 197.761719 189.832031 C 196.203125 191.390625 196.613281 194.195312 198.953125 197.957031 C 200.046875 199.722656 200.351562 201.761719 199.800781 203.5625 C 199.660156 204.003906 199.484375 204.417969 199.277344 204.789062 C 196.941406 208.925781 190.472656 222.429688 191.421875 230.003906 C 192.355469 237.503906 195.394531 239.992188 203.796875 239.992188 C 203.992188 239.992188 204.195312 239.992188 204.402344 239.984375 C 212.417969 239.878906 230.289062 236.902344 234.4375 236.191406 C 233.679688 240.953125 233.792969 246.609375 236.417969 252.066406 C 242.191406 264.042969 235.464844 275.207031 235.394531 275.3125 C 235.34375 275.402344 235.304688 275.488281 235.289062 275.582031 L 232.855469 275.582031 L 232.855469 265.363281 C 232.855469 261.09375 229.378906 257.621094 225.097656 257.621094 L 173.625 257.621094 C 172.378906 251.160156 162.804688 221.871094 159.867188 214.660156 C 157.070312 207.789062 155.386719 194.691406 160.378906 187.089844 C 160.773438 186.492188 161.113281 185.871094 161.410156 185.25 C 162.539062 187.234375 164.867188 191.195312 167.644531 195.246094 C 173 203.042969 177.414062 207.402344 180.757812 208.199219 C 181.828125 208.457031 182.828125 208.582031 183.761719 208.582031 C 185.730469 208.582031 187.390625 208.015625 188.722656 206.890625 C 191.167969 204.828125 192.277344 200.992188 191.929688 195.796875 C 191.792969 193.75 191.445312 191.089844 191.082031 188.277344 C 190.070312 180.460938 188.679688 169.753906 191.324219 166.867188 C 192.960938 165.085938 195.929688 164.445312 198.542969 163.878906 C 201.492188 163.246094 204.527344 162.59375 204.660156 160.097656 C 205.292969 159.816406 206.15625 159.277344 206.566406 158.316406 C 206.917969 157.480469 206.855469 156.550781 206.375 155.546875 C 206.734375 154.886719 207.210938 153.722656 206.867188 152.652344 C 206.695312 152.125 206.257812 151.421875 205.144531 151.050781 C 203.527344 150.511719 199.597656 150.449219 196.765625 150.480469 C 197.808594 149.695312 198.976562 148.734375 199.894531 147.78125 C 201.175781 146.445312 201.546875 145.03125 200.886719 143.988281 C 200.285156 143.042969 198.988281 142.734375 197.574219 143.203125 C 195.386719 143.933594 185.605469 150.210938 182.492188 153.199219 C 181.972656 152.175781 181.972656 150.839844 181.972656 149.53125 C 181.972656 147.882812 181.976562 146.320312 180.898438 145.359375 C 179.773438 144.359375 178.777344 144.566406 178.28125 144.78125 C 176.746094 145.441406 175.875 147.84375 175.753906 151.742188 C 175.667969 154.523438 175.785156 162.816406 175.9375 170.703125 C 170.585938 160.003906 165.257812 153.238281 159.710938 150.09375 C 159.699219 150.074219 159.691406 150.054688 159.679688 150.042969 C 156.46875 146.769531 154.476562 142.386719 153.765625 137.027344 C 153.179688 132.644531 154.832031 129.222656 156.746094 125.261719 L 157.058594 124.609375 C 158 122.644531 158.472656 121.003906 158.523438 119.453125 C 158.855469 110.351562 150.148438 103.683594 141.789062 102.03125 C 135.320312 100.757812 126.058594 101.234375 119.464844 106.40625 C 110.921875 113.113281 112.511719 123.476562 113.667969 131.042969 C 113.933594 132.761719 114.183594 134.390625 114.28125 135.769531 C 114.78125 142.820312 107.570312 152.351562 107.503906 152.445312 C 107.441406 152.535156 107.394531 152.628906 107.359375 152.722656 C 102.75 154.210938 98.632812 157.429688 97.5 164.769531 C 96.011719 165.792969 94.371094 167.167969 92.886719 168.964844 C 91.351562 168.386719 85.332031 166.390625 80.980469 168.75 C 78.730469 169.96875 77.316406 172.128906 76.769531 175.160156 C 76.078125 178.976562 76.730469 181.910156 78.699219 183.871094 C 80.859375 186.023438 84.125 186.476562 86.460938 186.476562 C 87.191406 186.476562 87.824219 186.429688 88.308594 186.378906 C 88.9375 190.53125 91.121094 193.523438 93.476562 195.621094 L 90.90625 208.84375 C 90.835938 208.851562 90.773438 208.855469 90.699219 208.855469 C 81.179688 209.578125 65.246094 210.789062 66.363281 225.539062 C 66.632812 229.128906 68.28125 233.367188 70.714844 237.804688 C 70.695312 237.855469 70.675781 237.90625 70.671875 237.957031 L 63.277344 275.570312 L 45.328125 275.570312 C 44.808594 275.570312 44.386719 275.992188 44.386719 276.511719 C 44.386719 277.035156 44.808594 277.453125 45.328125 277.453125 L 318.765625 277.453125 C 319.285156 277.453125 319.707031 277.035156 319.707031 276.511719 C 319.707031 275.992188 319.285156 275.570312 318.765625 275.570312 L 296.75 275.570312 C 296.6875 275.519531 296.625 275.46875 296.546875 275.433594 C 295.183594 274.753906 293.738281 273.554688 292.644531 272.542969 C 296.402344 273.304688 300.90625 273.980469 305.074219 273.980469 C 308.035156 273.980469 310.820312 273.644531 313.039062 272.746094 C 315.359375 271.808594 316.96875 270.121094 317.816406 267.722656 C 319.261719 263.640625 318.046875 258.449219 316.722656 256.070312 C 316.382812 255.453125 315.628906 254.230469 314.566406 252.585938 C 315.085938 252.679688 315.617188 252.730469 316.144531 252.730469 C 317.628906 252.730469 319.136719 252.371094 320.574219 251.65625 C 323.894531 250.003906 326.433594 246.664062 327.527344 242.484375 C 329.03125 236.789062 326.289062 233.128906 324.515625 231.445312 Z M 251.335938 171.71875 C 262.15625 167.195312 270.359375 169.109375 277.15625 177.742188 C 281.492188 183.246094 282.53125 190.429688 279.726562 195.617188 C 276.871094 200.894531 270.453125 203.425781 261.632812 202.785156 C 261.566406 201.644531 261.539062 200.53125 261.550781 199.535156 L 263.207031 197.617188 C 264.945312 198.019531 268.550781 198.429688 270.722656 196.871094 C 271.78125 196.117188 272.359375 194.988281 272.394531 193.605469 C 272.425781 192.359375 272.019531 191.285156 271.175781 190.417969 C 269.5 188.699219 266.53125 188.332031 265.316406 188.257812 L 255.757812 173.03125 C 255.480469 172.59375 254.902344 172.460938 254.460938 172.730469 C 254.171875 172.90625 247.628906 176.976562 245.667969 181.679688 C 245.25 181.792969 244.605469 181.980469 243.898438 182.179688 C 243.914062 180.304688 244.523438 174.570312 251.335938 171.71875 Z M 270.039062 214.40625 C 268.371094 214.289062 266.941406 214.179688 265.808594 213.957031 C 263.480469 213.492188 262.273438 209.109375 261.796875 204.683594 C 262.671875 204.738281 263.511719 204.777344 264.316406 204.777344 C 270.640625 204.777344 274.792969 203.0625 277.507812 201.003906 C 278.046875 204.4375 279.386719 212.003906 281.292969 216.273438 C 277.148438 214.929688 273.164062 214.640625 270.039062 214.40625 Z M 250.851562 215.273438 C 252.632812 214.546875 252.984375 212.019531 251.925781 207.558594 C 251.230469 204.605469 250.167969 201.863281 250.125 201.742188 C 250.003906 201.429688 249.714844 201.203125 249.382812 201.152344 C 245.816406 200.632812 243.382812 199.257812 242.160156 197.066406 C 241.210938 195.378906 241.089844 193.417969 241.257812 191.722656 C 241.347656 191.855469 241.433594 191.988281 241.535156 192.113281 C 241.988281 192.691406 242.566406 193.1875 243.238281 193.523438 C 243.90625 193.859375 244.636719 194.089844 245.363281 194.117188 C 245.730469 194.164062 246.082031 194.101562 246.441406 194.089844 C 246.785156 194.035156 247.125 193.957031 247.457031 193.871094 C 247.683594 193.808594 247.867188 193.613281 247.890625 193.367188 C 247.921875 193.046875 247.691406 192.757812 247.371094 192.726562 L 247.269531 192.714844 C 246.96875 192.683594 246.679688 192.703125 246.390625 192.671875 C 246.105469 192.621094 245.824219 192.628906 245.558594 192.546875 C 245.019531 192.453125 244.527344 192.246094 244.070312 192 C 243.609375 191.75 243.203125 191.414062 242.832031 191.019531 C 242.472656 190.636719 242.113281 190.152344 241.851562 189.726562 L 241.792969 189.632812 C 241.757812 189.578125 241.710938 189.527344 241.660156 189.476562 C 241.9375 188.382812 242.238281 187.660156 242.246094 187.640625 C 242.351562 187.390625 242.347656 187.097656 242.222656 186.851562 C 241.886719 186.1875 241.625 185.195312 241.773438 184.835938 C 241.789062 184.804688 241.792969 184.796875 241.855469 184.773438 C 243.421875 184.253906 246.601562 183.367188 246.632812 183.359375 C 246.929688 183.277344 247.167969 183.054688 247.277344 182.765625 C 248.449219 179.378906 252.863281 176.085938 254.675781 174.847656 L 263.992188 189.675781 C 264.160156 189.953125 264.460938 190.117188 264.789062 190.117188 C 265.757812 190.117188 268.554688 190.410156 269.832031 191.730469 C 270.316406 192.226562 270.535156 192.820312 270.515625 193.558594 C 270.492188 194.359375 270.214844 194.925781 269.636719 195.339844 C 268.019531 196.488281 264.625 196.117188 263.160156 195.660156 C 262.804688 195.546875 262.414062 195.660156 262.167969 195.941406 L 259.90625 198.5625 C 259.761719 198.722656 259.679688 198.9375 259.671875 199.152344 C 259.632812 200.726562 259.472656 214.613281 265.4375 215.800781 C 266.683594 216.050781 268.171875 216.160156 269.894531 216.285156 C 270.535156 216.328125 271.195312 216.378906 271.878906 216.441406 C 269.851562 219.210938 263.304688 226.871094 253.398438 226.3125 C 250.125 226.128906 247.773438 225.054688 246.414062 223.113281 C 244.441406 220.296875 244.960938 216.289062 245.328125 214.515625 C 245.628906 214.632812 245.917969 214.757812 246.1875 214.871094 C 247.609375 215.488281 248.933594 216.058594 250.851562 215.273438 Z M 209.460938 189.367188 C 208.519531 187.59375 206.425781 185.992188 203.742188 185.070312 C 203.269531 184.90625 202.832031 184.804688 202.410156 184.75 C 202.691406 184.300781 203.089844 183.84375 203.585938 183.628906 C 204.054688 183.421875 204.585938 183.453125 205.199219 183.726562 C 207.332031 184.671875 209.316406 186.859375 209.542969 188.496094 C 209.582031 188.824219 209.558594 189.113281 209.460938 189.367188 Z M 205.609375 175.09375 C 206.1875 174.402344 206.835938 174.070312 207.550781 174.113281 C 207.882812 174.132812 207.980469 174.207031 207.980469 174.207031 C 208.167969 174.527344 207.621094 175.964844 207.324219 176.738281 C 206.871094 177.921875 206.402344 179.152344 206.484375 180.210938 C 206.566406 181.25 207.1875 182.324219 208.074219 183.308594 C 207.386719 182.777344 206.660156 182.324219 205.960938 182.015625 C 205.402344 181.765625 204.835938 181.640625 204.296875 181.628906 C 203.875 179.171875 204.375 176.5625 205.609375 175.09375 Z M 200.800781 186.859375 C 201.296875 186.492188 202.082031 186.492188 203.125 186.851562 C 205.765625 187.753906 207.808594 189.488281 208.09375 191.070312 C 208.15625 191.414062 208.125 191.75 208.003906 192.0625 C 207.4375 190.90625 206.414062 189.863281 205.132812 189.273438 C 203.234375 188.402344 201.335938 188.566406 199.964844 188.917969 C 199.988281 188.410156 200.152344 187.335938 200.800781 186.859375 Z M 204.371094 238.089844 C 195.75 238.207031 194.035156 235.726562 193.289062 229.75 C 192.46875 223.210938 198.070312 210.722656 200.917969 205.699219 C 201.195312 205.210938 201.429688 204.667969 201.605469 204.105469 C 202.320312 201.78125 201.9375 199.175781 200.554688 196.945312 C 198.875 194.242188 198.308594 192.132812 199.015625 191.238281 C 199.585938 190.964844 202.039062 189.910156 204.351562 190.976562 C 205.890625 191.6875 206.765625 193.28125 206.582031 194.273438 C 206.527344 194.585938 206.371094 194.949219 205.621094 195.011719 C 204.441406 195.109375 204.144531 194.679688 203.660156 193.972656 C 203.25 193.375 202.699219 192.558594 201.527344 192.402344 C 201.011719 192.332031 200.535156 192.695312 200.464844 193.210938 C 200.398438 193.726562 200.761719 194.203125 201.277344 194.273438 C 201.578125 194.308594 201.738281 194.503906 202.09375 195.03125 C 202.648438 195.847656 203.492188 197.074219 205.765625 196.890625 C 207.199219 196.777344 208.199219 195.921875 208.429688 194.605469 C 208.4375 194.585938 208.4375 194.5625 208.4375 194.542969 C 209.398438 193.714844 209.929688 192.703125 209.992188 191.625 C 210.027344 191.597656 210.066406 191.585938 210.105469 191.558594 C 211.136719 190.710938 211.582031 189.5625 211.40625 188.238281 C 211.234375 186.996094 210.507812 185.734375 209.519531 184.648438 C 210.976562 185.804688 212.6875 186.675781 214.027344 186.9375 C 214.835938 187.101562 215.378906 186.8125 215.679688 186.542969 C 216.71875 185.621094 216.554688 183.664062 216.382812 181.589844 C 216.328125 180.886719 216.246094 179.882812 216.296875 179.375 C 217.132812 179.792969 218.988281 182.242188 218.988281 186.90625 C 218.988281 190.347656 217.828125 193.382812 216.605469 196.59375 C 215.679688 199.023438 214.722656 201.53125 214.175781 204.398438 C 212.925781 211.015625 212.90625 223.675781 212.90625 224.207031 C 212.90625 224.730469 213.328125 225.148438 213.851562 225.148438 C 214.371094 225.148438 214.792969 224.730469 214.792969 224.207031 C 214.792969 224.152344 214.792969 221.671875 214.898438 218.363281 C 216.472656 217.980469 220.734375 216.957031 225.4375 215.945312 C 224.890625 219.085938 224.21875 226.855469 228.710938 235.199219 C 221.589844 236.34375 210.167969 238.015625 204.371094 238.089844 Z M 238.117188 251.234375 C 232.332031 239.226562 239.914062 225.589844 239.996094 225.457031 C 240.253906 225.003906 240.097656 224.425781 239.636719 224.175781 C 239.183594 223.917969 238.613281 224.074219 238.355469 224.527344 C 238.179688 224.835938 236.011719 228.734375 234.808594 234.203125 C 234.355469 234.277344 232.855469 234.542969 230.691406 234.886719 C 225.699219 226.089844 227 217.660156 227.449219 215.523438 C 232.710938 214.4375 238.109375 213.484375 240.628906 213.554688 C 241.78125 213.589844 242.71875 213.734375 243.523438 213.929688 C 243.089844 215.875 242.390625 220.640625 244.863281 224.183594 C 246.566406 226.625 249.398438 227.96875 253.292969 228.1875 C 253.679688 228.207031 254.070312 228.21875 254.453125 228.21875 C 266.097656 228.21875 272.957031 218.320312 274.03125 216.648438 C 279.261719 217.269531 285.363281 218.789062 290.683594 224.101562 C 293.65625 227.070312 297.152344 231.351562 300.566406 235.859375 C 296.863281 235.660156 293.632812 237.335938 291.882812 238.484375 C 291.078125 234.527344 287.566406 231.539062 283.371094 231.539062 L 244.296875 231.539062 C 241.871094 231.539062 239.894531 233.511719 239.894531 235.9375 C 239.894531 236.457031 240.316406 236.878906 240.839844 236.878906 L 242.160156 236.878906 C 242.597656 237.820312 243.207031 239.457031 243.007812 240.519531 C 242.820312 241.53125 242.398438 242.601562 242.078125 243.320312 L 240.59375 243.320312 C 240.070312 243.320312 239.648438 243.738281 239.648438 244.261719 C 239.648438 246.402344 241.109375 248.195312 243.089844 248.730469 C 241.152344 250.105469 239.800781 252.246094 239.488281 254.714844 C 239.140625 253.570312 238.683594 252.410156 238.117188 251.234375 Z M 288.742188 250.582031 L 269.203125 250.582031 C 269.152344 250.582031 269.101562 250.589844 269.050781 250.59375 C 268.210938 250.023438 267.285156 249.484375 266.335938 249.011719 L 287.195312 249.011719 C 288.246094 249.011719 289.148438 249.660156 289.519531 250.582031 Z M 271.929688 253.050781 C 271.761719 252.863281 271.578125 252.667969 271.378906 252.472656 L 287.269531 252.472656 C 287.082031 252.949219 286.894531 253.515625 286.753906 254.097656 C 278.242188 254.480469 272.75 253.980469 271.929688 253.050781 Z M 256.8125 256.078125 C 256.804688 256.007812 256.800781 255.9375 256.800781 255.863281 C 256.800781 253.984375 258.328125 252.460938 260.207031 252.460938 L 260.875 252.460938 C 261.144531 252.722656 261.425781 252.992188 261.714844 253.265625 C 262.269531 253.777344 263.074219 254.53125 263.324219 254.914062 C 262.851562 255.40625 260.570312 256.222656 256.8125 256.078125 Z M 259.339844 250.660156 C 256.832031 251.074219 254.914062 253.246094 254.914062 255.863281 C 254.914062 255.882812 254.917969 255.90625 254.917969 255.925781 C 254.367188 255.863281 253.84375 255.78125 253.335938 255.679688 C 253.097656 250.550781 256.296875 249.121094 256.453125 249.058594 C 256.484375 249.042969 256.515625 249.027344 256.546875 249.007812 L 259.007812 249.007812 C 258.980469 249.109375 258.96875 249.207031 258.957031 249.296875 C 258.925781 249.753906 259.074219 250.207031 259.339844 250.660156 Z M 244.089844 253.742188 C 243.429688 253.984375 242.980469 254.464844 242.835938 255.078125 C 242.535156 256.328125 243.574219 257.796875 244.171875 258.519531 C 244.175781 260.007812 245.136719 261.320312 246.214844 262.328125 C 243.382812 261.507812 241.308594 258.902344 241.308594 255.8125 C 241.308594 252.070312 244.359375 249.019531 248.113281 249.019531 L 253.503906 249.019531 C 252.441406 250.226562 251.410156 252.191406 251.4375 255.246094 C 250.460938 254.976562 249.589844 254.683594 248.804688 254.417969 C 246.890625 253.765625 245.378906 253.25 244.089844 253.742188 Z M 283.378906 247.015625 L 244.296875 247.015625 C 243.109375 247.015625 242.09375 246.261719 241.710938 245.207031 L 241.78125 245.207031 C 241.957031 245.429688 242.222656 245.566406 242.511719 245.566406 L 271.285156 245.566406 C 274.199219 245.566406 276.578125 243.191406 276.578125 240.28125 C 276.578125 237.367188 274.199219 234.992188 271.285156 234.992188 L 241.96875 234.992188 C 242.339844 234.078125 243.246094 233.425781 244.296875 233.425781 L 274.949219 233.425781 C 274.980469 233.441406 275.003906 233.460938 275.035156 233.472656 C 275.226562 233.550781 279.601562 235.484375 277.695312 243.085938 C 277.570312 243.589844 277.878906 244.105469 278.382812 244.230469 C 278.457031 244.25 278.539062 244.253906 278.613281 244.253906 C 279.035156 244.253906 279.417969 243.964844 279.523438 243.539062 C 280.863281 238.195312 279.417969 235.09375 277.941406 233.425781 L 283.371094 233.425781 C 287.117188 233.425781 290.175781 236.46875 290.175781 240.21875 C 290.175781 243.964844 287.125 247.015625 283.378906 247.015625 Z M 244.21875 236.878906 L 271.285156 236.878906 C 273.164062 236.878906 274.691406 238.402344 274.691406 240.28125 C 274.691406 242.15625 273.164062 243.683594 271.285156 243.683594 L 243.988281 243.683594 C 244.316406 242.898438 244.679688 241.875 244.867188 240.871094 C 245.113281 239.5625 244.652344 237.988281 244.21875 236.878906 Z M 230.960938 265.347656 L 230.960938 275.570312 L 172.660156 275.570312 C 172.605469 275.148438 172.628906 274.8125 172.757812 274.617188 C 172.835938 274.484375 172.964844 274.433594 173.007812 274.421875 C 174.730469 274.445312 199.964844 274.78125 205.457031 274.78125 L 206.433594 274.78125 C 211.449219 274.796875 214.78125 274.8125 214.976562 268.691406 C 215.140625 263.597656 211.554688 261.976562 209.636719 261.832031 C 209.613281 261.832031 209.589844 261.832031 209.5625 261.832031 L 174 261.832031 C 173.710938 261.832031 173.207031 261.796875 173.0625 261.542969 C 172.832031 261.15625 173.078125 260.226562 173.398438 259.492188 L 214.246094 259.492188 C 214.316406 259.5625 214.386719 259.625 214.472656 259.675781 C 214.730469 259.8125 220.695312 263.214844 217.78125 272.117188 C 217.617188 272.613281 217.886719 273.140625 218.382812 273.304688 C 218.484375 273.335938 218.578125 273.347656 218.679688 273.347656 C 219.074219 273.347656 219.445312 273.097656 219.578125 272.703125 C 221.871094 265.703125 219.238281 261.507812 217.226562 259.484375 L 225.097656 259.484375 C 228.335938 259.484375 230.960938 262.117188 230.960938 265.347656 Z M 175.265625 272.570312 C 177.15625 269.789062 176.144531 265.789062 175.402344 263.710938 L 209.527344 263.710938 C 210.035156 263.765625 213.234375 264.28125 213.097656 268.625 C 212.957031 272.914062 211.585938 272.914062 206.445312 272.894531 L 205.464844 272.894531 C 200.800781 272.894531 181.902344 272.652344 175.265625 272.570312 Z M 176.011719 175.074219 C 176.144531 181.484375 176.269531 186.789062 176.28125 187.296875 C 176.296875 187.8125 176.714844 188.214844 177.226562 188.214844 C 177.230469 188.214844 177.238281 188.214844 177.25 188.214844 C 177.773438 188.203125 178.179688 187.769531 178.167969 187.246094 C 178.164062 186.953125 177.457031 157.398438 177.632812 151.78125 C 177.753906 148.015625 178.597656 146.671875 179.023438 146.488281 C 179.21875 146.40625 179.496094 146.613281 179.640625 146.746094 C 180.085938 147.140625 180.085938 148.347656 180.078125 149.507812 C 180.078125 151.265625 180.074219 153.261719 181.3125 154.832031 C 181.964844 155.667969 185.101562 160 182.378906 163.488281 C 182.058594 163.898438 182.136719 164.496094 182.542969 164.808594 C 182.953125 165.128906 183.550781 165.054688 183.863281 164.644531 C 186.308594 161.511719 185.347656 157.59375 183.5625 154.761719 C 185.996094 152.203125 196.171875 145.628906 198.164062 144.96875 C 198.820312 144.753906 199.214844 144.867188 199.285156 144.976562 C 199.367188 145.105469 199.292969 145.660156 198.523438 146.457031 C 196.570312 148.492188 193.1875 150.667969 193.15625 150.6875 C 192.796875 150.921875 192.640625 151.359375 192.765625 151.761719 C 192.898438 152.171875 193.261719 152.445312 193.703125 152.421875 C 196.089844 152.320312 202.691406 152.207031 204.535156 152.816406 C 204.980469 152.96875 205.042969 153.148438 205.0625 153.210938 C 205.167969 153.53125 204.992188 154.074219 204.765625 154.511719 C 201.753906 154.390625 192.890625 155.007812 191.808594 155.089844 C 191.289062 155.128906 190.898438 155.578125 190.9375 156.09375 C 190.972656 156.589844 191.382812 156.964844 191.875 156.964844 C 191.898438 156.964844 191.917969 156.964844 191.941406 156.964844 C 194.839844 156.757812 202.316406 156.292969 204.683594 156.390625 C 204.898438 156.855469 204.941406 157.242188 204.816406 157.542969 C 204.609375 158.039062 203.957031 158.335938 203.597656 158.453125 C 199.203125 157.878906 192.210938 158.882812 191.917969 158.925781 C 191.402344 159 191.042969 159.476562 191.117188 159.992188 C 191.1875 160.464844 191.589844 160.796875 192.050781 160.796875 C 192.09375 160.796875 192.144531 160.796875 192.1875 160.785156 C 192.257812 160.769531 198.488281 159.878906 202.65625 160.238281 C 202.277344 161.015625 200.8125 161.417969 198.132812 161.996094 C 195.242188 162.617188 191.96875 163.328125 189.929688 165.550781 C 186.691406 169.078125 188.027344 179.378906 189.207031 188.472656 C 189.566406 191.253906 189.910156 193.882812 190.042969 195.875 C 190.34375 200.382812 189.441406 203.765625 187.503906 205.402344 C 186.027344 206.652344 183.902344 206.960938 181.199219 206.3125 C 176.683594 205.242188 169.796875 195.421875 165.402344 188.257812 C 165.417969 188.164062 165.425781 188.070312 165.417969 187.976562 C 165.417969 187.945312 165.097656 184.792969 166.136719 181.308594 C 167.476562 176.800781 170.375 173.835938 174.742188 172.488281 C 175.105469 173.234375 175.472656 174 175.84375 174.789062 C 175.875 174.917969 175.9375 174.996094 176.011719 175.074219 Z M 116.148438 135.621094 C 116.039062 134.164062 115.789062 132.5 115.519531 130.742188 C 114.367188 123.238281 112.933594 113.898438 120.617188 107.871094 C 126.707031 103.085938 135.351562 102.664062 141.410156 103.859375 C 149.011719 105.359375 156.925781 111.296875 156.632812 119.359375 C 156.585938 120.640625 156.179688 122.039062 155.347656 123.765625 L 155.035156 124.417969 C 153.078125 128.476562 151.230469 132.304688 151.886719 137.246094 C 152.464844 141.609375 153.839844 145.375 155.988281 148.496094 C 151.839844 147.335938 148.199219 148.191406 145.160156 148.910156 C 144 149.1875 142.902344 149.445312 141.910156 149.558594 C 140.292969 149.746094 139.15625 149.433594 138.425781 148.597656 C 137.09375 147.078125 137.320312 144.027344 137.613281 142.40625 C 143.757812 141.472656 147.867188 138.964844 149.835938 134.941406 C 153.960938 126.511719 147.058594 114.636719 146.761719 114.136719 C 146.59375 113.847656 146.289062 113.652344 145.933594 113.671875 C 145.59375 113.675781 145.285156 113.867188 145.121094 114.160156 C 142.425781 119.09375 130.449219 125.449219 127.6875 126.867188 C 126.683594 126.015625 124.589844 124.515625 122.835938 125.058594 C 122.144531 125.28125 121.246094 125.902344 120.894531 127.632812 C 120.039062 131.898438 123.257812 135.191406 124.3125 136.140625 C 124.785156 141.347656 124.433594 149.589844 121.488281 150.675781 C 120.472656 151.050781 118.722656 151.160156 116.707031 151.285156 C 114.699219 151.410156 112.398438 151.554688 110.09375 152 C 112.21875 148.878906 116.582031 141.648438 116.148438 135.621094 Z M 126.15625 135.59375 C 126.128906 135.34375 126.003906 135.113281 125.800781 134.953125 C 125.765625 134.921875 121.972656 131.878906 122.746094 128.023438 C 122.839844 127.566406 123.03125 126.992188 123.402344 126.875 C 124.21875 126.625 125.964844 127.808594 126.890625 128.695312 C 127.179688 128.972656 127.605469 129.035156 127.957031 128.859375 C 128.246094 128.714844 131.535156 127.082031 135.332031 124.769531 C 135.1875 125.011719 135.074219 125.292969 135.03125 125.613281 C 134.894531 126.511719 135.28125 127.320312 135.886719 127.40625 C 136.496094 127.503906 137.097656 126.84375 137.238281 125.945312 C 137.375 125.046875 136.992188 124.238281 136.382812 124.148438 C 136.371094 124.148438 136.351562 124.148438 136.339844 124.148438 C 139.929688 121.894531 143.769531 119.113281 145.855469 116.457031 C 147.476562 119.703125 151.074219 128.136719 148.144531 134.132812 C 146.402344 137.691406 142.554688 139.890625 136.714844 140.648438 C 136.332031 140.699219 136.019531 140.976562 135.921875 141.351562 C 135.867188 141.585938 134.523438 147.007812 137.011719 149.851562 C 138.167969 151.171875 139.890625 151.710938 142.132812 151.449219 C 143.242188 151.324219 144.386719 151.046875 145.605469 150.761719 C 146.347656 150.585938 147.113281 150.40625 147.90625 150.253906 C 148.703125 152.25 152.867188 163.332031 149.421875 170.058594 C 148.121094 172.59375 145.824219 174.238281 142.605469 174.949219 C 129.480469 177.828125 118.367188 157.984375 115.925781 153.257812 C 116.242188 153.238281 116.550781 153.21875 116.851562 153.199219 C 119.019531 153.066406 120.894531 152.949219 122.167969 152.476562 C 127.5 150.476562 126.304688 137.113281 126.15625 135.59375 Z M 113.863281 153.394531 C 114.585938 154.863281 117.53125 160.621094 122.035156 166.132812 C 127.941406 173.351562 134.089844 177.089844 139.996094 177.089844 C 141.003906 177.089844 141.996094 176.980469 142.984375 176.761719 C 146.78125 175.925781 149.503906 173.957031 151.074219 170.890625 C 154.734375 163.753906 150.960938 152.917969 149.796875 149.941406 C 156.117188 149.238281 164.0625 151.503906 173.875 170.808594 C 165.644531 173.515625 163.867188 180.96875 163.546875 185.195312 C 163.074219 184.378906 162.660156 183.636719 162.320312 183.015625 C 162.300781 182.984375 162.277344 182.953125 162.257812 182.921875 C 163.042969 180.027344 162.886719 176.925781 161.75 173.75 C 160.484375 170.207031 158.480469 167.839844 158.390625 167.742188 C 158.050781 167.34375 157.460938 167.300781 157.066406 167.640625 C 156.667969 167.980469 156.625 168.570312 156.957031 168.964844 C 157.261719 169.316406 164.269531 177.703125 158.792969 186.042969 C 153.425781 194.210938 155.160156 208.097656 158.113281 215.347656 C 161.371094 223.359375 171.226562 253.886719 171.839844 258.355469 C 171.4375 259.148438 170.617188 261.097656 171.429688 262.492188 C 171.707031 262.964844 172.265625 263.511719 173.351562 263.667969 C 174.011719 265.292969 175.796875 270.535156 172.546875 272.601562 C 172.210938 272.6875 171.628906 272.925781 171.210938 273.53125 C 170.832031 274.070312 170.6875 274.753906 170.757812 275.570312 L 162.082031 275.570312 L 146.578125 237.386719 C 150.035156 232.613281 152.734375 228.695312 153.738281 226.792969 C 156.890625 220.835938 157.160156 220.109375 154.863281 217.871094 C 154.738281 217.753906 154.605469 217.621094 154.460938 217.476562 C 153.675781 216.691406 153.5625 216.195312 153.4375 215.617188 C 153.210938 214.609375 152.902344 213.761719 151.199219 212.851562 C 150.269531 212.355469 150.132812 211.925781 149.949219 211.34375 C 149.714844 210.601562 149.425781 209.929688 148.570312 209.402344 C 150.546875 207.082031 154.332031 201.996094 152.207031 199.351562 C 151.886719 198.949219 151.414062 198.730469 150.867188 198.730469 C 150.867188 198.730469 150.859375 198.730469 150.859375 198.730469 C 147.621094 198.730469 139.160156 208.386719 135.105469 213.238281 C 134.90625 211.910156 134.628906 210.113281 134.351562 208.359375 C 133.925781 205.667969 132.804688 204.519531 131.945312 204.027344 C 131.050781 203.519531 129.988281 203.46875 128.957031 203.882812 C 127.40625 204.507812 127.511719 206.21875 127.613281 207.878906 C 127.644531 208.390625 127.675781 208.925781 127.675781 209.480469 C 126.109375 209.222656 124.34375 209.121094 122.484375 209.007812 C 119.691406 208.84375 116.800781 208.667969 114.582031 207.964844 C 114.417969 207.914062 114.183594 207.800781 113.984375 207.394531 C 113.003906 205.371094 114.4375 199.695312 115.679688 196.199219 C 120.863281 195.804688 124.199219 193.910156 125.621094 190.574219 C 128.871094 182.933594 120.527344 170.394531 118.59375 167.964844 C 118.289062 164.75 116.988281 162.492188 114.6875 161.28125 C 110.488281 159.0625 104.132812 160.972656 99.65625 163.414062 C 101.644531 155.496094 108.09375 153.929688 113.863281 153.394531 Z M 139.832031 275.570312 L 132.648438 255.976562 C 136.886719 250.464844 141.449219 244.429688 145.285156 239.179688 L 160.058594 275.570312 Z M 114.933594 275.570312 C 116.945312 274.761719 118.957031 273.273438 120.9375 270.863281 C 123.042969 268.300781 126.871094 263.453125 131.191406 257.859375 L 126.882812 275.5625 L 114.933594 275.5625 Z M 98.644531 240.507812 L 110.425781 252.367188 C 110.621094 252.566406 110.890625 252.667969 111.175781 252.640625 C 111.449219 252.617188 111.707031 252.472656 111.867188 252.242188 L 131.164062 224.578125 C 131.453125 224.15625 131.359375 223.585938 130.949219 223.277344 C 128.015625 221.117188 127.625 216.429688 128.945312 213.140625 C 129.71875 211.207031 129.605469 209.296875 129.511719 207.765625 C 129.453125 206.867188 129.386719 205.75 129.675781 205.636719 C 130.179688 205.433594 130.628906 205.449219 131.027344 205.667969 C 131.738281 206.070312 132.265625 207.128906 132.503906 208.65625 C 133.039062 212.039062 133.574219 215.605469 133.574219 215.613281 C 133.628906 215.984375 133.894531 216.285156 134.257812 216.378906 C 134.617188 216.472656 135 216.351562 135.238281 216.066406 C 141.355469 208.554688 148.988281 200.65625 150.808594 200.613281 C 151.753906 202.09375 148.722656 206.527344 146.328125 209.121094 C 146.109375 209.359375 146.027344 209.699219 146.113281 210.011719 C 146.203125 210.328125 146.441406 210.570312 146.753906 210.664062 C 147.875 210.992188 147.96875 211.285156 148.167969 211.921875 C 148.1875 211.984375 148.214844 212.046875 148.234375 212.109375 C 147.847656 212.378906 143.851562 215.261719 141.738281 218.066406 C 141.425781 218.480469 141.511719 219.070312 141.925781 219.386719 C 142.097656 219.511719 142.296875 219.574219 142.492188 219.574219 C 142.78125 219.574219 143.066406 219.441406 143.246094 219.199219 C 145.03125 216.816406 148.496094 214.242188 149.214844 213.722656 C 149.496094 213.992188 149.847656 214.261719 150.324219 214.519531 C 151.402344 215.089844 151.464844 215.386719 151.609375 216.035156 C 151.640625 216.171875 151.671875 216.316406 151.714844 216.472656 C 151.082031 216.785156 149.34375 217.808594 147.523438 220.234375 C 147.207031 220.648438 147.296875 221.238281 147.710938 221.550781 C 147.878906 221.675781 148.082031 221.742188 148.277344 221.742188 C 148.566406 221.742188 148.847656 221.609375 149.03125 221.363281 C 150.660156 219.191406 152.167969 218.351562 152.5625 218.15625 C 152.726562 218.367188 152.910156 218.582031 153.140625 218.816406 C 153.285156 218.964844 153.429688 219.097656 153.558594 219.222656 C 154.914062 220.546875 154.914062 220.546875 152.078125 225.914062 C 148.710938 232.292969 125.964844 261.785156 119.476562 269.664062 C 113.40625 277.035156 107.3125 275 100.035156 269.683594 C 96.664062 267.21875 90.402344 261.074219 84.316406 253.804688 C 84.324219 253.765625 84.332031 253.726562 84.332031 253.683594 C 84.332031 253.617188 84.558594 246.550781 89 242.761719 C 91.367188 240.738281 94.550781 239.980469 98.457031 240.5 C 98.527344 240.511719 98.589844 240.511719 98.644531 240.507812 Z M 132.414062 260.816406 L 137.820312 275.570312 L 128.828125 275.570312 Z M 117.417969 216.65625 C 116.613281 218.28125 114.84375 219.375 112.167969 219.902344 C 104.578125 221.382812 97.332031 213.414062 94.878906 210.363281 C 94.96875 210.351562 95.0625 210.34375 95.144531 210.332031 C 102.292969 209.339844 102.730469 194.867188 102.75 194.253906 C 102.761719 193.859375 102.515625 193.492188 102.148438 193.355469 C 102.089844 193.332031 96.449219 191.03125 97.015625 187.792969 C 97.191406 186.769531 97.683594 186.4375 98.945312 186.4375 C 99.367188 186.4375 99.878906 186.476562 100.488281 186.539062 C 101.988281 186.6875 103.542969 186.851562 104.367188 185.675781 C 104.609375 185.324219 104.59375 184.859375 104.316406 184.535156 C 102.855469 182.796875 99.21875 177.667969 99.863281 174.816406 C 100.191406 173.371094 100.945312 173.234375 103.277344 173.007812 C 105.152344 172.824219 107.476562 172.601562 110.117188 171.148438 C 111.609375 170.332031 112.695312 169.628906 113.574219 169.066406 C 115.820312 167.621094 115.820312 167.621094 116.996094 168.972656 C 119.152344 171.457031 126.632812 183.441406 123.910156 189.839844 C 122.742188 192.589844 119.734375 194.117188 114.976562 194.367188 C 114.605469 194.386719 114.28125 194.625 114.148438 194.976562 C 113.777344 195.957031 110.582031 204.664062 112.3125 208.222656 C 112.6875 208.996094 113.28125 209.527344 114.035156 209.765625 C 114.976562 210.070312 116.007812 210.277344 117.082031 210.433594 C 117.304688 210.929688 118.667969 214.117188 117.417969 216.65625 Z M 80.003906 182.519531 C 78.503906 181.019531 78.03125 178.652344 78.605469 175.480469 C 79.042969 173.039062 80.136719 171.324219 81.859375 170.390625 C 85.105469 168.625 89.804688 169.898438 91.6875 170.527344 C 89.410156 173.878906 87.769531 178.425781 88.117188 184.484375 C 86.367188 184.660156 82.273438 184.78125 80.003906 182.519531 Z M 90.050781 185.226562 C 89.03125 173.605469 95.816406 167.828125 99.953125 165.417969 C 104.339844 162.863281 110.332031 161.105469 113.820312 162.945312 C 115.035156 163.582031 115.871094 164.664062 116.339844 166.144531 C 115.171875 165.789062 114.117188 166.464844 112.542969 167.46875 C 111.695312 168.015625 110.632812 168.699219 109.207031 169.484375 C 106.90625 170.746094 104.785156 170.953125 103.089844 171.117188 C 100.8125 171.335938 98.664062 171.550781 98.015625 174.390625 C 97.230469 177.828125 100.488281 182.652344 102.078125 184.75 C 101.632812 184.761719 101.070312 184.699219 100.664062 184.652344 C 98.816406 184.464844 95.722656 184.152344 95.144531 187.460938 C 94.445312 191.472656 99.089844 194.027344 100.828125 194.832031 C 100.78125 195.648438 100.695312 196.644531 100.550781 197.730469 C 98.3125 196.847656 90.761719 193.269531 90.050781 185.226562 Z M 95.125 196.933594 C 97.335938 198.511719 99.417969 199.34375 100.253906 199.648438 C 99.492188 203.671875 97.910156 208.054688 94.878906 208.472656 C 94.28125 208.554688 93.601562 208.625 92.855469 208.695312 Z M 90.851562 210.734375 C 91.492188 210.683594 92.09375 210.640625 92.667969 210.589844 C 93.3125 211.460938 95.40625 214.167969 98.425781 216.742188 C 102.460938 220.183594 106.523438 221.960938 110.300781 221.960938 C 111.0625 221.960938 111.800781 221.890625 112.539062 221.746094 C 115.832031 221.101562 118.046875 219.660156 119.121094 217.476562 C 120.347656 214.976562 119.730469 212.195312 119.207031 210.671875 C 120.265625 210.765625 121.339844 210.828125 122.394531 210.890625 C 124.261719 211.003906 126.027344 211.105469 127.53125 211.363281 C 127.457031 211.726562 127.347656 212.085938 127.210938 212.441406 C 125.753906 216.082031 126.003906 221.257812 129.140625 224.207031 L 110.980469 250.238281 L 89.792969 228.910156 C 89.429688 228.539062 88.832031 228.539062 88.460938 228.902344 C 88.089844 229.269531 88.089844 229.863281 88.453125 230.234375 L 96.640625 238.476562 C 93.101562 238.382812 90.121094 239.332031 87.777344 241.339844 C 84.179688 244.417969 83.011719 249.140625 82.640625 251.75 C 75.386719 242.765625 68.796875 232.496094 68.257812 225.394531 C 67.277344 212.53125 81.457031 211.449219 90.851562 210.734375 Z M 72.140625 240.273438 C 80 253.339844 93.648438 267.351562 98.921875 271.207031 C 101.386719 273.007812 104 274.652344 106.699219 275.578125 L 65.207031 275.578125 Z M 289.464844 272.023438 C 289.558594 272.128906 291.242188 273.988281 293.304688 275.570312 L 237.40625 275.570312 C 238.488281 273.550781 241.234375 267.554688 240.574219 260.101562 C 242.070312 262.710938 244.886719 264.484375 248.113281 264.484375 L 249.179688 264.484375 C 252.40625 267.371094 261.023438 268.777344 268.355469 268.882812 C 276.519531 269.003906 280.605469 269.503906 286.589844 271.113281 C 287.363281 271.320312 288.292969 271.558594 289.34375 271.808594 C 289.375 271.886719 289.40625 271.960938 289.464844 272.023438 Z M 316.042969 267.09375 C 315.382812 268.960938 314.132812 270.277344 312.335938 271 C 305.304688 273.832031 291.222656 270.410156 287.082031 269.296875 C 280.921875 267.640625 276.726562 267.125 268.386719 267.007812 C 261.941406 266.914062 255.945312 265.863281 252.539062 264.351562 C 253.75 264.503906 255.058594 264.613281 256.246094 264.613281 C 257.246094 264.613281 258.164062 264.535156 258.863281 264.332031 C 259.359375 264.1875 259.648438 263.660156 259.503906 263.164062 C 259.359375 262.664062 258.835938 262.378906 258.332031 262.523438 C 256.175781 263.152344 250.539062 262.210938 248.546875 261.789062 C 248.546875 261.789062 248.539062 261.789062 248.539062 261.789062 C 247.671875 261.148438 246.730469 260.296875 246.300781 259.417969 C 248.828125 259.960938 254.203125 261.042969 257.523438 261.042969 C 257.65625 261.042969 257.785156 261.042969 257.914062 261.035156 C 258.433594 261.023438 258.84375 260.589844 258.828125 260.070312 C 258.816406 259.546875 258.390625 259.128906 257.863281 259.152344 C 254.285156 259.246094 247.179688 257.691406 245.652344 257.34375 C 245.074219 256.648438 244.605469 255.800781 244.652344 255.554688 C 244.652344 255.554688 244.679688 255.53125 244.753906 255.503906 C 245.414062 255.253906 246.648438 255.675781 248.207031 256.203125 C 249.933594 256.785156 252.089844 257.519531 254.808594 257.820312 C 258.992188 258.285156 262.871094 257.726562 264.457031 256.429688 C 265.058594 255.933594 265.230469 255.410156 265.261719 255.066406 C 265.347656 254.078125 264.367188 253.164062 263.011719 251.894531 C 262.3125 251.25 261.054688 250.066406 260.867188 249.535156 C 262.191406 248.832031 268.058594 251.472656 270.523438 254.292969 C 273.136719 257.28125 290.582031 255.839844 295.871094 255.324219 C 296.386719 255.273438 296.769531 254.816406 296.71875 254.292969 C 296.667969 253.773438 296.203125 253.394531 295.6875 253.445312 C 293.222656 253.683594 290.902344 253.867188 288.753906 253.992188 C 288.941406 253.390625 289.167969 252.84375 289.339844 252.472656 L 290.660156 252.472656 C 291.179688 252.472656 291.601562 252.050781 291.601562 251.53125 C 291.601562 249.523438 290.242188 247.828125 288.394531 247.304688 C 290.496094 245.816406 291.902344 243.425781 292.054688 240.699219 C 293.199219 239.828125 297.515625 236.878906 302.113281 237.988281 C 302.132812 237.996094 302.15625 237.996094 302.175781 237.996094 C 308.417969 246.433594 314.023438 255.058594 315.09375 256.980469 C 316.199219 258.996094 317.28125 263.597656 316.042969 267.09375 Z M 325.710938 242.007812 C 324.757812 245.660156 322.582031 248.5625 319.746094 249.96875 C 317.652344 251.011719 315.394531 251.121094 313.402344 250.300781 C 313.285156 250.25 313.15625 250.226562 313.03125 250.230469 C 307.914062 242.496094 298.792969 229.542969 292.023438 222.78125 C 289.496094 220.257812 286.785156 218.53125 284.078125 217.332031 C 284.070312 217.328125 284.070312 217.3125 284.0625 217.308594 C 281.800781 214.785156 279.832031 203.984375 279.179688 199.507812 C 280.183594 198.464844 280.894531 197.410156 281.378906 196.507812 C 284.527344 190.675781 283.421875 182.664062 278.625 176.574219 C 278.5 176.410156 278.367188 176.253906 278.238281 176.097656 C 279.492188 175.085938 284.441406 171.707031 290.558594 175.40625 C 293.460938 177.15625 294.261719 181.792969 295.183594 187.160156 C 296.449219 194.515625 298.027344 203.675781 306.332031 208.089844 C 311.046875 210.601562 315.09375 212.160156 318.34375 213.410156 C 324.5625 215.808594 327.679688 217.007812 327.992188 221.601562 C 328.464844 228.550781 322.679688 230.195312 322.4375 230.265625 C 322.070312 230.359375 321.800781 230.667969 321.746094 231.039062 C 321.6875 231.410156 321.863281 231.777344 322.183594 231.980469 C 322.417969 232.113281 327.472656 235.308594 325.710938 242.007812 Z M 325.710938 242.007812 " fill-opacity="1" fill-rule="nonzero"/></g><path fill="#000000" d="M 111.910156 180.792969 C 111.488281 179.96875 110.695312 179.53125 110.136719 179.820312 C 109.578125 180.101562 109.46875 181 109.890625 181.824219 C 110.3125 182.644531 111.105469 183.085938 111.664062 182.796875 C 112.222656 182.507812 112.332031 181.617188 111.910156 180.792969 Z M 111.910156 180.792969 " fill-opacity="1" fill-rule="nonzero"/><path fill="#000000" d="M 117.597656 175.925781 C 117.039062 176.210938 116.933594 177.109375 117.355469 177.929688 C 117.773438 178.753906 118.566406 179.191406 119.125 178.902344 C 119.6875 178.621094 119.792969 177.722656 119.371094 176.898438 C 118.945312 176.078125 118.152344 175.644531 117.597656 175.925781 Z M 117.597656 175.925781 " fill-opacity="1" fill-rule="nonzero"/><path fill="#000000" d="M 115.460938 183.316406 C 115.761719 183.378906 116.082031 183.410156 116.417969 183.390625 C 116.75 183.355469 117.101562 183.285156 117.453125 183.097656 C 117.792969 182.914062 118.144531 182.621094 118.335938 182.222656 C 118.523438 181.816406 118.558594 181.421875 118.390625 180.96875 C 118.359375 180.878906 118.265625 180.832031 118.171875 180.855469 L 117.253906 181.105469 C 117.183594 181.125 117.128906 181.230469 117.082031 181.277344 C 117.03125 181.332031 116.988281 181.382812 116.945312 181.421875 C 116.863281 181.496094 116.789062 181.578125 116.65625 181.652344 C 116.535156 181.742188 116.347656 181.804688 116.152344 181.871094 C 115.945312 181.9375 115.71875 181.992188 115.480469 182.066406 L 115.417969 182.085938 C 115.203125 182.148438 115.027344 182.324219 114.976562 182.5625 C 114.894531 182.902344 115.117188 183.242188 115.460938 183.316406 Z M 115.460938 183.316406 " fill-opacity="1" fill-rule="nonzero"/><path fill="#000000" d="M 117.308594 187.980469 C 117.0625 188.058594 116.792969 188.050781 116.53125 188.101562 C 116.257812 188.132812 115.988281 188.113281 115.707031 188.144531 L 115.613281 188.15625 C 115.390625 188.183594 115.199219 188.339844 115.140625 188.566406 C 115.066406 188.859375 115.242188 189.160156 115.535156 189.238281 C 115.851562 189.320312 116.171875 189.394531 116.5 189.445312 C 116.832031 189.464844 117.164062 189.519531 117.503906 189.46875 C 118.191406 189.449219 118.875 189.230469 119.503906 188.917969 C 120.132812 188.597656 120.679688 188.132812 121.105469 187.585938 C 121.539062 187.035156 121.828125 186.457031 122.011719 185.734375 C 122.074219 185.476562 121.96875 185.195312 121.730469 185.042969 C 121.433594 184.859375 121.042969 184.949219 120.863281 185.25 L 120.804688 185.339844 C 120.558594 185.734375 120.21875 186.191406 119.878906 186.550781 C 119.535156 186.921875 119.144531 187.234375 118.71875 187.472656 C 118.285156 187.691406 117.824219 187.894531 117.308594 187.980469 Z M 117.308594 187.980469 " fill-opacity="1" fill-rule="nonzero"/><path fill="#000000" d="M 115.242188 175.808594 L 115.304688 175.746094 C 115.566406 175.46875 115.75 175.210938 115.964844 174.996094 C 116.160156 174.773438 116.371094 174.601562 116.59375 174.425781 C 116.820312 174.257812 117.078125 174.113281 117.378906 173.980469 C 117.667969 173.855469 118.019531 173.75 118.339844 173.636719 L 118.429688 173.605469 C 118.527344 173.566406 118.609375 173.496094 118.660156 173.390625 C 118.75 173.191406 118.660156 172.953125 118.460938 172.863281 C 118.007812 172.65625 117.566406 172.601562 117.097656 172.625 C 116.628906 172.648438 116.148438 172.792969 115.71875 173.046875 C 115.285156 173.289062 114.914062 173.65625 114.667969 174.074219 C 114.417969 174.496094 114.296875 174.960938 114.296875 175.417969 C 114.296875 175.5625 114.355469 175.707031 114.460938 175.8125 C 114.683594 176.027344 115.027344 176.027344 115.242188 175.808594 Z M 115.242188 175.808594 " fill-opacity="1" fill-rule="nonzero"/><path fill="#000000" d="M 110.609375 177.578125 C 110.707031 177.539062 110.789062 177.472656 110.839844 177.363281 C 110.929688 177.164062 110.839844 176.925781 110.640625 176.835938 C 110.1875 176.628906 109.746094 176.574219 109.277344 176.597656 C 108.808594 176.625 108.328125 176.769531 107.898438 177.019531 C 107.464844 177.265625 107.09375 177.628906 106.847656 178.050781 C 106.597656 178.46875 106.476562 178.933594 106.476562 179.394531 C 106.476562 179.539062 106.535156 179.683594 106.648438 179.789062 C 106.867188 180 107.214844 179.996094 107.421875 179.777344 L 107.484375 179.714844 C 107.746094 179.4375 107.929688 179.179688 108.144531 178.964844 C 108.339844 178.738281 108.550781 178.570312 108.773438 178.394531 C 109 178.226562 109.257812 178.082031 109.558594 177.949219 C 109.847656 177.824219 110.199219 177.714844 110.519531 177.601562 Z M 110.609375 177.578125 " fill-opacity="1" fill-rule="nonzero"/><path fill="#000000" d="M 253.449219 185.996094 C 253.894531 185.125 253.78125 184.171875 253.183594 183.871094 C 252.59375 183.566406 251.75 184.03125 251.300781 184.90625 C 250.847656 185.777344 250.964844 186.730469 251.5625 187.035156 C 252.160156 187.335938 253.003906 186.871094 253.449219 185.996094 Z M 253.449219 185.996094 " fill-opacity="1" fill-rule="nonzero"/><path fill="#000000" d="M 252.6875 181.488281 L 252.78125 181.519531 C 253.128906 181.640625 253.5 181.753906 253.808594 181.886719 C 254.121094 182.023438 254.398438 182.175781 254.636719 182.355469 C 254.875 182.542969 255.101562 182.71875 255.304688 182.964844 C 255.53125 183.183594 255.722656 183.46875 256.007812 183.757812 L 256.070312 183.824219 C 256.175781 183.933594 256.320312 184 256.484375 184 C 256.804688 184 257.070312 183.742188 257.070312 183.417969 C 257.070312 182.933594 256.945312 182.4375 256.671875 181.992188 C 256.417969 181.546875 256.019531 181.15625 255.5625 180.894531 C 255.109375 180.625 254.59375 180.472656 254.097656 180.449219 C 253.59375 180.421875 253.128906 180.484375 252.644531 180.699219 C 252.542969 180.742188 252.457031 180.832031 252.417969 180.945312 C 252.347656 181.167969 252.46875 181.40625 252.6875 181.488281 Z M 252.6875 181.488281 " fill-opacity="1" fill-rule="nonzero"/><path fill="#000000" d="M 144.585938 125.3125 C 143.976562 125.21875 143.375 125.875 143.234375 126.773438 C 143.097656 127.671875 143.480469 128.480469 144.089844 128.570312 C 144.699219 128.664062 145.304688 128.003906 145.441406 127.105469 C 145.578125 126.210938 145.195312 125.40625 144.585938 125.3125 Z M 144.585938 125.3125 " fill-opacity="1" fill-rule="nonzero"/><path fill="#000000" d="M 139.34375 130.609375 C 139.632812 130.773438 139.953125 130.917969 140.34375 130.96875 C 140.71875 131.019531 141.171875 130.980469 141.550781 130.773438 C 141.933594 130.554688 142.191406 130.265625 142.316406 129.804688 C 142.34375 129.71875 142.292969 129.625 142.203125 129.59375 L 141.324219 129.265625 C 141.253906 129.242188 141.152344 129.292969 141.089844 129.304688 C 141.015625 129.316406 140.953125 129.335938 140.894531 129.335938 C 140.78125 129.347656 140.683594 129.375 140.53125 129.355469 C 140.386719 129.355469 140.199219 129.296875 140.003906 129.242188 C 139.800781 129.179688 139.589844 129.089844 139.351562 129.007812 L 139.292969 128.992188 C 139.085938 128.914062 138.839844 128.957031 138.664062 129.117188 C 138.40625 129.347656 138.386719 129.742188 138.621094 130 C 138.828125 130.226562 139.066406 130.433594 139.34375 130.609375 Z M 139.34375 130.609375 " fill-opacity="1" fill-rule="nonzero"/><path fill="#000000" d="M 135.929688 135.488281 C 136.1875 135.6875 136.421875 135.929688 136.722656 136.085938 C 137.28125 136.460938 137.960938 136.679688 138.640625 136.789062 C 139.324219 136.894531 140.035156 136.832031 140.683594 136.644531 C 141.347656 136.449219 141.914062 136.152344 142.472656 135.683594 C 142.675781 135.511719 142.75 135.226562 142.644531 134.96875 C 142.511719 134.652344 142.148438 134.503906 141.832031 134.632812 L 141.738281 134.671875 C 141.316406 134.847656 140.78125 135.023438 140.304688 135.117188 C 139.816406 135.210938 139.324219 135.242188 138.839844 135.1875 C 138.363281 135.125 137.878906 135.015625 137.417969 134.796875 C 137.179688 134.714844 136.96875 134.558594 136.726562 134.445312 C 136.496094 134.3125 136.289062 134.144531 136.042969 134.007812 L 135.960938 133.960938 C 135.773438 133.855469 135.527344 133.867188 135.34375 134.019531 C 135.113281 134.207031 135.082031 134.554688 135.277344 134.785156 C 135.484375 135.015625 135.699219 135.261719 135.929688 135.488281 Z M 135.929688 135.488281 " fill-opacity="1" fill-rule="nonzero"/><path fill="#000000" d="M 142.769531 123.867188 L 142.851562 123.855469 C 143.222656 123.785156 143.519531 123.679688 143.808594 123.636719 C 144.089844 123.558594 144.359375 123.546875 144.636719 123.535156 C 144.914062 123.527344 145.207031 123.566406 145.515625 123.628906 C 145.824219 123.691406 146.164062 123.8125 146.484375 123.90625 L 146.574219 123.929688 C 146.671875 123.960938 146.78125 123.949219 146.882812 123.890625 C 147.070312 123.785156 147.132812 123.539062 147.027344 123.359375 C 146.78125 122.9375 146.464844 122.636719 146.070312 122.386719 C 145.679688 122.132812 145.214844 121.976562 144.726562 121.933594 C 144.242188 121.882812 143.726562 121.957031 143.292969 122.160156 C 142.84375 122.347656 142.488281 122.65625 142.222656 123.019531 C 142.140625 123.132812 142.101562 123.285156 142.128906 123.425781 C 142.191406 123.722656 142.472656 123.917969 142.769531 123.867188 Z M 142.769531 123.867188 " fill-opacity="1" fill-rule="nonzero"/><path fill="#000000" d="M 180.644531 126.945312 C 180.929688 127.363281 182.152344 129.523438 182.40625 130.277344 C 182.394531 130.300781 182.398438 130.332031 182.394531 130.367188 C 181.941406 130.886719 181.570312 131.609375 181.640625 132.386719 C 181.675781 132.800781 181.839844 133.183594 182.117188 133.492188 C 181.929688 134.027344 181.871094 134.660156 182.121094 135.21875 C 182.363281 135.746094 182.847656 136.097656 183.472656 136.210938 C 184.054688 136.3125 184.664062 136.386719 185.277344 136.441406 C 185.277344 136.449219 185.273438 136.457031 185.273438 136.460938 C 185.273438 137.863281 186.410156 138.996094 187.8125 138.996094 L 188.886719 138.996094 C 190.289062 138.996094 191.425781 137.863281 191.425781 136.460938 L 191.425781 136.34375 C 191.425781 136.316406 191.414062 136.292969 191.414062 136.265625 C 191.578125 136.242188 191.742188 136.214844 191.90625 136.191406 C 192.011719 136.171875 194.570312 135.683594 194.996094 134.214844 C 195.097656 133.863281 195.117188 133.359375 194.714844 132.8125 C 194.859375 132.332031 194.996094 131.558594 194.726562 130.875 C 194.621094 130.605469 194.457031 130.378906 194.253906 130.183594 C 194.34375 128.46875 195.300781 127.019531 196.324219 125.492188 C 197.335938 123.972656 198.386719 122.40625 198.636719 120.464844 C 198.863281 118.695312 198.710938 116.792969 198.195312 114.957031 C 196.992188 110.683594 193.878906 107.714844 190.0625 107.203125 C 186.636719 106.753906 183.066406 107.8125 180.527344 110.042969 C 178.167969 112.113281 176.875 114.976562 176.878906 118.109375 C 176.890625 121.261719 178.746094 124.199219 180.644531 126.945312 Z M 186.699219 121.105469 C 187.183594 120.941406 187.6875 120.710938 188.203125 120.390625 C 188.71875 120.703125 189.21875 120.941406 189.703125 121.105469 C 189.074219 123.828125 189.464844 128.53125 189.578125 129.71875 C 188.671875 129.726562 187.71875 129.738281 186.820312 129.742188 C 186.933594 128.59375 187.335938 123.84375 186.699219 121.105469 Z M 193.105469 131.195312 C 193.25 131.261719 193.300781 131.34375 193.332031 131.421875 C 193.449219 131.722656 193.335938 132.210938 193.238281 132.511719 L 183.273438 132.511719 C 183.179688 132.417969 183.152344 132.324219 183.148438 132.25 C 183.121094 131.972656 183.316406 131.589844 183.605469 131.28125 C 185.367188 131.261719 191.488281 131.207031 193.105469 131.195312 Z M 189.929688 136.460938 C 189.929688 137.03125 189.464844 137.492188 188.898438 137.492188 L 187.824219 137.492188 C 187.277344 137.492188 186.835938 137.0625 186.800781 136.53125 C 187.089844 136.535156 187.378906 136.550781 187.671875 136.550781 C 188.433594 136.550781 189.195312 136.519531 189.929688 136.449219 Z M 191.632812 134.710938 C 189.269531 135.148438 186.171875 135.148438 183.738281 134.722656 C 183.539062 134.683594 183.503906 134.617188 183.492188 134.589844 C 183.441406 134.476562 183.457031 134.257812 183.53125 134.019531 L 193.351562 134.019531 C 193.035156 134.265625 192.363281 134.578125 191.632812 134.710938 Z M 181.527344 111.179688 C 183.40625 109.527344 185.933594 108.609375 188.492188 108.609375 C 188.949219 108.609375 189.414062 108.640625 189.875 108.699219 C 193.125 109.132812 195.695312 111.625 196.75 115.367188 C 197.210938 117.003906 197.347656 118.699219 197.148438 120.269531 C 196.945312 121.859375 196.035156 123.214844 195.078125 124.652344 C 194.0625 126.175781 193.003906 127.753906 192.785156 129.6875 C 192.363281 129.695312 191.773438 129.699219 191.101562 129.707031 C 190.855469 127.277344 190.710938 123.347656 191.175781 121.398438 C 192.753906 121.511719 194.011719 120.898438 194.664062 120.214844 C 195.429688 119.402344 195.550781 118.398438 194.960938 117.65625 C 194.382812 116.921875 193.765625 116.796875 193.351562 116.824219 C 192.238281 116.886719 191.308594 118.015625 190.257812 119.699219 C 189.75 119.535156 189.203125 119.269531 188.636719 118.875 C 188.558594 118.824219 188.476562 118.792969 188.390625 118.769531 C 188.378906 118.761719 188.367188 118.757812 188.351562 118.757812 C 188.300781 118.75 188.257812 118.757812 188.207031 118.757812 C 188.15625 118.757812 188.109375 118.75 188.058594 118.757812 C 188.042969 118.757812 188.039062 118.761719 188.027344 118.769531 C 187.9375 118.789062 187.855469 118.824219 187.78125 118.875 C 187.214844 119.269531 186.667969 119.535156 186.160156 119.699219 C 185.109375 118.015625 184.179688 116.886719 183.066406 116.824219 C 182.644531 116.796875 182.035156 116.921875 181.457031 117.65625 C 180.871094 118.40625 180.984375 119.402344 181.75 120.214844 C 182.40625 120.902344 183.664062 121.511719 185.242188 121.398438 C 185.707031 123.359375 185.5625 127.332031 185.316406 129.757812 C 184.71875 129.761719 184.191406 129.769531 183.8125 129.769531 C 183.367188 128.300781 181.921875 126.109375 181.902344 126.082031 C 180.136719 123.535156 178.414062 120.820312 178.402344 118.105469 C 178.386719 115.417969 179.496094 112.957031 181.527344 111.179688 Z M 191.929688 119.878906 C 192.816406 118.5625 193.25 118.328125 193.433594 118.324219 C 193.433594 118.324219 193.4375 118.324219 193.4375 118.324219 C 193.558594 118.324219 193.722656 118.523438 193.773438 118.585938 C 193.929688 118.78125 193.601562 119.140625 193.5625 119.175781 C 193.25 119.511719 192.679688 119.804688 191.929688 119.878906 Z M 184.480469 119.878906 C 183.730469 119.804688 183.160156 119.511719 182.839844 119.175781 C 182.800781 119.140625 182.476562 118.78125 182.632812 118.585938 C 182.683594 118.523438 182.847656 118.324219 182.964844 118.324219 C 182.964844 118.324219 182.972656 118.324219 182.972656 118.324219 C 183.160156 118.335938 183.59375 118.566406 184.480469 119.878906 Z M 184.480469 119.878906 " fill-opacity="1" fill-rule="nonzero"/><path fill="#000000" d="M 171.109375 121.480469 C 170.699219 121.414062 170.3125 121.6875 170.242188 122.101562 C 170.171875 122.511719 170.449219 122.898438 170.863281 122.96875 L 174.382812 123.554688 C 174.429688 123.558594 174.464844 123.566406 174.511719 123.566406 C 174.875 123.566406 175.1875 123.300781 175.25 122.9375 C 175.320312 122.53125 175.042969 122.140625 174.628906 122.070312 Z M 171.109375 121.480469 " fill-opacity="1" fill-rule="nonzero"/><path fill="#000000" d="M 177.238281 106.601562 C 177.375 106.703125 177.535156 106.753906 177.691406 106.753906 C 177.917969 106.753906 178.144531 106.652344 178.292969 106.449219 C 178.546875 106.117188 178.484375 105.648438 178.148438 105.394531 L 175.300781 103.242188 C 174.96875 102.992188 174.496094 103.054688 174.246094 103.386719 C 173.996094 103.71875 174.058594 104.191406 174.390625 104.441406 Z M 177.238281 106.601562 " fill-opacity="1" fill-rule="nonzero"/><path fill="#000000" d="M 201.59375 121.675781 C 201.183594 121.746094 200.902344 122.132812 200.96875 122.542969 C 201.03125 122.914062 201.351562 123.171875 201.710938 123.171875 C 201.753906 123.171875 201.792969 123.164062 201.835938 123.15625 L 205.359375 122.574219 C 205.765625 122.503906 206.050781 122.117188 205.980469 121.707031 C 205.910156 121.300781 205.527344 121.023438 205.113281 121.085938 Z M 201.59375 121.675781 " fill-opacity="1" fill-rule="nonzero"/><path fill="#000000" d="M 168.683594 112.207031 L 173.378906 113.964844 C 173.464844 113.996094 173.554688 114.015625 173.640625 114.015625 C 173.949219 114.015625 174.234375 113.828125 174.347656 113.527344 C 174.492188 113.136719 174.296875 112.703125 173.90625 112.558594 L 169.210938 110.800781 C 168.820312 110.65625 168.386719 110.851562 168.242188 111.242188 C 168.097656 111.625 168.292969 112.058594 168.683594 112.207031 Z M 168.683594 112.207031 " fill-opacity="1" fill-rule="nonzero"/><path fill="#000000" d="M 197.902344 106.519531 C 198.058594 106.519531 198.222656 106.46875 198.355469 106.371094 L 201.203125 104.214844 C 201.535156 103.964844 201.597656 103.492188 201.347656 103.160156 C 201.09375 102.828125 200.625 102.765625 200.289062 103.015625 L 197.441406 105.171875 C 197.109375 105.421875 197.046875 105.890625 197.296875 106.226562 C 197.449219 106.414062 197.675781 106.519531 197.902344 106.519531 Z M 197.902344 106.519531 " fill-opacity="1" fill-rule="nonzero"/><path fill="#000000" d="M 201.238281 113.289062 C 201.351562 113.589844 201.640625 113.777344 201.945312 113.777344 C 202.03125 113.777344 202.121094 113.765625 202.207031 113.726562 L 206.902344 111.96875 C 207.292969 111.824219 207.488281 111.390625 207.34375 111.003906 C 207.199219 110.613281 206.765625 110.417969 206.371094 110.5625 L 201.671875 112.320312 C 201.289062 112.464844 201.09375 112.898438 201.238281 113.289062 Z M 201.238281 113.289062 " fill-opacity="1" fill-rule="nonzero"/><g clip-path="url(#id2)"><path fill="#000000" d="M 188.566406 104.441406 C 188.980469 104.441406 189.320312 104.101562 189.320312 103.6875 L 189.320312 98.214844 C 189.320312 97.800781 188.980469 97.460938 188.566406 97.460938 C 188.152344 97.460938 187.8125 97.800781 187.8125 98.214844 L 187.8125 103.6875 C 187.8125 104.101562 188.152344 104.441406 188.566406 104.441406 Z M 188.566406 104.441406 " fill-opacity="1" fill-rule="nonzero"/></g></svg>