<svg xmlns="http://www.w3.org/2000/svg" xmlns:xlink="http://www.w3.org/1999/xlink" width="500" zoomAndPan="magnify" viewBox="0 0 375 374.999991" height="500" preserveAspectRatio="xMidYMid meet" version="1.0"><defs><clipPath id="id1"><path d="M 198 276 L 285 276 L 285 299.828125 L 198 299.828125 Z M 198 276 " clip-rule="nonzero"/></clipPath><clipPath id="id2"><path d="M 59.464844 165 L 166 165 L 166 234 L 59.464844 234 Z M 59.464844 165 " clip-rule="nonzero"/></clipPath><clipPath id="id3"><path d="M 59.464844 88 L 310 88 L 310 299.828125 L 59.464844 299.828125 Z M 59.464844 88 " clip-rule="nonzero"/></clipPath><clipPath id="id4"><path d="M 297 265 L 315.214844 265 L 315.214844 283 L 297 283 Z M 297 265 " clip-rule="nonzero"/></clipPath><clipPath id="id5"><path d="M 66 74.828125 L 282 74.828125 L 282 255 L 66 255 Z M 66 74.828125 " clip-rule="nonzero"/></clipPath></defs><path fill="#f5f5f5" d="M 161.046875 270.007812 L 110.480469 270.007812 L 110.480469 244.367188 C 110.480469 243.121094 111.492188 242.109375 112.738281 242.109375 L 158.789062 242.109375 C 160.035156 242.109375 161.046875 243.121094 161.046875 244.367188 Z M 161.046875 270.007812 " fill-opacity="1" fill-rule="nonzero"/><path fill="#f5f5f5" d="M 139.15625 144.117188 C 140.859375 145.492188 143.894531 147.945312 145.597656 149.324219 C 146.285156 149.878906 147.292969 149.773438 147.847656 149.085938 C 147.859375 149.070312 147.867188 149.0625 147.875 149.050781 C 147.875 149.050781 148.273438 148.5625 148.574219 148.191406 C 148.660156 148.082031 148.703125 147.945312 148.6875 147.804688 C 148.671875 147.667969 148.601562 147.539062 148.496094 147.453125 C 147.9375 147.003906 146.949219 146.203125 146.390625 145.753906 C 146.285156 145.667969 146.144531 145.625 146.007812 145.640625 C 145.867188 145.65625 145.742188 145.722656 145.652344 145.832031 C 145.460938 146.070312 145.226562 146.359375 145.085938 146.535156 L 141.988281 144.03125 C 142.128906 143.863281 142.320312 143.621094 142.492188 143.410156 C 142.585938 143.292969 142.628906 143.144531 142.613281 143 C 142.597656 142.851562 142.523438 142.714844 142.410156 142.621094 L 140.363281 140.96875 C 140.246094 140.875 140.097656 140.832031 139.949219 140.847656 C 139.804688 140.863281 139.667969 140.933594 139.574219 141.050781 C 139.402344 141.261719 139.210938 141.503906 139.070312 141.671875 C 139.070312 141.671875 139.007812 141.75 138.914062 141.863281 C 138.910156 141.867188 138.90625 141.875 138.90625 141.878906 C 138.898438 141.886719 138.894531 141.894531 138.894531 141.894531 C 138.363281 142.582031 138.476562 143.570312 139.15625 144.117188 Z M 139.15625 144.117188 " fill-opacity="1" fill-rule="nonzero"/><path fill="#f5f5f5" d="M 100.8125 104.699219 L 100.8125 135.886719 C 100.8125 138.183594 102.675781 140.046875 104.976562 140.046875 L 150.359375 140.046875 C 152.65625 140.046875 154.523438 138.183594 154.523438 135.886719 L 154.523438 104.699219 C 154.523438 102.398438 152.65625 100.535156 150.359375 100.535156 L 104.976562 100.535156 C 102.675781 100.535156 100.8125 102.398438 100.8125 104.699219 Z M 148.175781 104.140625 C 148.945312 104.140625 149.566406 104.765625 149.566406 105.535156 C 149.566406 106.304688 148.945312 106.925781 148.175781 106.925781 C 147.40625 106.925781 146.78125 106.304688 146.78125 105.535156 C 146.78125 104.765625 147.40625 104.140625 148.175781 104.140625 Z M 148.175781 104.140625 " fill-opacity="1" fill-rule="nonzero"/><path fill="#f5f5f5" d="M 160.992188 271.96875 C 160.96875 272.046875 160.9375 272.125 160.898438 272.195312 C 160.9375 272.125 160.96875 272.046875 160.992188 271.96875 Z M 160.992188 271.96875 " fill-opacity="1" fill-rule="nonzero"/><path fill="#f5f5f5" d="M 69.875 245.269531 L 83.007812 245.269531 L 83.007812 251.175781 L 69.875 251.175781 Z M 69.875 245.269531 " fill-opacity="1" fill-rule="nonzero"/><path fill="#f5f5f5" d="M 103.125 92.621094 C 103.125 93.183594 103.070312 93.734375 102.960938 94.285156 C 102.851562 94.832031 102.691406 95.363281 102.476562 95.882812 C 102.261719 96.398438 102 96.886719 101.691406 97.351562 C 101.378906 97.816406 101.027344 98.25 100.628906 98.644531 C 100.234375 99.039062 99.804688 99.390625 99.339844 99.703125 C 98.875 100.011719 98.382812 100.277344 97.867188 100.488281 C 97.351562 100.703125 96.816406 100.863281 96.269531 100.972656 C 95.722656 101.082031 95.167969 101.136719 94.609375 101.136719 C 94.046875 101.136719 93.496094 101.082031 92.945312 100.972656 C 92.398438 100.863281 91.867188 100.703125 91.347656 100.488281 C 90.832031 100.277344 90.339844 100.011719 89.875 99.703125 C 89.410156 99.390625 88.980469 99.039062 88.585938 98.644531 C 88.191406 98.25 87.835938 97.816406 87.527344 97.351562 C 87.214844 96.886719 86.953125 96.398438 86.738281 95.882812 C 86.523438 95.363281 86.363281 94.832031 86.253906 94.285156 C 86.144531 93.734375 86.089844 93.183594 86.089844 92.621094 C 86.089844 92.0625 86.144531 91.511719 86.253906 90.960938 C 86.363281 90.414062 86.523438 89.882812 86.738281 89.363281 C 86.953125 88.847656 87.214844 88.355469 87.527344 87.890625 C 87.835938 87.425781 88.191406 86.996094 88.585938 86.601562 C 88.980469 86.207031 89.410156 85.855469 89.875 85.542969 C 90.339844 85.230469 90.832031 84.96875 91.347656 84.757812 C 91.867188 84.542969 92.398438 84.378906 92.945312 84.273438 C 93.496094 84.164062 94.046875 84.109375 94.609375 84.109375 C 95.167969 84.109375 95.722656 84.164062 96.269531 84.273438 C 96.816406 84.378906 97.351562 84.542969 97.867188 84.757812 C 98.382812 84.96875 98.875 85.230469 99.339844 85.542969 C 99.804688 85.855469 100.234375 86.207031 100.628906 86.601562 C 101.027344 86.996094 101.378906 87.425781 101.691406 87.890625 C 102 88.355469 102.261719 88.847656 102.476562 89.363281 C 102.691406 89.882812 102.851562 90.414062 102.960938 90.960938 C 103.070312 91.511719 103.125 92.0625 103.125 92.621094 Z M 103.125 92.621094 " fill-opacity="1" fill-rule="nonzero"/><path fill="#f5f5f5" d="M 238.964844 81.828125 C 239.6875 81.828125 240.273438 81.246094 240.273438 80.523438 C 240.273438 79.800781 239.6875 79.214844 238.964844 79.214844 C 238.242188 79.214844 237.65625 79.800781 237.65625 80.523438 C 237.65625 81.246094 238.242188 81.828125 238.964844 81.828125 Z M 238.964844 81.828125 " fill-opacity="1" fill-rule="nonzero"/><path fill="#f5f5f5" d="M 242.875 81.828125 C 243.597656 81.828125 244.183594 81.246094 244.183594 80.523438 C 244.183594 79.800781 243.597656 79.214844 242.875 79.214844 C 242.152344 79.214844 241.566406 79.800781 241.566406 80.523438 C 241.566406 81.246094 242.152344 81.828125 242.875 81.828125 Z M 242.875 81.828125 " fill-opacity="1" fill-rule="nonzero"/><path fill="#f5f5f5" d="M 183.890625 159.421875 L 297.714844 159.421875 C 298.609375 159.421875 299.332031 158.699219 299.332031 157.804688 L 299.332031 85.773438 C 299.332031 84.878906 298.609375 84.15625 297.714844 84.15625 L 183.890625 84.15625 C 182.996094 84.15625 182.273438 84.878906 182.273438 85.773438 L 182.273438 157.804688 C 182.273438 158.695312 182.996094 159.421875 183.890625 159.421875 Z M 183.890625 159.421875 " fill-opacity="1" fill-rule="nonzero"/><path fill="#f5f5f5" d="M 235.054688 81.828125 C 235.777344 81.828125 236.363281 81.246094 236.363281 80.523438 C 236.363281 79.800781 235.777344 79.214844 235.054688 79.214844 C 234.332031 79.214844 233.746094 79.800781 233.746094 80.523438 C 233.746094 81.246094 234.332031 81.828125 235.054688 81.828125 Z M 235.054688 81.828125 " fill-opacity="1" fill-rule="nonzero"/><g clip-path="url(#id1)"><path fill="#f5f5f5" d="M 266.691406 276.15625 L 218.371094 276.15625 L 218.371094 294.109375 L 198.574219 294.109375 L 198.574219 299.125 L 284.265625 299.125 L 284.265625 294.109375 L 266.691406 294.109375 Z M 266.691406 276.15625 " fill-opacity="1" fill-rule="nonzero"/></g><path fill="#f5f5f5" d="M 160.863281 272.265625 C 160.808594 272.355469 160.75 272.4375 160.675781 272.515625 C 160.75 272.4375 160.808594 272.355469 160.863281 272.265625 Z M 160.863281 272.265625 " fill-opacity="1" fill-rule="nonzero"/><path fill="#f5f5f5" d="M 160.992188 271.96875 C 161.003906 271.9375 161.011719 271.910156 161.019531 271.882812 C 161.011719 271.910156 161.003906 271.9375 160.992188 271.96875 Z M 160.992188 271.96875 " fill-opacity="1" fill-rule="nonzero"/><path fill="#f5f5f5" d="M 160.863281 272.265625 C 160.875 272.242188 160.886719 272.21875 160.898438 272.195312 C 160.886719 272.21875 160.875 272.242188 160.863281 272.265625 Z M 160.863281 272.265625 " fill-opacity="1" fill-rule="nonzero"/><g clip-path="url(#id2)"><path fill="#f5f5f5" d="M 163.839844 165.414062 L 61.8125 165.414062 C 60.671875 165.414062 59.746094 166.339844 59.746094 167.480469 L 59.746094 231.605469 C 59.746094 232.746094 60.671875 233.671875 61.8125 233.671875 L 163.839844 233.671875 C 164.980469 233.671875 165.90625 232.746094 165.90625 231.605469 L 165.90625 167.480469 C 165.90625 166.339844 164.980469 165.414062 163.839844 165.414062 Z M 163.839844 165.414062 " fill-opacity="1" fill-rule="nonzero"/></g><path fill="#f5f5f5" d="M 161.019531 271.882812 C 161.046875 271.777344 161.0625 271.664062 161.0625 271.550781 L 161.085938 248.089844 L 161.0625 271.550781 C 161.0625 271.664062 161.046875 271.777344 161.019531 271.882812 Z M 161.019531 271.882812 " fill-opacity="1" fill-rule="nonzero"/><path fill="#f5f5f5" d="M 160.675781 272.515625 C 160.59375 272.601562 160.503906 272.675781 160.40625 272.738281 C 160.503906 272.675781 160.59375 272.601562 160.675781 272.515625 Z M 160.675781 272.515625 " fill-opacity="1" fill-rule="nonzero"/><path fill="#f5f5f5" d="M 309.71875 267.453125 C 309.71875 246.667969 309.71875 194.46875 309.71875 177.960938 C 309.71875 175.152344 307.4375 172.878906 304.632812 172.878906 L 178.761719 172.878906 C 175.953125 172.878906 173.675781 175.152344 173.675781 177.960938 L 173.675781 271.03125 C 173.675781 273.839844 175.953125 276.117188 178.761719 276.117188 C 198.820312 276.117188 272.671875 276.117188 299.710938 276.117188 C 300.667969 278.933594 303.332031 280.964844 306.472656 280.964844 C 310.421875 280.964844 313.625 277.765625 313.625 273.816406 C 313.625 271.039062 312.035156 268.636719 309.71875 267.453125 Z M 309.71875 267.453125 " fill-opacity="1" fill-rule="nonzero"/><g clip-path="url(#id3)"><path fill="#e0e0e0" d="M 154.523438 104.699219 C 154.523438 102.398438 152.65625 100.535156 150.359375 100.535156 L 104.976562 100.535156 C 102.675781 100.535156 100.808594 102.398438 100.808594 104.699219 L 100.808594 109.761719 L 154.519531 109.761719 Z M 148.175781 106.925781 C 147.40625 106.925781 146.78125 106.304688 146.78125 105.535156 C 146.78125 104.765625 147.40625 104.140625 148.175781 104.140625 C 148.945312 104.140625 149.566406 104.765625 149.566406 105.535156 C 149.566406 106.304688 148.945312 106.925781 148.175781 106.925781 Z M 153.257812 168.90625 C 153.90625 168.90625 154.429688 169.429688 154.429688 170.078125 C 154.429688 170.726562 153.90625 171.25 153.257812 171.25 C 152.609375 171.25 152.085938 170.726562 152.085938 170.078125 C 152.085938 169.429688 152.609375 168.90625 153.257812 168.90625 Z M 155.523438 170.078125 C 155.523438 169.429688 156.046875 168.90625 156.695312 168.90625 C 157.34375 168.90625 157.867188 169.429688 157.867188 170.078125 C 157.867188 170.726562 157.34375 171.25 156.695312 171.25 C 156.046875 171.25 155.523438 170.726562 155.523438 170.078125 Z M 292.5625 89.296875 C 292.5625 88.582031 293.144531 88.003906 293.855469 88.003906 C 294.570312 88.003906 295.148438 88.582031 295.148438 89.296875 C 295.148438 90.011719 294.570312 90.589844 293.855469 90.589844 C 293.144531 90.589844 292.5625 90.011719 292.5625 89.296875 Z M 288.753906 89.296875 C 288.753906 88.582031 289.335938 88.003906 290.046875 88.003906 C 290.761719 88.003906 291.339844 88.582031 291.339844 89.296875 C 291.339844 90.011719 290.761719 90.589844 290.046875 90.589844 C 289.332031 90.589844 288.753906 90.011719 288.753906 89.296875 Z M 284.96875 89.296875 C 284.96875 88.582031 285.546875 88.003906 286.257812 88.003906 C 286.972656 88.003906 287.550781 88.582031 287.550781 89.296875 C 287.550781 90.011719 286.972656 90.589844 286.257812 90.589844 C 285.546875 90.589844 284.96875 90.011719 284.96875 89.296875 Z M 158.976562 170.078125 C 158.976562 169.429688 159.5 168.90625 160.148438 168.90625 C 160.796875 168.90625 161.320312 169.429688 161.320312 170.078125 C 161.320312 170.726562 160.796875 171.25 160.148438 171.25 C 159.5 171.25 158.976562 170.726562 158.976562 170.078125 Z M 182.078125 93.960938 C 182.078125 93.851562 182.164062 93.765625 182.273438 93.765625 L 299.332031 93.765625 C 299.441406 93.765625 299.527344 93.851562 299.527344 93.960938 C 299.527344 94.066406 299.441406 94.152344 299.332031 94.152344 L 182.273438 94.152344 C 182.164062 94.152344 182.078125 94.066406 182.078125 93.960938 Z M 148.175781 125.871094 L 107.160156 125.871094 C 106.871094 125.871094 106.636719 125.636719 106.636719 125.347656 C 106.636719 125.0625 106.871094 124.828125 107.160156 124.828125 L 148.175781 124.828125 C 148.460938 124.828125 148.695312 125.0625 148.695312 125.347656 C 148.695312 125.636719 148.460938 125.871094 148.175781 125.871094 Z M 218.371094 276.15625 L 266.691406 276.15625 L 218.382812 286.078125 Z M 244.539062 270.542969 C 243.089844 270.542969 241.914062 269.367188 241.914062 267.914062 C 241.914062 266.464844 243.089844 265.289062 244.539062 265.289062 C 245.988281 265.289062 247.164062 266.464844 247.164062 267.914062 C 247.164062 269.367188 245.988281 270.542969 244.539062 270.542969 Z M 304.632812 172.878906 L 178.761719 172.878906 C 175.953125 172.878906 173.675781 175.152344 173.675781 177.960938 L 173.675781 259.820312 L 309.71875 259.820312 C 309.71875 235.949219 309.71875 192.707031 309.71875 177.960938 C 309.71875 175.152344 307.4375 172.878906 304.632812 172.878906 Z M 303.550781 254.308594 L 179.996094 254.308594 L 179.996094 178.332031 L 303.550781 178.332031 Z M 166.171875 174.304688 C 166.171875 174.453125 166.054688 174.570312 165.90625 174.570312 L 59.746094 174.570312 C 59.601562 174.570312 59.484375 174.453125 59.484375 174.304688 C 59.484375 174.160156 59.601562 174.042969 59.746094 174.042969 L 165.90625 174.042969 C 166.054688 174.042969 166.171875 174.160156 166.171875 174.304688 Z M 135.953125 132.582031 C 136.238281 132.582031 136.472656 132.8125 136.472656 133.101562 C 136.472656 133.390625 136.242188 133.621094 135.953125 133.621094 L 119.382812 133.621094 C 119.09375 133.621094 118.859375 133.390625 118.859375 133.101562 C 118.859375 132.8125 119.09375 132.582031 119.382812 132.582031 Z M 148.695312 117.125 C 148.695312 117.410156 148.460938 117.644531 148.175781 117.644531 L 107.160156 117.644531 C 106.871094 117.644531 106.636719 117.414062 106.636719 117.125 C 106.636719 116.835938 106.871094 116.601562 107.160156 116.601562 L 148.175781 116.601562 C 148.460938 116.605469 148.695312 116.835938 148.695312 117.125 Z M 161.046875 261.550781 C 161.050781 261.550781 161.054688 261.550781 161.0625 261.550781 C 161.066406 261.550781 161.070312 261.550781 161.074219 261.550781 L 161.0625 271.550781 C 161.0625 272.328125 160.433594 272.957031 159.65625 272.957031 L 111.808594 272.957031 C 111.035156 272.957031 110.402344 272.328125 110.402344 271.550781 L 110.40625 268.160156 L 110.410156 265.445312 C 110.410156 265.445312 110.441406 265.429688 110.496094 265.402344 C 111.050781 265.121094 111.507812 264.792969 111.914062 264.453125 C 112.355469 264.109375 112.847656 263.679688 113.332031 263.160156 C 113.386719 263.097656 113.445312 263.042969 113.503906 262.988281 C 113.949219 262.605469 114.414062 262.289062 114.992188 262.109375 C 115.019531 262.101562 115.046875 262.09375 115.074219 262.085938 C 115.132812 262.066406 115.191406 262.054688 115.253906 262.039062 C 116.320312 261.8125 117.414062 262.128906 118.148438 262.992188 C 119.351562 264.417969 121.867188 269.394531 125.863281 269.339844 C 129.855469 269.285156 129.691406 264.582031 132.429688 263.871094 C 135.164062 263.160156 136.148438 266.386719 139.542969 265.457031 C 142.933594 264.527344 143.972656 259.164062 146.710938 258.671875 C 149.445312 258.179688 151.144531 261.023438 154.425781 260.203125 C 157.554688 259.421875 158.796875 253.28125 161.082031 252.371094 L 161.074219 261.550781 C 161.070312 261.550781 161.066406 261.550781 161.0625 261.550781 C 161.054688 261.550781 161.050781 261.550781 161.046875 261.550781 Z M 285.097656 299.808594 L 198.203125 299.808594 L 198.203125 293.902344 L 285.097656 293.902344 Z M 285.097656 299.808594 " fill-opacity="1" fill-rule="nonzero"/></g><path fill="#f5c0a2" d="M 228.675781 117.070312 C 228.402344 117.070312 228.140625 117.019531 227.890625 116.945312 C 227.820312 116.269531 227.75 115.546875 227.671875 114.773438 C 227.574219 113.789062 227.496094 112.765625 227.453125 111.753906 C 227.824219 111.574219 228.238281 111.460938 228.675781 111.460938 C 230.222656 111.460938 231.480469 112.71875 231.480469 114.265625 C 231.480469 115.8125 230.222656 117.070312 228.675781 117.070312 Z M 236.238281 116.296875 C 237.785156 116.296875 239.042969 115.039062 239.042969 113.492188 C 239.042969 111.945312 237.785156 110.6875 236.238281 110.6875 C 234.691406 110.6875 233.433594 111.945312 233.433594 113.492188 C 233.433594 115.039062 234.691406 116.296875 236.238281 116.296875 Z M 231.703125 113.882812 C 231.820312 113.742188 231.964844 113.636719 232.136719 113.570312 C 232.53125 113.421875 232.957031 113.515625 233.191406 113.59375 C 233.191406 113.558594 233.1875 113.527344 233.1875 113.492188 C 233.1875 111.808594 234.554688 110.441406 236.238281 110.441406 C 237.847656 110.441406 239.167969 111.695312 239.277344 113.277344 L 243.183594 110.832031 C 241.949219 110.421875 240.558594 109.835938 239.601562 108.976562 C 237.699219 107.269531 236.464844 104.746094 236.464844 104.746094 C 236.464844 104.746094 234.558594 106.296875 232.324219 107.34375 C 230.5625 108.167969 228.585938 108.675781 227.429688 108.925781 C 227.40625 109.75 227.414062 110.609375 227.445312 111.480469 C 227.820312 111.3125 228.238281 111.214844 228.675781 111.214844 C 230.230469 111.214844 231.511719 112.382812 231.703125 113.882812 Z M 246.679688 111.222656 C 246.625 111.171875 246.5625 111.136719 246.507812 111.089844 C 245.703125 110.460938 244.585938 110.585938 243.589844 110.960938 C 243.441406 111.019531 243.292969 111.078125 243.152344 111.144531 L 241.539062 112.152344 L 239.285156 113.5625 C 239.25 115.210938 237.898438 116.542969 236.238281 116.542969 C 234.679688 116.542969 233.394531 115.371094 233.210938 113.863281 C 233.0625 113.804688 232.613281 113.652344 232.222656 113.800781 C 232.003906 113.886719 231.835938 114.054688 231.726562 114.300781 C 231.707031 115.964844 230.347656 117.316406 228.675781 117.316406 C 228.414062 117.316406 228.164062 117.273438 227.917969 117.210938 C 228.238281 120.125 228.617188 122.089844 229.925781 123.203125 C 230.714844 123.878906 231.703125 124.390625 232.882812 124.609375 L 232.863281 127.148438 C 232.863281 127.148438 232.867188 127.148438 232.871094 127.148438 C 234.449219 128.882812 236.675781 129.863281 239.007812 129.84375 C 241.332031 129.828125 243.550781 128.816406 245.097656 127.058594 C 245.148438 127.015625 245.191406 126.972656 245.226562 126.929688 L 245.085938 118.671875 L 245.03125 115.535156 C 246.382812 114.730469 248.1875 112.703125 246.679688 111.222656 Z M 271.429688 252.457031 C 271.636719 253.066406 271.847656 253.683594 272.058594 254.308594 L 289.078125 254.308594 C 288.25 251.667969 287.472656 249.230469 286.746094 246.984375 Z M 236.714844 202.949219 C 235.8125 201.070312 236.78125 198.601562 238.148438 194.679688 C 238.796875 192.816406 239.601562 190.867188 240.46875 189.1875 C 245.296875 190.386719 249.949219 189.828125 249.949219 189.828125 C 251.253906 193.792969 252.3125 195.90625 253.074219 197.035156 C 254.253906 196.785156 255.621094 196.808594 256.300781 197.796875 C 257.457031 199.476562 255.253906 201.027344 253.824219 201.476562 L 253.128906 205.152344 L 253.097656 209.335938 L 240.882812 209.378906 L 240.828125 212.28125 L 240.820312 212.285156 L 240.859375 206.796875 C 238.714844 205.933594 237.417969 204.414062 236.714844 202.949219 Z M 209.945312 247.449219 C 205.535156 249.65625 200.398438 252.1875 194.394531 255.09375 C 193.75 255.40625 193.085938 255.621094 192.417969 255.761719 C 191.402344 256.019531 190.339844 256.109375 189.277344 255.992188 C 186.847656 255.726562 184.636719 254.449219 183.179688 252.488281 C 177.421875 244.664062 169.824219 234.289062 164.289062 226.65625 C 163.410156 226.355469 162.304688 225.789062 160.855469 224.800781 C 157.089844 222.261719 153.214844 218.207031 151.839844 216.660156 C 151.136719 215.828125 152.222656 214.765625 152.929688 215.105469 C 153.300781 215.28125 153.660156 215.488281 154.015625 215.699219 L 152.121094 214.253906 C 152.070312 214.214844 152.066406 214.148438 152.09375 214.097656 C 152.003906 214.015625 151.917969 213.9375 151.835938 213.859375 C 151.378906 213.464844 151.144531 213.128906 151.136719 212.800781 C 151.15625 212.371094 151.511719 211.84375 151.914062 211.726562 C 152.300781 211.597656 152.832031 211.894531 153.164062 212.039062 C 153.15625 212.003906 153.15625 211.964844 153.179688 211.929688 C 153.195312 211.910156 153.21875 211.902344 153.242188 211.890625 C 153.027344 211.691406 152.742188 211.414062 152.367188 211.035156 C 151.539062 210.207031 152.578125 208.777344 153.890625 209.261719 C 154.070312 209.332031 154.28125 209.445312 154.511719 209.574219 C 154.546875 209.566406 154.582031 209.570312 154.613281 209.589844 L 159.921875 213.246094 C 158.816406 212.34375 156.238281 210.234375 155.433594 209.449219 C 154.4375 208.441406 155.542969 206.765625 156.917969 207.410156 C 157.644531 207.773438 163.136719 212.09375 166.191406 213.925781 C 166.191406 213.925781 163.765625 207.570312 165.652344 206.949219 C 167.28125 206.417969 170.582031 211.761719 172.476562 215.210938 C 172.898438 215.957031 173.234375 216.621094 173.46875 217.152344 C 176.660156 220.386719 184.234375 228.136719 191.859375 236.457031 C 194.863281 234.828125 197.789062 233.246094 200.621094 231.71875 Z M 120.246094 205.710938 C 119.332031 206.683594 118.09375 207.445312 116.519531 207.765625 L 116.542969 211.191406 C 116.542969 211.191406 116.539062 211.191406 116.535156 211.191406 C 114.8125 213.082031 112.378906 214.15625 109.828125 214.136719 C 107.28125 214.117188 104.859375 213.011719 103.167969 211.089844 C 103.058594 210.996094 102.980469 210.90625 102.933594 210.84375 L 102.878906 203.324219 L 102.953125 198.308594 C 101.523438 197.332031 99.890625 195.289062 101.4375 193.773438 C 102.46875 192.757812 104.097656 193.121094 105.382812 193.726562 L 105.585938 193.386719 C 106.148438 182.898438 116.496094 188.882812 120.691406 187.140625 C 121.34375 189.703125 121.632812 193.132812 121.667969 196.277344 C 121.71875 200.984375 121.863281 203.988281 120.246094 205.710938 Z M 120.246094 205.710938 " fill-opacity="1" fill-rule="nonzero"/><path fill="#ffb935" d="M 145.425781 226.628906 C 146.152344 228.621094 146.898438 230.945312 147.621094 233.671875 L 76.203125 233.671875 C 76.144531 228.644531 76.371094 224.699219 78.167969 222.273438 C 79.667969 220.28125 81.789062 218.914062 84.109375 218.261719 L 102.875 210.761719 C 102.875 210.761719 102.976562 210.925781 103.167969 211.089844 C 104.859375 213.011719 107.28125 214.117188 109.824219 214.136719 C 112.375 214.15625 114.808594 213.082031 116.535156 211.1875 C 116.539062 211.1875 116.546875 211.1875 116.546875 211.1875 L 138.441406 219.359375 L 138.4375 219.398438 C 141.578125 220.679688 144.21875 223.394531 145.425781 226.628906 Z M 289.050781 246.160156 C 283.003906 230.429688 280.828125 226.488281 276.644531 221.035156 C 275.515625 219.542969 274.039062 218.492188 272.402344 217.890625 L 272.398438 217.816406 L 253.273438 212.289062 L 253.179688 209.335938 L 240.882812 209.378906 C 240.882812 209.378906 240.828125 212.277344 240.828125 212.285156 C 240.8125 212.929688 232.007812 215.292969 231.242188 215.546875 C 225.824219 217.34375 220.378906 219.050781 215.28125 221.617188 C 209.976562 224.289062 204.648438 226.910156 199.296875 229.492188 L 211.980469 250.882812 C 211.980469 250.882812 216.726562 249.140625 224.523438 245.328125 L 224.628906 254.308594 L 272.058594 254.308594 C 271.847656 253.683594 271.636719 253.070312 271.429688 252.457031 L 286.746094 246.988281 Z M 265.773438 136.453125 C 264.984375 135.398438 263.996094 134.542969 262.898438 133.882812 C 262.175781 133.453125 261.410156 133.105469 260.609375 132.855469 L 245.363281 126.757812 C 245.363281 126.757812 245.3125 126.835938 245.226562 126.929688 C 245.191406 126.972656 245.148438 127.015625 245.09375 127.058594 C 243.546875 128.816406 241.332031 129.828125 239.007812 129.84375 C 236.671875 129.863281 234.449219 128.882812 232.871094 127.148438 C 232.867188 127.148438 232.863281 127.148438 232.863281 127.148438 C 232.863281 127.148438 232.859375 127.148438 232.859375 127.148438 L 216.402344 133.425781 L 215.46875 133.78125 C 212.230469 134.773438 209.441406 137.449219 208.230469 140.691406 C 207.941406 141.4375 207.667969 142.300781 207.382812 143.164062 C 206.085938 147.199219 204.785156 152.457031 203.808594 159.421875 L 267.542969 159.421875 C 267.058594 148.824219 268.71875 140.425781 265.773438 136.453125 Z M 243.710938 110.644531 C 243.613281 110.484375 243.398438 110.4375 243.238281 110.539062 L 239.453125 112.90625 C 239.175781 111.375 237.824219 110.222656 236.238281 110.222656 C 234.496094 110.222656 233.066406 111.589844 232.972656 113.308594 C 232.699219 113.253906 232.375 113.242188 232.054688 113.363281 C 231.984375 113.390625 231.914062 113.425781 231.847656 113.46875 C 231.488281 112.035156 230.1875 110.996094 228.675781 110.996094 C 228.222656 110.996094 227.777344 111.089844 227.355469 111.277344 C 226.167969 111.804688 225.402344 112.976562 225.402344 114.265625 C 225.402344 115.753906 226.414062 117.050781 227.863281 117.425781 C 228.167969 117.5 228.425781 117.539062 228.675781 117.539062 C 230.445312 117.539062 231.898438 116.113281 231.945312 114.351562 C 232.03125 114.179688 232.148438 114.066406 232.300781 114.007812 C 232.546875 113.914062 232.839844 113.972656 233.011719 114.027344 C 233.273438 115.597656 234.636719 116.761719 236.238281 116.761719 C 237.960938 116.761719 239.398438 115.394531 239.503906 113.6875 L 243.585938 111.128906 L 243.652344 111.09375 L 243.664062 111.066406 C 243.773438 110.957031 243.796875 110.785156 243.710938 110.644531 Z M 228.675781 116.847656 C 228.453125 116.847656 228.222656 116.8125 227.953125 116.734375 C 226.859375 116.410156 226.09375 115.394531 226.09375 114.265625 C 226.09375 113.277344 226.652344 112.394531 227.550781 111.953125 C 227.917969 111.773438 228.296875 111.683594 228.675781 111.683594 C 230.101562 111.683594 231.261719 112.84375 231.261719 114.265625 C 231.261719 115.691406 230.101562 116.847656 228.675781 116.847656 Z M 236.238281 116.074219 C 234.8125 116.074219 233.65625 114.917969 233.65625 113.492188 C 233.65625 112.066406 234.8125 110.910156 236.238281 110.910156 C 237.664062 110.910156 238.824219 112.066406 238.824219 113.492188 C 238.824219 114.917969 237.664062 116.074219 236.238281 116.074219 Z M 236.238281 116.074219 " fill-opacity="1" fill-rule="nonzero"/><path fill="#ffb935" d="M 145.425781 226.628906 C 146.152344 228.621094 146.898438 230.945312 147.621094 233.671875 L 76.203125 233.671875 C 76.144531 228.644531 76.371094 224.699219 78.167969 222.273438 C 79.667969 220.28125 81.789062 218.914062 84.109375 218.261719 L 102.875 210.761719 C 102.875 210.761719 102.976562 210.925781 103.167969 211.089844 C 104.859375 213.011719 107.28125 214.117188 109.824219 214.136719 C 112.375 214.15625 114.808594 213.082031 116.535156 211.1875 C 116.539062 211.1875 116.546875 211.1875 116.546875 211.1875 L 138.441406 219.359375 L 138.4375 219.398438 C 141.578125 220.679688 144.21875 223.394531 145.425781 226.628906 Z M 145.425781 226.628906 " fill-opacity="1" fill-rule="nonzero"/><path fill="#ffb935" d="M 94.609375 82.519531 C 89.027344 82.519531 84.503906 87.042969 84.503906 92.621094 C 84.503906 98.203125 89.027344 102.722656 94.609375 102.722656 C 100.1875 102.722656 104.710938 98.203125 104.710938 92.621094 C 104.710938 87.042969 100.1875 82.519531 94.609375 82.519531 Z M 94.609375 101.136719 C 89.902344 101.136719 86.089844 97.324219 86.089844 92.625 C 86.089844 87.921875 89.902344 84.109375 94.609375 84.109375 C 99.3125 84.109375 103.125 87.921875 103.125 92.625 C 103.125 97.324219 99.3125 101.136719 94.609375 101.136719 Z M 94.609375 101.136719 " fill-opacity="1" fill-rule="nonzero"/><path fill="#ffb935" d="M 97.496094 93.710938 L 97.496094 92.007812 C 97.496094 90.695312 96.621094 89.585938 95.417969 89.238281 L 95.417969 88.554688 C 95.417969 88.113281 95.078125 87.738281 94.636719 87.722656 C 94.175781 87.707031 93.796875 88.078125 93.796875 88.535156 L 93.796875 89.238281 C 92.59375 89.589844 91.71875 90.695312 91.71875 92.011719 L 91.71875 93.710938 L 90.550781 95.257812 C 90.414062 95.4375 90.542969 95.691406 90.765625 95.691406 L 98.449219 95.691406 C 98.671875 95.691406 98.800781 95.4375 98.664062 95.257812 Z M 97.496094 93.710938 " fill-opacity="1" fill-rule="nonzero"/><path fill="#ffb935" d="M 95.949219 96.183594 C 95.949219 96.921875 95.347656 97.523438 94.609375 97.523438 C 93.867188 97.523438 93.265625 96.921875 93.265625 96.183594 C 93.265625 96.175781 93.265625 96.171875 93.265625 96.164062 L 95.949219 96.164062 C 95.949219 96.171875 95.949219 96.175781 95.949219 96.183594 Z M 95.949219 96.183594 " fill-opacity="1" fill-rule="nonzero"/><g clip-path="url(#id4)"><path fill="#ffb935" d="M 306.472656 265.097656 C 301.660156 265.097656 297.753906 269 297.753906 273.816406 C 297.753906 278.628906 301.65625 282.53125 306.472656 282.53125 C 311.289062 282.53125 315.195312 278.628906 315.195312 273.816406 C 315.195312 269 311.289062 265.097656 306.472656 265.097656 Z M 306.472656 280.964844 C 302.523438 280.964844 299.324219 277.765625 299.324219 273.816406 C 299.324219 269.867188 302.527344 266.667969 306.472656 266.667969 C 310.421875 266.667969 313.625 269.871094 313.625 273.816406 C 313.625 277.765625 310.421875 280.964844 306.472656 280.964844 Z M 306.472656 280.964844 " fill-opacity="1" fill-rule="nonzero"/></g><path fill="#ffb935" d="M 305.355469 276.71875 L 302.675781 274.136719 C 302.394531 273.863281 302.386719 273.414062 302.660156 273.132812 C 302.933594 272.847656 303.382812 272.839844 303.664062 273.113281 L 305.371094 274.757812 L 309.289062 271.105469 C 309.578125 270.835938 310.027344 270.851562 310.296875 271.140625 C 310.566406 271.425781 310.546875 271.878906 310.261719 272.144531 Z M 305.355469 276.71875 " fill-opacity="1" fill-rule="nonzero"/><g clip-path="url(#id5)"><path fill="#293237" d="M 82.847656 242.136719 L 73.039062 242.136719 L 71.046875 239.347656 L 69.433594 242.136719 C 67.6875 242.136719 66.269531 243.554688 66.269531 245.300781 L 66.269531 250.746094 C 66.269531 252.492188 67.6875 253.910156 69.433594 253.910156 L 82.847656 253.910156 C 84.59375 253.910156 86.011719 252.492188 86.011719 250.746094 L 86.011719 245.300781 C 86.011719 243.554688 84.59375 242.136719 82.847656 242.136719 Z M 72.230469 249.523438 C 71.507812 249.523438 70.921875 248.9375 70.921875 248.214844 C 70.921875 247.492188 71.507812 246.910156 72.230469 246.910156 C 72.953125 246.910156 73.539062 247.492188 73.539062 248.214844 C 73.539062 248.9375 72.953125 249.523438 72.230469 249.523438 Z M 76.140625 249.523438 C 75.417969 249.523438 74.832031 248.9375 74.832031 248.214844 C 74.832031 247.492188 75.417969 246.910156 76.140625 246.910156 C 76.863281 246.910156 77.449219 247.492188 77.449219 248.214844 C 77.449219 248.9375 76.863281 249.523438 76.140625 249.523438 Z M 80.050781 249.523438 C 79.328125 249.523438 78.742188 248.9375 78.742188 248.214844 C 78.742188 247.492188 79.328125 246.910156 80.050781 246.910156 C 80.773438 246.910156 81.359375 247.492188 81.359375 248.214844 C 81.359375 248.9375 80.773438 249.523438 80.050781 249.523438 Z M 232.257812 86.601562 L 242.066406 86.601562 L 244.058594 89.390625 L 245.671875 86.601562 C 247.417969 86.601562 248.835938 85.183594 248.835938 83.4375 L 248.835938 77.992188 C 248.835938 76.246094 247.417969 74.828125 245.671875 74.828125 L 232.257812 74.828125 C 230.511719 74.828125 229.09375 76.246094 229.09375 77.992188 L 229.09375 83.4375 C 229.09375 85.183594 230.511719 86.601562 232.257812 86.601562 Z M 242.875 79.214844 C 243.597656 79.214844 244.183594 79.800781 244.183594 80.523438 C 244.183594 81.246094 243.597656 81.832031 242.875 81.832031 C 242.152344 81.832031 241.566406 81.246094 241.566406 80.523438 C 241.566406 79.800781 242.152344 79.214844 242.875 79.214844 Z M 238.964844 79.214844 C 239.6875 79.214844 240.273438 79.800781 240.273438 80.523438 C 240.273438 81.246094 239.6875 81.832031 238.964844 81.832031 C 238.242188 81.832031 237.65625 81.246094 237.65625 80.523438 C 237.65625 79.800781 238.242188 79.214844 238.964844 79.214844 Z M 235.054688 79.214844 C 235.777344 79.214844 236.363281 79.800781 236.363281 80.523438 C 236.363281 81.246094 235.777344 81.832031 235.054688 81.832031 C 234.332031 81.832031 233.746094 81.246094 233.746094 80.523438 C 233.746094 79.800781 234.332031 79.214844 235.054688 79.214844 Z M 119.941406 212.457031 L 120.5 212.664062 C 118.320312 216.152344 114.457031 218.484375 110.046875 218.484375 C 105.441406 218.484375 101.421875 215.941406 99.304688 212.1875 L 99.855469 211.96875 C 101.882812 215.503906 105.6875 217.894531 110.046875 217.894531 C 114.203125 217.894531 117.851562 215.722656 119.941406 212.457031 Z M 257.300781 209.875 C 254.148438 208.457031 252.574219 204.988281 253.425781 201.753906 C 254.394531 201.179688 256.792969 199.480469 256.59375 198.472656 C 256.574219 198.371094 256.539062 198.265625 256.496094 198.160156 C 256.492188 198.144531 256.484375 198.132812 256.480469 198.117188 C 256.433594 198.011719 256.375 197.902344 256.300781 197.796875 C 256.292969 197.785156 256.28125 197.777344 256.273438 197.765625 C 255.585938 196.8125 254.238281 196.785156 253.074219 197.035156 C 252.3125 195.90625 251.253906 193.792969 249.949219 189.828125 C 249.949219 189.828125 245.296875 190.386719 240.46875 189.1875 C 240.46875 189.1875 244.539062 182.742188 251.761719 184.875 C 256.574219 186.292969 259.296875 189.8125 258.753906 193.773438 L 264.539062 196.378906 C 268.050781 197.957031 269.613281 202.082031 268.035156 205.59375 C 266.453125 209.101562 260.808594 211.453125 257.300781 209.875 Z M 227.507812 111.925781 L 228 116.765625 C 228 116.765625 226.070312 116.355469 226.070312 114.507812 C 226.070312 112.539062 227.507812 111.925781 227.507812 111.925781 Z M 281.476562 248.9375 L 269 253.367188 C 268.964844 253.378906 268.933594 253.386719 268.898438 253.386719 C 268.855469 253.386719 268.8125 253.375 268.773438 253.355469 C 268.703125 253.324219 268.648438 253.261719 268.621094 253.1875 L 262.382812 234.96875 C 262.332031 234.816406 262.414062 234.648438 262.566406 234.597656 C 262.71875 234.542969 262.886719 234.625 262.941406 234.777344 L 269.082031 252.714844 L 281.277344 248.382812 C 281.429688 248.328125 281.597656 248.410156 281.652344 248.5625 C 281.707031 248.714844 281.628906 248.882812 281.476562 248.9375 Z M 122.207031 185.523438 C 120.214844 191.335938 106.242188 181.152344 105.585938 193.386719 L 105.382812 193.726562 C 104.097656 193.121094 102.46875 192.757812 101.433594 193.773438 C 99.890625 195.285156 101.523438 197.332031 102.953125 198.308594 L 102.871094 203.863281 C 93.804688 201.488281 96.613281 185.203125 96.613281 185.203125 C 96.988281 179.949219 100.03125 177.632812 105.332031 177.8125 C 105.332031 177.8125 117.34375 177.78125 120.007812 177.835938 C 123.804688 177.914062 123.691406 181.195312 122.207031 185.523438 Z M 152.847656 137.207031 L 134.929688 137.207031 C 133.015625 137.207031 131.464844 138.757812 131.464844 140.671875 L 131.464844 150.144531 C 131.464844 152.054688 133.015625 153.609375 134.929688 153.609375 L 148.898438 153.609375 L 151.082031 156.664062 L 152.847656 153.609375 C 154.761719 153.609375 156.3125 152.054688 156.3125 150.144531 L 156.3125 140.671875 C 156.316406 138.761719 154.761719 137.207031 152.847656 137.207031 Z M 148.574219 148.191406 C 148.273438 148.5625 147.875 149.050781 147.875 149.050781 C 147.867188 149.0625 147.859375 149.070312 147.851562 149.082031 C 147.292969 149.773438 146.285156 149.878906 145.597656 149.324219 C 143.894531 147.945312 140.859375 145.492188 139.15625 144.117188 C 138.476562 143.570312 138.367188 142.582031 138.894531 141.894531 C 138.894531 141.894531 138.902344 141.886719 138.90625 141.878906 C 138.910156 141.875 138.910156 141.867188 138.914062 141.863281 C 139.007812 141.746094 139.070312 141.671875 139.070312 141.671875 L 139.074219 141.671875 C 139.210938 141.503906 139.40625 141.261719 139.574219 141.050781 C 139.667969 140.933594 139.804688 140.863281 139.953125 140.847656 C 140.101562 140.832031 140.25 140.875 140.363281 140.96875 L 142.410156 142.621094 C 142.527344 142.714844 142.601562 142.851562 142.617188 143 C 142.632812 143.144531 142.589844 143.292969 142.492188 143.410156 C 142.324219 143.621094 142.128906 143.863281 141.992188 144.03125 L 145.089844 146.535156 C 145.230469 146.359375 145.460938 146.070312 145.65625 145.832031 C 145.742188 145.722656 145.871094 145.65625 146.007812 145.640625 C 146.148438 145.625 146.285156 145.667969 146.394531 145.753906 C 146.949219 146.203125 147.941406 147.003906 148.496094 147.453125 C 148.605469 147.539062 148.671875 147.667969 148.6875 147.804688 C 148.703125 147.945312 148.660156 148.082031 148.574219 148.191406 Z M 101.09375 227.816406 L 101.09375 233.671875 L 100.503906 233.671875 L 100.503906 230.300781 L 90.371094 230.300781 L 90.371094 233.671875 L 89.78125 233.671875 L 89.78125 227.816406 C 89.78125 227.65625 89.914062 227.523438 90.074219 227.523438 L 100.800781 227.523438 C 100.960938 227.523438 101.09375 227.65625 101.09375 227.816406 Z M 224.921875 235.039062 L 224.921875 254.308594 C 224.921875 254.46875 224.789062 254.601562 224.628906 254.601562 C 224.464844 254.601562 224.332031 254.46875 224.332031 254.308594 L 224.332031 235.039062 C 224.332031 234.875 224.464844 234.746094 224.628906 234.746094 C 224.789062 234.746094 224.921875 234.875 224.921875 235.039062 Z M 243.183594 110.832031 C 241.949219 110.421875 240.558594 109.835938 239.601562 108.976562 C 237.699219 107.269531 236.46875 104.746094 236.46875 104.746094 C 236.46875 104.746094 234.558594 106.300781 232.324219 107.34375 C 230.5625 108.167969 228.585938 108.675781 227.429688 108.925781 C 227.40625 109.75 227.410156 110.371094 227.441406 111.242188 C 226.070312 111.789062 225.441406 113.089844 225.441406 114.332031 C 225.441406 115.75 226.484375 117.175781 227.988281 117.449219 C 228.304688 120.363281 228.617188 122.089844 229.925781 123.203125 C 230.71875 123.878906 231.707031 124.390625 232.882812 124.609375 L 232.863281 127.148438 L 225 130.148438 L 225.199219 159.324219 C 225.203125 159.488281 225.070312 159.621094 224.910156 159.621094 C 224.90625 159.621094 224.90625 159.621094 224.90625 159.621094 C 224.746094 159.621094 224.613281 159.492188 224.613281 159.328125 L 224.414062 130.371094 L 224.132812 130.480469 L 216.402344 133.425781 C 215.875 130.660156 216.304688 126.335938 220.746094 120.652344 C 222.667969 118.1875 224.394531 114.210938 226.078125 110.03125 C 226.210938 109.703125 226.335938 109.40625 226.453125 109.121094 C 226.449219 109.121094 226.441406 109.121094 226.441406 109.121094 C 226.441406 109.121094 227.316406 105.382812 229 102.164062 C 232.941406 94.605469 247.589844 96.515625 251.140625 103.695312 C 251.5 104.421875 251.761719 105.128906 251.949219 105.824219 C 252.480469 107.234375 253.597656 110.246094 254.644531 113.332031 C 256.09375 117.597656 258.5 118.863281 260.414062 121.335938 C 263.289062 125.050781 263.277344 130.46875 262.898438 133.882812 C 262.175781 133.453125 261.410156 133.105469 260.609375 132.855469 L 255.066406 130.640625 L 255.066406 130.660156 L 254.492188 130.425781 L 254.492188 130.410156 L 253.554688 130.035156 L 252.339844 159.335938 C 252.335938 159.496094 252.203125 159.621094 252.046875 159.621094 C 252.042969 159.621094 252.039062 159.621094 252.035156 159.621094 C 251.871094 159.613281 251.746094 159.476562 251.753906 159.3125 L 252.972656 129.800781 L 245.363281 126.757812 C 245.363281 126.757812 245.316406 126.832031 245.226562 126.929688 L 245.085938 118.671875 L 245.03125 115.535156 C 246.382812 114.726562 248.1875 112.699219 246.679688 111.222656 C 246.625 111.167969 246.5625 111.132812 246.507812 111.085938 C 245.703125 110.457031 244.585938 110.582031 243.589844 110.960938 C 243.554688 110.949219 243.523438 110.9375 243.488281 110.929688 C 243.542969 110.890625 243.5625 110.816406 243.527344 110.761719 C 243.488281 110.703125 243.414062 110.6875 243.355469 110.722656 Z M 243.183594 110.832031 " fill-opacity="1" fill-rule="nonzero"/></g></svg>