<svg xmlns="http://www.w3.org/2000/svg" xmlns:xlink="http://www.w3.org/1999/xlink" width="500" zoomAndPan="magnify" viewBox="0 0 375 374.999991" height="500" preserveAspectRatio="xMidYMid meet" version="1.0"><defs><clipPath id="id1"><path d="M 34.085938 78 L 340.835938 78 L 340.835938 296.878906 L 34.085938 296.878906 Z M 34.085938 78 " clip-rule="nonzero"/></clipPath></defs><path fill="#ff3762" d="M 101.226562 230.308594 L 105.117188 229.578125 C 105.117188 229.578125 110.226562 239.183594 117.652344 237.84375 C 125.074219 236.503906 123.617188 230.667969 123.617188 230.667969 L 126.78125 231.519531 C 126.78125 231.519531 132.5 241.734375 131.890625 246.472656 L 128.847656 250.242188 L 109.617188 239.660156 L 104.996094 241.242188 C 104.996094 241.257812 105.484375 234.8125 101.226562 230.308594 Z M 137.488281 283.566406 L 85.164062 283.199219 C 85.164062 283.199219 88.085938 289.886719 85.40625 295.355469 L 134.933594 295.230469 C 134.933594 295.230469 141.382812 293.53125 141.257812 289.273438 C 141.132812 285.011719 137.488281 283.566406 137.488281 283.566406 Z M 128.242188 254.203125 C 126.050781 254.511719 123.859375 252.195312 123.859375 252.195312 L 103.109375 247.816406 L 102.261719 250.492188 C 102.261719 250.492188 109.984375 253.53125 110.71875 255.84375 C 111.449219 258.152344 110.476562 259.25 110.476562 259.25 C 110.476562 259.25 111.324219 260.589844 111.082031 262.527344 C 110.84375 264.46875 108.410156 264.351562 108.410156 264.351562 L 107.191406 268.488281 L 135.304688 267.882812 L 148.570312 248.550781 L 131.839844 252.378906 C 131.832031 252.378906 130.433594 253.902344 128.242188 254.203125 Z M 242.261719 230.308594 C 242.261719 230.308594 244.570312 232.5 248.226562 232.375 L 247.492188 235.046875 L 240.652344 235.441406 L 240.285156 243.832031 C 240.285156 243.832031 245.550781 243.796875 245.183594 249.515625 C 244.816406 255.234375 240.285156 254.6875 240.285156 254.6875 L 240.835938 265.808594 L 239.917969 275.019531 C 239.917969 275.019531 245.484375 274.46875 246.675781 280.855469 C 247.859375 287.238281 240.195312 288.332031 240.195312 288.332031 L 240.652344 295.808594 L 209.621094 295.625 L 209.804688 265.253906 L 209.65625 271.398438 C 209.65625 271.398438 201.015625 274.925781 194.929688 275.652344 C 188.847656 276.382812 183.617188 277.351562 178.5 272.003906 C 178.5 272.003906 183.367188 258.875 184.582031 252.792969 C 185.800781 246.714844 186.773438 239.296875 186.042969 236.980469 C 185.308594 234.675781 186.648438 233.453125 186.648438 233.453125 C 186.648438 233.453125 189.574219 234.792969 192.492188 233.9375 C 195.410156 233.082031 198.332031 232.113281 198.332031 232.113281 L 199.789062 240.261719 L 199.308594 247.558594 L 201.863281 246.097656 L 204.539062 255.824219 L 211.839844 253.632812 C 211.839844 253.632812 210.378906 246.824219 217.195312 245.125 C 224.011719 243.425781 225.59375 249.871094 225.59375 249.871094 L 232.894531 247.5625 L 230.460938 238.6875 C 230.460938 238.6875 235.453125 235.285156 235.210938 231.394531 Z M 232.136719 265.1875 C 231.972656 264.011719 230.957031 259.183594 225.320312 259.15625 C 230.976562 259.554688 231.972656 264.058594 232.136719 265.1875 Z M 324.28125 276.148438 C 320.390625 263.992188 307.246094 245.386719 296.171875 237.121094 C 286.242188 229.707031 273.171875 227.511719 270.855469 227.753906 C 268.546875 227.996094 267.816406 235.046875 267.816406 235.046875 L 270.949219 235.714844 L 270.492188 275.75 L 291.90625 275.78125 C 291.90625 275.78125 294.097656 280.039062 295.921875 285.753906 C 297.746094 291.46875 293.613281 295.605469 293.613281 295.605469 L 321.601562 295.121094 C 329.390625 291.714844 324.28125 276.148438 324.28125 276.148438 Z M 207.457031 161.375 C 207.457031 161.375 207.214844 160.285156 213.664062 165.871094 C 220.113281 171.464844 225.105469 174.503906 225.105469 174.503906 L 221.089844 180.097656 C 221.089844 180.097656 229.605469 181.4375 229.121094 189.097656 C 229.121094 189.097656 233.011719 187.398438 235.695312 185.085938 C 238.367188 182.777344 244.699219 177.792969 243.601562 172.4375 C 242.507812 167.085938 230.335938 151.160156 227.539062 147.390625 C 224.738281 143.617188 213.179688 131.460938 202.222656 131.703125 C 202.222656 131.703125 190.417969 147.996094 178.734375 145.691406 C 167.054688 143.382812 169.363281 138.273438 171.4375 135.359375 C 173.503906 132.4375 176.667969 129.398438 176.667969 129.398438 C 176.667969 129.398438 163.160156 126.601562 152.574219 130.128906 L 145.882812 133.898438 C 145.882812 133.898438 134.683594 131.953125 137.972656 121.863281 C 137.972656 121.863281 127.632812 124.417969 123.859375 133.777344 C 123.859375 133.777344 120.207031 151.648438 152.089844 148.976562 C 152.089844 148.976562 146.613281 161.742188 160.363281 167.21875 L 163.160156 177.550781 L 196.382812 176.457031 C 196.382812 176.453125 202.222656 164.046875 207.457031 161.375 Z M 207.457031 161.375 " fill-opacity="1" fill-rule="evenodd"/><path fill="#ffffff" d="M 109.984375 227.269531 C 111.808594 225.207031 111.933594 220.09375 111.933594 220.09375 C 111.933594 220.09375 106.335938 218.878906 107.550781 214.5 C 108.769531 210.121094 109.859375 208.421875 111.445312 210.246094 C 113.027344 212.070312 114.609375 216.207031 114.609375 216.207031 C 114.609375 216.207031 120.933594 215.234375 126.167969 213.285156 C 131.398438 211.335938 139.308594 207.207031 139.308594 207.207031 C 139.308594 207.207031 142.839844 229.703125 128.601562 230.792969 L 123.609375 230.667969 C 123.609375 230.667969 123.242188 236.261719 118.742188 237.597656 C 114.242188 238.929688 107.792969 234.316406 105.113281 229.570312 C 105.117188 229.585938 108.160156 229.34375 109.984375 227.269531 Z M 230.460938 238.703125 L 232.894531 247.578125 L 225.59375 249.882812 C 225.59375 249.882812 223.039062 244.289062 217.195312 245.136719 C 211.355469 245.988281 211.839844 253.648438 211.839844 253.648438 L 204.539062 255.835938 L 198.3125 232.144531 C 198.070312 232.324219 193.746094 235.355469 186.65625 233.464844 C 186.65625 233.464844 186.53125 234.074219 186.53125 231.402344 C 186.53125 228.839844 186.199219 228.285156 185.421875 227.386719 C 186.347656 229.753906 186.53125 230.027344 186.53125 231.402344 C 186.53125 232.984375 186.289062 234.074219 186.046875 235.65625 C 185.804688 237.238281 186.898438 239.183594 186.65625 242.097656 C 186.414062 245.015625 180.207031 265.445312 180.207031 265.445312 L 179.597656 268.117188 L 167.433594 295.351562 L 137.128906 295.472656 C 137.128906 295.472656 140.902344 292.070312 141.269531 289.273438 C 141.636719 286.476562 138.960938 283.4375 138.960938 283.4375 L 141.152344 282.585938 L 91.992188 282.828125 L 85.164062 283.199219 C 85.164062 283.199219 88.328125 289.769531 85.40625 295.355469 L 66.664062 295.230469 L 80.414062 271.886719 C 80.414062 271.886719 80.445312 273.128906 81.546875 274.402344 C 81.082031 273.738281 80.683594 272.914062 80.414062 271.886719 C 80.414062 271.886719 82.230469 268.417969 84.507812 264.328125 L 66.660156 295.238281 L 49.257812 295.113281 C 49.257812 295.113281 63.617188 267.027344 74.449219 248.300781 C 85.28125 229.578125 101.21875 230.308594 101.21875 230.308594 C 101.21875 230.308594 104.144531 234.6875 104.628906 236.628906 C 105.113281 238.570312 106.085938 240.765625 104.019531 242.222656 C 101.953125 243.679688 98.546875 249.152344 98.546875 249.152344 C 98.546875 249.152344 98.425781 249.183594 98.105469 249.289062 C 98.929688 249.40625 99.820312 249.714844 100.855469 250.25 C 104.386719 252.074219 109.859375 254.136719 110.710938 255.84375 C 111.5625 257.542969 110.46875 259.25 110.46875 259.25 C 110.46875 259.25 111.808594 260.589844 111.078125 262.527344 C 110.34375 264.46875 108.402344 264.351562 108.402344 264.351562 C 108.402344 264.351562 109.742188 266.542969 107.917969 267.515625 C 107.441406 267.769531 106.222656 267.941406 104.699219 268.058594 C 118.835938 268.050781 141.140625 268.363281 141.140625 268.363281 L 135.296875 267.882812 L 147.222656 251.347656 L 147.589844 248.675781 C 147.589844 248.675781 147.613281 248.515625 147.464844 248.035156 L 131.832031 252.386719 C 131.832031 252.386719 130.308594 254.085938 128.242188 254.210938 C 126.171875 254.332031 123.859375 252.203125 123.859375 252.203125 L 103.109375 247.824219 L 102.261719 250.496094 L 99.277344 249.28125 C 99.277344 249.28125 102.320312 241.5 109.617188 239.675781 L 128.300781 250.738281 L 140.898438 240.40625 C 140.898438 240.40625 141.238281 240.519531 141.765625 240.773438 C 141.242188 240.519531 140.898438 240.40625 140.898438 240.40625 L 132.257812 247.335938 C 132.382812 241.257812 125.929688 230.800781 125.929688 230.800781 C 127.515625 231.773438 131.648438 230.191406 131.648438 230.191406 C 131.648438 230.191406 137.488281 232.625 142.113281 234.9375 C 145.953125 236.851562 149.78125 241.695312 151.667969 245.519531 C 150.917969 243.457031 150.0625 241.609375 149.113281 240.65625 C 146.828125 238.375 144.730469 236.09375 144.730469 236.09375 L 147.589844 224.480469 C 147.589844 224.480469 147.222656 227.703125 150.628906 225.695312 C 154.039062 223.691406 149.472656 215.480469 149.472656 215.480469 C 149.472656 215.480469 152.753906 189.582031 163.164062 177.542969 L 196.382812 176.453125 L 201.859375 179.914062 C 201.859375 179.914062 198.757812 183.195312 198.574219 185.75 C 198.46875 187.234375 198.855469 188.039062 199.195312 188.457031 C 198.953125 188.007812 198.789062 187.046875 199.183594 184.960938 C 199.914062 181.074219 206.605469 177.785156 206.605469 177.785156 C 214.640625 176.203125 217.070312 184.710938 217.070312 184.710938 L 220.238281 180.824219 C 220.238281 180.824219 221.9375 179.734375 226.5625 182.40625 C 231.1875 185.078125 229.121094 189.089844 229.121094 189.089844 L 217.601562 198.5625 C 218.796875 200.515625 219.726562 203.117188 219.929688 205.441406 C 220.265625 209.292969 222.285156 218.5 222.617188 220.003906 L 224.980469 219.613281 L 227.539062 226.421875 C 227.539062 226.421875 233.253906 225.6875 234.46875 230.191406 C 235.695312 234.6875 230.460938 238.703125 230.460938 238.703125 Z M 88.957031 272.109375 C 88.578125 272.632812 88.289062 273.1875 88.15625 273.75 C 88.359375 273.253906 88.628906 272.683594 88.957031 272.109375 Z M 88.582031 257.28125 C 89.648438 255.53125 90.644531 253.988281 91.453125 252.902344 C 89.8125 254.824219 88.660156 257.117188 88.582031 257.28125 Z M 141 281.917969 C 140.773438 280.75 140.308594 278.265625 140.039062 276.03125 C 139.949219 275.273438 139.976562 274.417969 140.058594 273.554688 C 139.851562 275.089844 139.773438 276.652344 140.039062 277.730469 C 140.519531 279.625 140.839844 281.109375 141 281.917969 Z M 214.253906 208.945312 C 213.488281 208.042969 212.714844 207.371094 211.988281 207.089844 C 211.867188 207.042969 211.734375 207 211.605469 206.953125 C 212.511719 207.457031 213.410156 208.140625 214.253906 208.945312 Z M 201.902344 195.867188 C 201.71875 195.429688 201.601562 194.945312 201.523438 194.484375 C 201.5 194.964844 201.523438 195.449219 201.902344 195.867188 Z M 200.132812 206.722656 C 199.816406 206.914062 199.351562 207.148438 198.808594 207.429688 C 201.144531 206.605469 203.605469 206.070312 205.828125 205.933594 C 203.414062 205.828125 201.191406 206.097656 200.132812 206.722656 Z M 210.785156 196.808594 C 212.042969 195.984375 213.332031 195.339844 214.457031 195.601562 C 215.4375 195.828125 216.476562 196.835938 217.390625 198.234375 C 217.25 197.515625 216.691406 196.167969 214.457031 195.601562 C 212.839844 195.1875 211.867188 195.882812 210.785156 196.808594 Z M 206.601562 199.34375 C 206.71875 199.324219 206.84375 199.292969 206.972656 199.246094 C 206.84375 199.285156 206.722656 199.3125 206.601562 199.34375 Z M 199.671875 188.847656 C 199.671875 188.847656 198.582031 191.40625 200.589844 192.3125 C 201.007812 192.503906 201.242188 192.730469 201.386719 192.988281 C 201.378906 192.757812 201.378906 192.613281 201.378906 192.613281 C 199.183594 192.011719 199.671875 188.847656 199.671875 188.847656 Z M 169.003906 233.964844 L 169.652344 233.625 C 169.402344 232.832031 168.644531 230.53125 167.644531 228.929688 C 167.695312 229.023438 167.742188 229.121094 167.792969 229.226562 C 168.644531 231.042969 169.003906 233.964844 169.003906 233.964844 Z M 166.609375 241.929688 C 166.800781 242.25 167.027344 242.53125 167.289062 242.757812 C 167.058594 242.523438 166.824219 242.25 166.609375 241.929688 Z M 172.382812 231.296875 C 173.089844 230.527344 174.007812 229.609375 174.976562 228.929688 C 173.972656 229.546875 172.960938 230.347656 172.382812 231.296875 Z M 177.859375 227.519531 C 177.859375 227.519531 177.304688 227.722656 176.539062 228.085938 C 179.011719 227.148438 179.925781 226.789062 177.648438 226.304688 C 178.675781 226.605469 177.859375 227.519531 177.859375 227.519531 Z M 170.585938 224.964844 C 170.265625 224.394531 170.324219 223.78125 170.65625 223.199219 C 169.800781 223.984375 169.722656 224.578125 170.585938 224.964844 Z M 164.445312 228.453125 C 164.464844 228.425781 164.484375 228.386719 164.507812 228.363281 C 165.367188 227.421875 166.214844 227.324219 166.949219 227.984375 C 166.445312 227.449219 165.910156 227.152344 165.359375 227.328125 C 164.828125 227.5 164.554688 227.910156 164.445312 228.453125 Z M 141.785156 240.78125 C 141.859375 240.8125 141.9375 240.859375 142.015625 240.898438 C 141.929688 240.851562 141.859375 240.820312 141.785156 240.78125 Z M 156.230469 267.15625 L 163.527344 255.242188 L 168.886719 243.9375 C 168.886719 243.9375 168.585938 243.8125 168.164062 243.519531 L 156.960938 265.914062 C 156.960938 265.914062 155.136719 256.707031 154.128906 253.511719 C 153.898438 252.785156 153.632812 251.84375 153.335938 250.796875 C 154.59375 256.707031 156.230469 267.15625 156.230469 267.15625 Z M 174.535156 266.59375 C 172.921875 266.449219 171.070312 265.90625 169.128906 264.601562 C 168.828125 264.398438 168.550781 264.1875 168.285156 263.980469 C 168.871094 264.691406 169.480469 265.292969 170.101562 265.691406 C 171.3125 266.46875 172.941406 266.667969 174.535156 266.59375 Z M 190.359375 212.617188 C 189.03125 213.695312 187.761719 214.917969 186.710938 216.296875 C 182.601562 221.675781 183.359375 222.773438 183.359375 222.773438 C 183.359375 222.773438 181.621094 222.011719 179.5 221.453125 C 181.214844 222.070312 182.84375 223.09375 183.9375 224.460938 C 183.597656 223.546875 183.355469 222.773438 183.355469 222.773438 C 183.355469 222.773438 186.5 216.691406 190.359375 212.617188 Z M 205.566406 229.394531 C 204.332031 228.128906 202.957031 225.082031 202.957031 225.082031 C 202.957031 225.082031 204.1875 228.105469 205.566406 229.394531 Z M 208.066406 228.003906 C 208.066406 228.003906 207.824219 229.949219 206.480469 229.949219 C 208.1875 230.308594 208.066406 228.003906 208.066406 228.003906 Z M 211.957031 229.5 C 211.714844 229.570312 211.402344 229.605469 210.988281 229.578125 C 211.402344 229.6875 211.714844 229.628906 211.957031 229.5 Z M 219.902344 226.890625 C 219.753906 227.023438 219.589844 227.113281 219.386719 227.152344 C 219.582031 227.128906 219.753906 227.035156 219.902344 226.890625 Z M 220.605469 220.34375 C 220.605469 220.34375 220.433594 219.9375 220.144531 219.273438 C 220.472656 221.25 220.765625 223.472656 220.605469 225.054688 C 220.90625 223.054688 220.605469 220.34375 220.605469 220.34375 Z M 295.929688 285.753906 C 295.195312 291.957031 293.621094 295.605469 293.621094 295.605469 L 261.464844 295.636719 L 239.835938 295.453125 L 240.199219 288.34375 C 240.199219 288.34375 246.132812 287.613281 246.773438 282.050781 C 247.414062 276.488281 240.566406 274.664062 240.566406 274.664062 L 240.839844 265.824219 L 249.332031 265.273438 C 249.332031 265.273438 251.707031 260.4375 255.628906 260.261719 C 250.972656 260.261719 249.332031 265.273438 249.332031 265.273438 L 240.207031 265.457031 L 240.296875 254.691406 C 240.296875 254.691406 246.046875 254.328125 245.222656 248.214844 C 244.398438 242.105469 240.296875 243.839844 240.296875 243.839844 L 240.664062 235.445312 L 270.96875 235.722656 L 270.601562 265.632812 L 270.511719 275.632812 C 278.574219 274.925781 291.925781 275.78125 291.925781 275.78125 C 291.925781 275.78125 296.660156 279.554688 295.929688 285.753906 Z M 257.023438 260.449219 C 260.058594 261.457031 261.734375 265.90625 261.734375 265.90625 C 261.734375 265.90625 260.570312 261.429688 257.023438 260.449219 Z M 256.539062 281.050781 C 256.617188 280.828125 256.761719 280.578125 256.984375 280.285156 C 257.714844 279.324219 258.699219 278.496094 260.3125 277.789062 C 259.300781 278.078125 258.441406 278.378906 257.898438 278.679688 C 256.546875 279.421875 256.269531 280.3125 256.539062 281.050781 Z M 258.816406 289.160156 C 258.457031 290.011719 258.664062 290.519531 259.089844 291.023438 C 258.777344 290.449219 258.59375 289.792969 258.816406 289.160156 Z M 259.464844 288.148438 C 259.273438 288.375 259.101562 288.597656 259 288.792969 C 259.117188 288.605469 259.28125 288.382812 259.464844 288.148438 Z M 268.546875 281.867188 C 268.546875 281.867188 268.183594 280.167969 262.832031 281.382812 C 260.214844 281.976562 258.390625 282.21875 257.382812 282.078125 C 257.675781 282.277344 258.011719 282.429688 258.359375 282.507812 C 260 282.875 265.382812 280.867188 267.207031 281.140625 C 268.417969 281.324219 268.300781 281.742188 267.847656 282.0625 C 268.085938 281.984375 268.3125 281.917969 268.546875 281.867188 Z M 248.226562 232.382812 C 248.101562 232.746094 247.492188 235.054688 247.492188 235.054688 L 267.816406 235.054688 L 270.007812 228.488281 L 265.382812 228.121094 L 262.707031 222.285156 C 262.707031 222.285156 271.832031 216.691406 266.847656 213.285156 C 261.863281 209.878906 260.273438 214.5 260.273438 214.5 C 260.273438 214.5 261.855469 207.574219 258.691406 204.894531 C 255.527344 202.214844 253.824219 203.195312 250.535156 203.921875 C 247.25 204.652344 241.410156 205.984375 235.929688 205.984375 C 235.929688 205.984375 236.296875 222.035156 239.335938 226.414062 C 242.386719 230.800781 245.425781 232.382812 248.226562 232.382812 Z M 189.324219 276.640625 C 183 277.003906 178.128906 271.410156 178.128906 271.410156 L 167.421875 295.488281 L 210.621094 295.488281 L 209.648438 271.410156 C 209.648438 271.410156 195.65625 276.273438 189.324219 276.640625 Z M 137.972656 121.855469 L 154.644531 114.4375 C 154.644531 114.4375 154.039062 112.25 154.523438 109.453125 C 154.523438 109.453125 155.371094 107.019531 155.371094 105.4375 C 155.371094 103.855469 156.464844 103.617188 157.195312 102.15625 C 157.929688 100.699219 158.539062 99.96875 160.238281 99.238281 C 161.9375 98.503906 166.8125 95.707031 170.460938 95.589844 C 174.113281 95.464844 174.234375 97.539062 174.476562 99.476562 C 175.328125 95.707031 178.976562 90.480469 178.976562 90.480469 L 198.816406 107.253906 C 198.816406 107.253906 204.050781 108.710938 204.414062 108.835938 C 204.78125 108.960938 208.554688 110.050781 206.242188 114.308594 C 203.925781 118.5625 199.058594 116.863281 199.058594 116.863281 L 195.773438 118.6875 C 195.773438 118.6875 194.925781 121.359375 194.433594 123.066406 C 193.949219 124.765625 193.703125 128.167969 195.410156 129.992188 C 197.109375 131.816406 202.222656 131.691406 202.222656 131.691406 C 197.117188 139.957031 187.984375 145.070312 182.511719 145.429688 C 177.035156 145.789062 170.34375 144.945312 170.21875 140.441406 C 170.09375 135.945312 176.667969 129.378906 176.667969 129.378906 C 176.667969 129.378906 179.101562 130.960938 181.535156 129.378906 C 183.96875 127.796875 181.535156 123.542969 181.535156 123.542969 C 174.476562 121.59375 173.992188 114.425781 173.992188 114.425781 C 173.992188 114.425781 175.09375 113.652344 176.046875 112.679688 C 175.425781 113.117188 174.667969 113.652344 173.992188 114.425781 C 172.410156 116.25 171.679688 119.046875 169.734375 120.992188 C 167.785156 122.941406 167.667969 121.476562 164.746094 122.332031 C 161.820312 123.1875 145.882812 133.878906 145.882812 133.878906 C 134.566406 133.285156 137.972656 121.855469 137.972656 121.855469 Z M 165.476562 101.433594 C 166.820312 102.039062 168.035156 106.535156 168.035156 106.535156 L 169.375 109.941406 C 169.375 109.941406 169.375 109.941406 172.660156 108.851562 C 175.910156 107.765625 176.898438 109.894531 177.269531 111 C 177.382812 110.71875 177.441406 110.445312 177.40625 110.191406 C 177.167969 108.492188 173.148438 107.757812 173.148438 107.757812 C 173.148438 107.757812 173.582031 103.765625 174.347656 100.152344 C 173.699219 100.9375 171.078125 99.734375 169.742188 99.734375 C 168.152344 99.726562 164.136719 100.816406 165.476562 101.433594 Z M 165.476562 101.433594 " fill-opacity="1" fill-rule="evenodd"/><path fill="#000000" d="M 67.757812 260.464844 C 67.757812 260.464844 63.375 252.5625 65.082031 248.183594 C 66.78125 243.804688 68.488281 242.714844 68.488281 242.714844 C 68.488281 242.714844 63.382812 241.5 64.597656 236.394531 C 65.816406 231.289062 67.398438 229.707031 70.679688 229.464844 C 73.964844 229.226562 77.738281 231.046875 82.847656 229.832031 C 87.957031 228.617188 93.1875 226.910156 97.328125 220.957031 C 101.46875 215.003906 102.683594 206.246094 104.511719 202.71875 C 106.335938 199.1875 111.445312 188.980469 120.207031 187.398438 C 128.972656 185.816406 139.796875 187.640625 144.179688 193.964844 C 148.5625 200.285156 148.320312 210.136719 149.414062 213.664062 C 150.503906 217.191406 150.871094 218.410156 152.089844 221.082031 C 153.304688 223.753906 153.0625 225.703125 150.628906 225.703125 C 148.195312 225.703125 147.589844 224.488281 147.589844 224.488281 C 147.589844 224.488281 146.246094 229.472656 142.113281 229.839844 C 137.972656 230.207031 136.515625 227.648438 136.515625 227.648438 C 136.515625 227.648438 139.4375 221.570312 139.921875 217.558594 C 140.40625 213.546875 139.796875 208.078125 139.796875 208.078125 C 139.796875 208.078125 133.832031 211.722656 130.550781 212.214844 C 127.265625 212.695312 114.609375 216.226562 114.609375 216.226562 C 114.609375 216.226562 113.027344 209.175781 110.59375 209.90625 C 108.160156 210.636719 106.453125 214.527344 107.308594 216.226562 C 108.167969 217.925781 110.84375 219.871094 111.933594 220.113281 C 111.933594 220.113281 113.273438 225.707031 108.894531 228.140625 C 104.511719 230.570312 98.0625 230.9375 94.777344 231.546875 C 91.492188 232.152344 85.894531 233.734375 82.488281 237.621094 C 79.078125 241.5 67.757812 260.464844 67.757812 260.464844 Z M 230.21875 198.214844 C 230.21875 198.214844 232.285156 205.875 238.734375 205.875 C 245.183594 205.875 251.757812 203.078125 255.285156 203.683594 C 258.816406 204.292969 260.515625 205.140625 260.273438 209.398438 C 260.03125 213.652344 260.273438 214.5 260.273438 214.5 C 260.273438 214.5 264.414062 210.488281 266.847656 213.285156 C 269.28125 216.082031 266.480469 219.605469 263.199219 221.3125 L 263.804688 225.082031 C 263.804688 225.082031 275.730469 217.421875 273.296875 207.9375 C 270.863281 198.457031 266.480469 197.359375 266.480469 197.359375 L 268.429688 194.925781 L 264.78125 194.5625 L 266.480469 191.640625 L 260.640625 193.464844 C 260.640625 193.464844 252.609375 189.449219 245.675781 190.058594 C 238.742188 190.667969 238.859375 193.464844 235.816406 192.980469 C 232.777344 192.496094 232.167969 191.765625 232.167969 191.765625 L 231.800781 196.992188 Z M 160.003906 124.777344 L 159.878906 129.03125 C 159.878906 129.03125 169.976562 127.691406 176.667969 129.398438 C 183.359375 131.097656 182.632812 126.601562 182.269531 124.777344 C 181.902344 122.953125 182.269531 124.042969 179.46875 121.980469 C 176.667969 119.914062 173.992188 114.445312 173.992188 114.445312 C 173.992188 114.445312 173.019531 120.40625 169.734375 121.011719 C 166.453125 121.613281 161.460938 123.3125 160.003906 124.777344 Z M 165.476562 101.433594 C 165.476562 101.433594 167.910156 104.835938 168.035156 106.535156 C 168.160156 108.234375 169.375 109.941406 169.375 109.941406 L 172.660156 108.851562 C 172.660156 108.851562 173.875 100.09375 174.484375 99.484375 C 175.09375 98.878906 171.320312 99.484375 169.734375 99.726562 C 168.152344 99.96875 165.476562 101.433594 165.476562 101.433594 Z M 167.667969 95.597656 C 167.667969 95.597656 171.683594 94.746094 174.359375 98.269531 L 178.984375 90.484375 L 200.398438 108.476562 C 200.398438 108.476562 206.722656 108.476562 207.089844 111.640625 C 207.457031 114.804688 203.683594 117.960938 199.058594 116.867188 L 195.167969 119.667969 C 195.167969 119.667969 192.242188 128.90625 195.410156 130 C 198.574219 131.089844 208.914062 131.457031 215.246094 135.957031 C 221.578125 140.460938 236.910156 160.160156 236.910156 160.160156 C 236.910156 160.160156 242.992188 156.386719 241.902344 150.550781 C 240.808594 144.714844 237.402344 143.015625 237.402344 143.015625 C 237.402344 143.015625 242.507812 137.058594 240.324219 131.34375 C 238.132812 125.632812 232.78125 125.992188 228.402344 124.660156 C 224.019531 123.324219 217.691406 123.683594 215.867188 115.660156 C 214.042969 107.632812 214.167969 100.949219 213.917969 96.8125 C 213.675781 92.675781 210.269531 81.128906 194.8125 79.546875 C 179.355469 77.964844 169.859375 83.066406 167.667969 95.597656 Z M 207.457031 161.375 C 207.457031 161.375 200.765625 167.519531 199.300781 172.988281 C 199.300781 172.988281 213.539062 173.71875 219.015625 170.25 C 219.019531 170.25 210.320312 161.25 207.457031 161.375 Z M 207.457031 161.375 " fill-opacity="1" fill-rule="evenodd"/><g clip-path="url(#id1)"><path fill="#000000" d="M 339.816406 294.917969 L 323.5625 294.917969 C 324.316406 294.199219 324.949219 293.285156 325.421875 292.171875 C 327.214844 287.945312 326.808594 281.460938 324.269531 273.921875 C 321.410156 265.417969 316.082031 256.3125 308.851562 247.597656 C 290.445312 225.394531 270.066406 226.695312 265.789062 227.257812 L 265.023438 225.433594 C 265.695312 225.035156 275.214844 219.21875 274.191406 208.683594 C 273.460938 201.097656 269.84375 198.109375 267.652344 196.980469 L 269.253906 195.585938 C 269.554688 195.324219 269.667969 194.90625 269.535156 194.527344 C 269.40625 194.148438 269.058594 193.886719 268.660156 193.867188 L 266.382812 193.757812 L 267.300781 191.613281 C 267.457031 191.246094 267.378906 190.828125 267.097656 190.542969 C 266.820312 190.261719 266.394531 190.167969 266.03125 190.320312 L 260.640625 192.476562 C 259.464844 191.84375 255.957031 190.214844 249.421875 189.15625 C 243.367188 188.175781 240.992188 189.660156 239.074219 190.847656 C 238.367188 191.292969 237.753906 191.671875 237.019531 191.882812 C 234.75 192.527344 233.425781 190.6875 233.371094 190.613281 C 233.207031 190.371094 232.941406 190.214844 232.644531 190.1875 C 232.34375 190.164062 232.0625 190.273438 231.855469 190.484375 C 230.296875 192.097656 230.644531 195.019531 231.003906 196.671875 C 230.578125 196.621094 230.296875 196.488281 230.296875 196.488281 C 229.984375 196.332031 229.609375 196.351562 229.316406 196.546875 C 229.023438 196.746094 228.859375 197.078125 228.878906 197.429688 C 229.210938 202.664062 233.535156 205.292969 235.152344 206.097656 C 235.027344 209.3125 234.84375 223.316406 240.585938 229.871094 L 235.496094 230.605469 C 235.484375 230.558594 235.476562 230.519531 235.464844 230.472656 C 234.164062 225.984375 230.375 225.34375 227.929688 225.683594 L 225.75 219.148438 C 225.589844 218.65625 225.078125 218.382812 224.574219 218.507812 L 223.109375 218.886719 C 221.558594 208.65625 219.878906 202.742188 218.609375 199.421875 C 218.617188 199.417969 218.621094 199.417969 218.628906 199.410156 C 218.695312 199.359375 225.058594 194.117188 235.355469 186.496094 C 245.785156 178.773438 245.300781 173.96875 243.8125 169.335938 C 243.398438 168.054688 241.304688 164.664062 238.386719 160.480469 C 239.953125 159.460938 243.308594 156.722656 243.308594 151.96875 C 243.308594 147.371094 240.121094 144.011719 238.566406 142.636719 C 239.78125 141.101562 242.128906 137.566406 241.828125 133.488281 C 241.382812 127.515625 237.261719 124.835938 227.117188 123.933594 C 219.035156 123.214844 214.933594 116.167969 214.933594 103.007812 C 214.933594 94.484375 212.828125 88.296875 208.503906 84.085938 C 204.191406 79.890625 197.710938 77.867188 189.242188 78.101562 C 167.339844 78.667969 167.28125 94.941406 167.28125 95.105469 C 167.28125 95.105469 167.28125 95.113281 167.28125 95.113281 C 165.398438 95.601562 163.59375 96.53125 162.117188 97.296875 C 161.265625 97.734375 160.460938 98.152344 159.800781 98.414062 C 156.796875 99.597656 156.125 101.6875 155.988281 102.796875 C 154.339844 103.785156 154.179688 106.074219 154.410156 107.667969 C 152.875 109.535156 153.277344 112.445312 153.632812 113.929688 C 150.144531 115.1875 137.183594 120 129.738281 124.632812 C 126.089844 126.90625 123.675781 130.097656 122.929688 133.617188 C 122.273438 136.710938 122.976562 139.867188 124.9375 142.742188 C 128.816406 148.433594 135.644531 149.578125 142.449219 149.976562 C 143.808594 150.054688 145.167969 150.09375 146.507812 150.09375 C 148.203125 150.09375 149.871094 150.03125 151.511719 149.90625 C 150.78125 151.589844 150.277344 153.558594 150.277344 155.773438 C 150.277344 162.898438 157.289062 166.742188 159.152344 167.640625 L 161.859375 177.339844 C 161.050781 178.640625 158.21875 183.308594 155.398438 189.449219 C 153.390625 193.824219 151.121094 199.5625 149.753906 205.527344 C 148.996094 198.875 145.964844 190.183594 134.832031 186.863281 C 127.597656 184.707031 121.066406 185.242188 115.421875 188.457031 C 108.652344 192.3125 103.726562 199.722656 101.179688 209.898438 C 96.804688 227.382812 83.808594 229.734375 79.164062 229.167969 C 78.523438 229.085938 77.863281 228.996094 77.203125 228.898438 C 71.695312 228.121094 64.832031 227.148438 63.707031 234.902344 C 63.269531 237.917969 63.734375 240.21875 65.089844 241.738281 C 65.675781 242.398438 66.34375 242.820312 66.964844 243.078125 C 64.671875 245.609375 61.011719 251.613281 66.808594 260.496094 C 66.820312 260.507812 66.835938 260.523438 66.839844 260.535156 C 58.582031 275.449219 49.082031 293.53125 48.460938 294.722656 C 48.429688 294.789062 48.402344 294.859375 48.382812 294.929688 L 35.125 294.929688 C 34.582031 294.929688 34.144531 295.371094 34.144531 295.910156 C 34.144531 296.453125 34.582031 296.890625 35.125 296.890625 L 339.816406 296.890625 C 340.359375 296.890625 340.796875 296.453125 340.796875 295.910156 C 340.796875 295.371094 340.359375 294.917969 339.816406 294.917969 Z M 307.347656 248.851562 C 322.253906 266.828125 326.8125 283.867188 323.617188 291.410156 C 322.738281 293.472656 321.339844 294.589844 319.449219 294.734375 C 319.265625 294.75 319.097656 294.8125 318.957031 294.917969 L 295.097656 294.917969 C 299.015625 285.9375 295.511719 279.273438 293.5 276.496094 C 300.21875 276.730469 305.203125 277.109375 305.328125 277.121094 C 305.863281 277.167969 306.339844 276.761719 306.378906 276.21875 C 306.421875 275.679688 306.019531 275.207031 305.476562 275.167969 C 305.058594 275.136719 301.59375 274.875 296.667969 274.644531 C 294.183594 268.488281 289.519531 263.089844 289.316406 262.863281 C 288.960938 262.457031 288.339844 262.410156 287.929688 262.765625 C 287.523438 263.117188 287.476562 263.738281 287.832031 264.148438 C 287.875 264.203125 292.0625 269.042969 294.496094 274.5625 C 287.734375 274.300781 278.960938 274.160156 271.5 274.722656 L 271.5 265.964844 L 271.988281 235.542969 C 271.996094 235.285156 271.890625 235.027344 271.707031 234.839844 C 271.523438 234.648438 271.269531 234.542969 271.007812 234.542969 L 269.027344 234.542969 C 269.53125 232.144531 270.214844 229.644531 270.628906 229.160156 C 270.675781 229.101562 270.714844 229.035156 270.746094 228.96875 C 272.945312 229.023438 275.703125 229.285156 278.855469 230.015625 C 286.144531 231.714844 296.996094 236.367188 307.347656 248.851562 Z M 264.664062 294.917969 C 266.914062 293.003906 271.40625 289.753906 276.515625 289.265625 C 277.050781 289.214844 277.449219 288.734375 277.398438 288.195312 C 277.347656 287.652344 276.875 287.253906 276.324219 287.3125 C 269.40625 287.972656 263.734375 292.996094 262.144531 294.539062 C 261.929688 294.429688 261.816406 294.289062 261.753906 294.1875 C 261.484375 293.75 261.53125 293.089844 261.59375 292.703125 C 262.578125 291.722656 267.777344 286.816406 274.527344 285.441406 C 275.054688 285.332031 275.402344 284.816406 275.292969 284.285156 C 275.179688 283.757812 274.65625 283.410156 274.132812 283.519531 C 267.324219 284.898438 262.117188 289.460938 260.507812 291.015625 C 260.167969 290.800781 259.796875 290.472656 259.6875 290.082031 C 259.542969 289.535156 259.960938 288.878906 260.332031 288.433594 C 265.167969 282.800781 273.839844 281.90625 273.925781 281.898438 C 274.460938 281.847656 274.859375 281.371094 274.808594 280.828125 C 274.753906 280.285156 274.265625 279.886719 273.742188 279.945312 C 273.578125 279.957031 271.804688 280.140625 269.417969 280.828125 C 269.28125 280.574219 269.03125 280.378906 268.726562 280.320312 C 264.820312 279.640625 262.839844 280.351562 261.085938 280.976562 C 260.183594 281.296875 259.40625 281.578125 258.410156 281.65625 C 258.175781 281.671875 257.710938 281.664062 257.675781 281.480469 C 257.574219 280.90625 258.621094 279.082031 261.707031 278.175781 C 268.410156 276.253906 280.984375 276.121094 290.917969 276.398438 C 290.9375 276.417969 290.945312 276.441406 290.964844 276.460938 C 291.269531 276.761719 298.277344 283.820312 292.933594 294.90625 L 264.664062 294.90625 Z M 139.222656 294.917969 C 141.027344 293.65625 142.210938 291.574219 142.210938 289.214844 L 142.210938 289.207031 C 142.210938 287.246094 141.394531 285.476562 140.078125 284.207031 L 141.230469 284.207031 C 141.542969 284.207031 141.839844 284.054688 142.023438 283.800781 C 142.207031 283.546875 142.257812 283.21875 142.160156 282.925781 C 140.675781 278.324219 140.648438 273.449219 142.085938 268.835938 L 142.125 268.703125 C 142.21875 268.40625 142.164062 268.085938 141.984375 267.828125 C 141.800781 267.582031 141.503906 267.429688 141.191406 267.429688 L 136.613281 267.429688 L 149.976562 248.855469 C 150.210938 248.523438 150.222656 248.078125 149.996094 247.738281 C 149.765625 247.398438 149.359375 247.238281 148.960938 247.328125 L 148.339844 247.472656 C 147.351562 241.492188 141.394531 239.460938 141.132812 239.375 C 140.8125 239.269531 140.453125 239.335938 140.195312 239.558594 L 132.628906 245.9375 C 132.058594 240.101562 129.070312 234.242188 127.710938 231.839844 C 128.933594 231.8125 130.078125 231.648438 131.144531 231.355469 C 132.367188 231.648438 144.847656 234.804688 149.164062 243.21875 C 153.324219 251.3125 155.304688 267.03125 155.328125 267.1875 C 155.328125 267.195312 155.332031 267.203125 155.332031 267.214844 C 152.382812 272.363281 150.105469 276.167969 150.054688 276.261719 C 149.773438 276.722656 149.929688 277.324219 150.394531 277.605469 C 150.550781 277.699219 150.726562 277.742188 150.898438 277.742188 C 151.230469 277.742188 151.558594 277.574219 151.742188 277.265625 C 152.109375 276.652344 157.890625 266.992188 162.984375 257.535156 C 163.816406 259.960938 165.757812 264.207031 169.683594 266.324219 C 171.21875 267.15625 172.90625 267.566406 174.71875 267.566406 C 175.960938 267.566406 177.277344 267.359375 178.636719 266.964844 C 173.757812 279.449219 167.511719 292.859375 166.542969 294.925781 L 139.222656 294.925781 Z M 67.90625 294.917969 L 80.289062 273.757812 C 81.425781 275.644531 83.652344 277.828125 87.074219 277.917969 C 87.4375 279.363281 88.183594 280.699219 89.261719 281.777344 C 89.433594 281.945312 89.605469 282.097656 89.785156 282.246094 L 85.203125 282.246094 C 84.863281 282.246094 84.542969 282.421875 84.363281 282.710938 C 84.1875 283.003906 84.175781 283.363281 84.324219 283.664062 C 86.109375 287.175781 86.125 291.371094 84.363281 294.886719 L 84.351562 294.910156 L 67.90625 294.910156 Z M 112.53125 218.976562 C 112.496094 218.972656 109.496094 218.335938 108.507812 216.34375 C 107.96875 215.257812 108.109375 213.894531 108.917969 212.277344 C 109.519531 211.078125 110.042969 210.683594 110.3125 210.703125 C 111.285156 210.796875 112.832031 213.847656 113.609375 216.527344 C 113.746094 216.992188 114.191406 217.292969 114.675781 217.226562 C 115.144531 217.167969 122.621094 216.171875 129.960938 213.394531 C 130.070312 213.449219 130.183594 213.5 130.292969 213.566406 C 130.574219 213.730469 130.871094 213.945312 131.132812 214.15625 L 131.171875 214.1875 C 131.25 214.253906 131.355469 214.273438 131.453125 214.234375 C 131.609375 214.179688 131.6875 214.011719 131.636719 213.855469 C 131.511719 213.507812 131.320312 213.214844 131.097656 212.945312 C 133.886719 211.816406 136.59375 210.429688 138.835938 208.71875 C 138.972656 210.335938 139.097656 212.898438 138.875 215.683594 C 138.601562 215.453125 138.292969 215.253906 137.945312 215.128906 C 137.515625 214.972656 137.03125 214.914062 136.585938 214.984375 C 136.136719 215.042969 135.722656 215.226562 135.371094 215.472656 C 135.265625 215.546875 135.199219 215.671875 135.199219 215.808594 C 135.207031 216.03125 135.390625 216.207031 135.613281 216.199219 L 135.664062 216.199219 C 136.03125 216.195312 136.359375 216.140625 136.671875 216.160156 C 136.984375 216.152344 137.28125 216.207031 137.566406 216.277344 C 137.863281 216.355469 138.148438 216.480469 138.429688 216.644531 C 138.535156 216.710938 138.648438 216.78125 138.757812 216.859375 C 138.3125 220.722656 137.144531 224.828125 134.390625 227.355469 C 131.699219 229.828125 127.789062 230.464844 122.765625 229.265625 C 122.234375 229.132812 121.707031 229.460938 121.582031 229.988281 C 121.457031 230.511719 121.777344 231.046875 122.308594 231.171875 C 122.472656 231.210938 122.628906 231.246094 122.792969 231.277344 C 122.792969 231.296875 122.792969 231.316406 122.792969 231.335938 C 122.792969 231.355469 123.035156 233.269531 121.792969 234.804688 C 120.835938 235.984375 119.246094 236.675781 117.050781 236.851562 C 111.652344 237.296875 107.472656 232.296875 105.949219 230.167969 C 110.566406 228.695312 113.230469 226.066406 113.320312 219.925781 C 113.332031 219.480469 112.992188 219.070312 112.53125 218.976562 Z M 144.335938 235.085938 C 140.648438 232.480469 136.574219 230.925781 134.007812 230.113281 C 134.609375 229.742188 135.1875 229.316406 135.714844 228.828125 C 135.742188 228.808594 135.761719 228.78125 135.78125 228.761719 C 136.644531 230.179688 138.457031 231.617188 141.609375 231.085938 C 143.015625 230.851562 144.148438 230.238281 145.058594 229.464844 C 144.738281 231.179688 144.457031 233.125 144.335938 235.085938 Z M 103.941406 230.742188 C 105.152344 232.578125 109.777344 238.871094 116.363281 238.871094 C 116.644531 238.871094 116.925781 238.859375 117.210938 238.839844 C 119.980469 238.609375 122.039062 237.667969 123.339844 236.042969 C 124.636719 234.421875 124.785156 232.578125 124.773438 231.667969 C 124.976562 231.695312 125.1875 231.726562 125.390625 231.746094 C 125.390625 231.746094 125.390625 231.753906 125.394531 231.753906 C 125.449219 231.839844 130.628906 240.160156 130.773438 247.515625 L 128.226562 249.660156 L 109.917969 238.257812 C 109.671875 238.101562 109.371094 238.066406 109.089844 238.160156 C 107.949219 238.539062 106.902344 239.042969 105.957031 239.621094 C 105.792969 235.257812 104.097656 232.453125 102.882812 230.976562 C 103.242188 230.898438 103.601562 230.820312 103.941406 230.742188 Z M 109.277344 240.164062 L 127.789062 251.695312 C 127.945312 251.792969 128.128906 251.84375 128.304688 251.84375 C 128.535156 251.84375 128.757812 251.765625 128.941406 251.613281 L 141.019531 241.441406 C 142.328125 242.007812 145.828125 243.902344 146.4375 247.917969 L 130.792969 251.503906 C 130.582031 251.550781 130.390625 251.667969 130.253906 251.832031 C 129.390625 252.871094 128.535156 253.378906 127.683594 253.351562 C 126.277344 253.300781 125.191406 251.785156 125.1875 251.777344 C 125.046875 251.574219 124.832031 251.433594 124.597656 251.378906 L 103.226562 246.597656 C 102.75 246.492188 102.273438 246.746094 102.097656 247.203125 L 101.226562 249.476562 C 100.875 249.335938 100.519531 249.195312 100.167969 249.066406 C 101.195312 247.019531 104.125 242.09375 109.277344 240.164062 Z M 139.28125 278.964844 L 109.441406 278.964844 C 107.585938 278.964844 106.082031 277.476562 106.082031 275.652344 C 106.082031 273.820312 107.589844 272.339844 109.441406 272.339844 L 139.320312 272.339844 C 139.011719 274.542969 139 276.761719 139.28125 278.964844 Z M 139.667969 270.398438 C 139.609375 270.382812 139.542969 270.378906 139.484375 270.378906 L 109.441406 270.378906 C 106.503906 270.378906 104.117188 272.742188 104.117188 275.652344 C 104.117188 278.558594 106.503906 280.925781 109.441406 280.925781 L 139.359375 280.925781 C 139.445312 280.925781 139.53125 280.914062 139.609375 280.894531 C 139.699219 281.34375 139.804688 281.800781 139.921875 282.253906 L 135.3125 282.253906 C 135.292969 282.253906 135.265625 282.246094 135.246094 282.246094 L 94.671875 282.246094 C 93.15625 282.121094 91.742188 281.476562 90.65625 280.390625 C 89.441406 279.175781 88.765625 277.554688 88.765625 275.835938 C 88.765625 272.285156 91.65625 269.390625 95.214844 269.390625 L 101.003906 269.390625 C 99.761719 271.089844 98.203125 274.535156 99.996094 280.003906 C 100.132812 280.417969 100.515625 280.679688 100.933594 280.679688 C 101.03125 280.679688 101.136719 280.664062 101.238281 280.632812 C 101.757812 280.460938 102.039062 279.90625 101.867188 279.398438 C 99.683594 272.730469 103.214844 269.808594 103.378906 269.679688 C 103.484375 269.601562 103.5625 269.503906 103.621094 269.398438 L 139.910156 269.398438 C 139.8125 269.722656 139.746094 270.058594 139.667969 270.398438 Z M 140.25 289.207031 C 140.25 291.953125 138.019531 294.191406 135.277344 294.207031 L 86.707031 294.421875 C 86.871094 293.976562 87.011719 293.527344 87.136719 293.074219 L 116.460938 293.074219 C 118.527344 293.074219 120.203125 291.394531 120.203125 289.335938 C 120.203125 287.277344 118.519531 285.597656 116.460938 285.597656 L 87.144531 285.597656 C 87.019531 285.136719 86.875 284.671875 86.707031 284.214844 L 94.671875 284.214844 C 94.847656 284.226562 95.03125 284.238281 95.210938 284.238281 C 95.210938 284.238281 95.214844 284.238281 95.214844 284.238281 L 118.351562 284.226562 C 118.417969 284.285156 118.488281 284.335938 118.574219 284.375 C 118.769531 284.46875 123.378906 286.691406 121.253906 291.917969 C 121.050781 292.421875 121.292969 292.992188 121.796875 293.191406 C 121.914062 293.246094 122.046875 293.265625 122.164062 293.265625 C 122.550781 293.265625 122.917969 293.035156 123.074219 292.652344 C 124.644531 288.792969 123.347656 285.953125 121.652344 284.21875 L 135.324219 284.214844 C 138.046875 284.246094 140.25 286.476562 140.25 289.207031 Z M 87.511719 287.554688 L 116.453125 287.554688 C 117.433594 287.554688 118.234375 288.351562 118.234375 289.332031 C 118.234375 290.3125 117.433594 291.109375 116.453125 291.109375 L 87.511719 291.109375 C 87.65625 289.933594 87.65625 288.734375 87.511719 287.554688 Z M 134.21875 267.429688 L 124.917969 267.429688 L 132.433594 256.453125 C 132.742188 256.007812 132.621094 255.390625 132.179688 255.09375 C 131.734375 254.785156 131.117188 254.902344 130.816406 255.347656 L 122.589844 267.371094 C 122.574219 267.390625 122.570312 267.417969 122.554688 267.4375 L 108.511719 267.4375 C 108.589844 267.339844 108.671875 267.242188 108.734375 267.128906 C 109.1875 266.40625 109.324219 265.585938 109.152344 264.816406 C 109.957031 264.535156 110.941406 264.011719 111.476562 263.078125 C 112.128906 261.929688 111.691406 260.515625 111.246094 259.589844 C 111.363281 259.488281 111.484375 259.367188 111.585938 259.230469 C 112.089844 258.582031 112.28125 257.726562 112.148438 256.671875 C 111.882812 254.542969 107.625 252.183594 103.039062 250.230469 L 103.621094 248.699219 L 123.820312 253.222656 C 124.355469 253.863281 125.722656 255.242188 127.59375 255.320312 C 129.011719 255.367188 130.328125 254.71875 131.542969 253.347656 L 146.875 249.832031 L 134.269531 267.359375 C 134.246094 267.378906 134.230469 267.40625 134.21875 267.429688 Z M 98.492188 250.523438 C 105.929688 253.292969 110.078125 255.875 110.199219 256.910156 C 110.292969 257.652344 110.121094 257.96875 109.957031 258.105469 C 108.1875 257.164062 100.996094 253.4375 96.8125 252.601562 C 96.289062 252.496094 95.765625 252.84375 95.660156 253.375 C 95.554688 253.902344 95.894531 254.417969 96.433594 254.523438 C 100.441406 255.328125 107.832031 259.191406 109.199219 259.921875 C 109.632812 260.613281 110.03125 261.652344 109.777344 262.097656 C 109.4375 262.691406 108.441406 263.011719 107.890625 263.128906 C 105.746094 261.953125 99.109375 258.410156 95.144531 257.550781 C 94.609375 257.429688 94.089844 257.765625 93.972656 258.292969 C 93.855469 258.824219 94.1875 259.347656 94.71875 259.464844 C 98.503906 260.292969 105.28125 263.933594 107.125 264.953125 C 107.40625 265.476562 107.164062 265.945312 107.082031 266.089844 C 106.871094 266.429688 106.433594 266.75 105.839844 266.640625 C 105.222656 266.527344 104.523438 266.285156 103.769531 265.933594 C 103.105469 265.621094 102.382812 265.265625 101.660156 264.90625 C 98.609375 263.417969 95.453125 261.867188 93.632812 261.789062 C 93.089844 261.777344 92.632812 262.183594 92.605469 262.726562 C 92.578125 263.269531 93 263.726562 93.542969 263.75 C 94.953125 263.816406 98.191406 265.398438 100.789062 266.671875 C 101.324219 266.933594 101.847656 267.1875 102.363281 267.4375 L 95.210938 267.4375 C 90.570312 267.4375 86.796875 271.207031 86.796875 275.839844 C 86.796875 275.878906 86.804688 275.921875 86.804688 275.960938 C 83.167969 275.683594 81.703125 272.363281 81.46875 271.742188 L 90.847656 255.707031 C 90.886719 255.632812 94.632812 249.09375 98.492188 250.523438 Z M 169.613281 243.238281 C 169.507812 242.996094 169.308594 242.804688 169.070312 242.714844 C 168.957031 242.667969 166.367188 241.597656 166.261719 237.347656 C 166.15625 233.003906 165.957031 231.957031 165.59375 230.066406 C 165.53125 229.742188 165.464844 229.382812 165.394531 228.976562 C 165.351562 228.746094 165.378906 228.566406 165.476562 228.492188 C 165.574219 228.421875 165.792969 228.40625 166.066406 228.546875 C 167.019531 229.007812 168.054688 230.773438 168.113281 234.324219 C 168.121094 234.703125 168.347656 235.042969 168.695312 235.199219 C 169.042969 235.355469 169.449219 235.296875 169.742188 235.046875 C 170.035156 234.792969 170.519531 234.503906 170.9375 234.394531 C 171.199219 235.539062 171.863281 236.386719 172.207031 236.765625 C 171.886719 238.851562 172.921875 240.675781 173.816406 241.597656 C 173.875 243.84375 175.367188 245.414062 177.605469 245.582031 C 179.800781 245.777344 180.15625 244.210938 180.34375 243.359375 C 180.535156 242.523438 180.652344 242.019531 181.640625 241.746094 C 182.164062 241.601562 182.464844 241.058594 182.320312 240.539062 C 182.175781 240.015625 181.632812 239.714844 181.109375 239.859375 C 178.996094 240.445312 178.644531 242 178.433594 242.929688 C 178.382812 243.171875 178.296875 243.53125 178.226562 243.609375 C 178.226562 243.609375 178.113281 243.660156 177.769531 243.636719 C 176 243.5 175.785156 242.113281 175.773438 241.523438 C 175.738281 239.746094 177.335938 237.054688 181 236.621094 C 183.011719 236.386719 184.046875 236.503906 184.558594 237.027344 C 185.726562 238.230469 185.363281 242.539062 184.460938 248.636719 C 183.902344 252.394531 181.96875 258.269531 179.566406 264.59375 C 176.125 265.925781 173.125 265.933594 170.636719 264.601562 C 165.882812 262.046875 164.425781 255.398438 164.40625 255.328125 C 164.386719 255.234375 164.351562 255.15625 164.3125 255.078125 C 166.511719 250.910156 168.46875 246.941406 169.636719 243.996094 C 169.722656 243.746094 169.710938 243.472656 169.613281 243.238281 Z M 178.839844 225.414062 C 177.929688 224.65625 176.316406 224.421875 174.050781 224.710938 C 172.332031 224.929688 171.402344 224.492188 171.300781 224.113281 C 171.21875 223.839844 171.5625 223.25 172.5625 222.800781 C 174.394531 221.96875 179.050781 221.375 181.804688 223.148438 C 182.824219 223.800781 183.453125 224.710938 183.726562 225.886719 C 182.425781 225.597656 180.921875 225.65625 179.363281 226.035156 C 179.253906 225.839844 179.089844 225.625 178.839844 225.414062 Z M 218.355469 226.230469 C 218.230469 225.773438 216.003906 217.453125 214.042969 214.546875 C 213.742188 214.09375 213.128906 213.976562 212.683594 214.277344 C 212.230469 214.578125 212.113281 215.195312 212.414062 215.636719 C 214.128906 218.179688 216.242188 225.949219 216.4375 226.683594 C 216.425781 226.722656 216.410156 226.753906 216.40625 226.792969 C 216.292969 227.414062 216.078125 227.808594 215.765625 227.949219 C 215.261719 228.179688 214.429688 227.925781 213.839844 227.664062 C 213.835938 227.597656 213.828125 227.539062 213.808594 227.472656 C 213.714844 227.113281 211.472656 218.703125 209.496094 215.773438 C 209.195312 215.324219 208.582031 215.207031 208.136719 215.507812 C 207.6875 215.808594 207.566406 216.421875 207.867188 216.867188 C 209.636719 219.488281 211.824219 227.664062 211.90625 227.957031 C 211.65625 228.414062 211.441406 228.453125 211.363281 228.46875 C 210.714844 228.566406 209.617188 227.726562 209.066406 227.132812 C 208.988281 227.046875 208.894531 226.988281 208.796875 226.9375 C 208.125 224.539062 206.359375 218.625 204.769531 216.265625 C 204.46875 215.8125 203.851562 215.695312 203.40625 215.996094 C 202.957031 216.296875 202.839844 216.914062 203.140625 217.355469 C 204.722656 219.703125 206.644531 226.5 207.085938 228.113281 C 206.882812 228.425781 206.644531 228.675781 206.476562 228.695312 C 206.320312 228.714844 205.898438 228.488281 205.296875 227.546875 C 204.847656 226.839844 204.429688 226.121094 204.03125 225.421875 C 202.25 222.355469 200.570312 219.460938 197.179688 219.820312 C 194.644531 220.09375 193.976562 219.054688 193.925781 218.972656 C 193.683594 218.5 193.113281 218.304688 192.628906 218.53125 C 192.136719 218.761719 191.929688 219.351562 192.164062 219.839844 C 192.210938 219.9375 193.335938 222.210938 197.390625 221.773438 C 199.027344 221.597656 200.058594 222.695312 201.339844 224.753906 L 196.316406 226.113281 C 196.0625 226.179688 195.851562 226.347656 195.722656 226.578125 C 195.589844 226.808594 195.558594 227.074219 195.632812 227.324219 L 196.820312 231.585938 C 189.785156 234.625 187.152344 232.328125 187.082031 232.257812 C 187.054688 232.230469 187.023438 232.21875 186.992188 232.199219 C 187.324219 231.523438 187.742188 230.347656 187.441406 229.074219 C 187.21875 228.152344 186.671875 227.382812 185.800781 226.773438 C 185.707031 225.238281 185.21875 223.917969 184.359375 222.859375 C 184.824219 221.511719 188.621094 211.507812 200.066406 207.835938 C 211.121094 204.285156 214.050781 209.796875 216.632812 214.652344 C 216.871094 215.09375 217.097656 215.527344 217.328125 215.9375 C 219.945312 220.652344 219.503906 223.402344 219.152344 225.617188 C 219.121094 225.832031 219.039062 226.101562 218.878906 226.191406 C 218.773438 226.257812 218.5625 226.265625 218.355469 226.230469 Z M 174.386719 238.941406 C 173.96875 237.9375 173.824219 236.472656 175.269531 234.902344 C 177.996094 231.945312 182 231.054688 184.582031 232.839844 C 185.003906 233.125 185.238281 233.464844 185.308594 233.863281 C 185.375 234.265625 185.285156 234.695312 185.140625 235.066406 C 184.027344 234.472656 182.5625 234.464844 180.761719 234.683594 C 177.507812 235.054688 175.355469 236.871094 174.386719 238.941406 Z M 184.386719 228.191406 C 185.042969 228.558594 185.421875 228.988281 185.546875 229.519531 C 185.675781 230.054688 185.539062 230.609375 185.375 231.027344 C 182 228.964844 177.105469 230.007812 173.824219 233.578125 C 173.515625 233.910156 173.269531 234.242188 173.050781 234.578125 C 172.902344 234.269531 172.789062 233.902344 172.777344 233.503906 C 172.777344 233.453125 172.777344 233.40625 172.769531 233.355469 C 172.796875 232.511719 173.292969 231.667969 174.261719 230.84375 C 177.898438 227.742188 182.347656 227.054688 184.386719 228.191406 Z M 178.3125 273.078125 C 179.886719 274.816406 183.234375 277.429688 189.148438 277.429688 C 190.667969 277.429688 192.355469 277.261719 194.21875 276.855469 C 202.550781 275.050781 206.925781 273.300781 208.871094 272.371094 L 208.871094 294.917969 L 168.703125 294.917969 C 170.167969 291.789062 174.355469 282.703125 178.3125 273.078125 Z M 246.203125 248.734375 C 246.113281 246.890625 245.5 245.445312 244.378906 244.433594 C 243.390625 243.542969 242.234375 243.210938 241.417969 243.085938 L 241.417969 236.511719 L 270.019531 236.511719 L 269.5625 264.980469 L 262.15625 264.980469 C 261.660156 262.554688 259.863281 259.089844 255.539062 259.089844 C 251.253906 259.089844 249.1875 262.347656 248.507812 264.613281 L 241.28125 264.613281 L 241.179688 255.589844 C 242.050781 255.554688 243.242188 255.328125 244.269531 254.464844 C 245.648438 253.300781 246.296875 251.378906 246.203125 248.734375 Z M 239.65625 275.886719 C 239.867188 276.078125 240.140625 276.160156 240.421875 276.128906 C 240.441406 276.128906 242.613281 275.90625 244.191406 277.253906 C 245.261719 278.167969 245.859375 279.625 245.960938 281.585938 C 246.054688 283.324219 245.621094 284.683594 244.679688 285.613281 C 242.929688 287.351562 239.90625 287.1875 239.878906 287.1875 C 239.605469 287.175781 239.34375 287.265625 239.148438 287.449219 C 238.949219 287.632812 238.839844 287.894531 238.839844 288.160156 L 238.839844 294.910156 L 210.839844 294.910156 L 210.839844 266.070312 L 218.335938 266.070312 C 218.839844 266.070312 219.261719 265.679688 219.308594 265.175781 C 219.328125 264.972656 219.832031 260.28125 225.351562 260.175781 C 225.40625 260.175781 225.457031 260.175781 225.515625 260.175781 C 227.707031 260.175781 229.277344 261.039062 230.199219 262.746094 C 230.945312 264.128906 230.992188 265.585938 230.992188 265.601562 C 231.003906 266.136719 231.4375 266.5625 231.972656 266.5625 L 239.34375 266.5625 L 239.34375 275.15625 C 239.332031 275.4375 239.449219 275.703125 239.65625 275.886719 Z M 240.800781 289.132812 C 242.125 289.042969 244.414062 288.644531 246.054688 287.023438 C 247.414062 285.683594 248.042969 283.820312 247.925781 281.496094 C 247.792969 278.960938 246.957031 277.03125 245.445312 275.75 C 244.035156 274.5625 242.367188 274.242188 241.300781 274.175781 L 241.300781 266.566406 L 249.285156 266.566406 C 249.761719 266.566406 250.167969 266.226562 250.253906 265.757812 C 250.285156 265.566406 251.144531 261.046875 255.550781 261.046875 C 259.847656 261.046875 260.328125 265.835938 260.347656 266.039062 C 260.390625 266.546875 260.8125 266.941406 261.328125 266.941406 L 269.554688 266.941406 L 269.554688 274.886719 C 266.34375 275.195312 263.453125 275.652344 261.175781 276.304688 C 257.355469 277.421875 255.425781 280 255.761719 281.847656 C 255.925781 282.738281 256.664062 283.636719 258.238281 283.636719 C 258.351562 283.636719 258.460938 283.632812 258.582031 283.625 C 259.84375 283.527344 260.824219 283.175781 261.765625 282.835938 C 262.957031 282.410156 264.171875 281.972656 266.121094 282.023438 C 263.625 283.109375 260.949219 284.730469 258.855469 287.175781 C 257.867188 288.351562 257.515625 289.5 257.808594 290.59375 C 258.101562 291.691406 258.972656 292.390625 259.621094 292.773438 C 259.5625 293.363281 259.582031 294.171875 259.933594 294.925781 L 240.816406 294.925781 L 240.816406 289.132812 Z M 231.0625 198.644531 C 231.5 198.671875 232.003906 198.640625 232.542969 198.488281 C 232.796875 198.417969 233.011719 198.242188 233.136719 198.003906 C 233.261719 197.769531 233.285156 197.496094 233.203125 197.242188 C 232.933594 196.425781 232.4375 194.242188 232.800781 192.796875 C 233.867188 193.640625 235.542969 194.34375 237.578125 193.765625 C 238.570312 193.476562 239.363281 192.988281 240.128906 192.507812 C 241.933594 191.386719 243.796875 190.226562 249.121094 191.085938 C 256.75 192.3125 260.011719 194.359375 260.046875 194.378906 C 260.3125 194.546875 260.648438 194.585938 260.941406 194.464844 L 264.578125 193.011719 L 264.035156 194.273438 C 263.910156 194.566406 263.9375 194.90625 264.105469 195.175781 C 264.277344 195.449219 264.570312 195.621094 264.890625 195.632812 L 266.140625 195.699219 L 265.152344 196.554688 C 264.871094 196.796875 264.761719 197.183594 264.851562 197.542969 C 264.945312 197.902344 265.238281 198.175781 265.597656 198.253906 C 265.835938 198.304688 271.355469 199.601562 272.25 208.859375 C 273.074219 217.390625 265.734375 222.628906 264.265625 223.589844 L 263.65625 222.132812 C 265.210938 221.1875 268.457031 218.90625 268.902344 216.179688 C 269.097656 214.945312 268.699219 213.761719 267.738281 212.753906 C 266.535156 211.496094 265.199219 210.914062 263.765625 211.03125 C 262.78125 211.109375 261.894531 211.527344 261.171875 212.035156 C 261.328125 209.488281 261.085938 205.917969 258.894531 204.121094 C 256.230469 201.933594 252.851562 202.75 249.273438 203.605469 C 247.972656 203.921875 246.628906 204.238281 245.222656 204.460938 C 240.769531 205.15625 237.355469 204.703125 236.542969 204.578125 C 236.523438 204.574219 236.511719 204.558594 236.492188 204.554688 C 236.300781 204.476562 232.089844 202.738281 231.0625 198.644531 Z M 237.121094 206.632812 C 238.675781 206.808594 241.730469 206.984375 245.53125 206.398438 C 247.015625 206.167969 248.402344 205.835938 249.738281 205.507812 C 253.09375 204.699219 255.742188 204.0625 257.652344 205.632812 C 259.835938 207.429688 259.28125 212.65625 258.882812 214.519531 C 258.78125 214.976562 259.023438 215.441406 259.457031 215.625 C 259.886719 215.808594 260.390625 215.664062 260.652344 215.277344 C 261.066406 214.683594 262.453125 213.109375 263.9375 212.992188 C 264.753906 212.925781 265.53125 213.292969 266.316406 214.113281 C 266.859375 214.683594 267.070312 215.246094 266.964844 215.875 C 266.632812 217.945312 263.238281 220.171875 261.960938 220.851562 C 261.515625 221.089844 261.328125 221.628906 261.515625 222.09375 L 264.277344 228.722656 C 264.460938 229.160156 264.925781 229.402344 265.390625 229.304688 C 265.414062 229.296875 266.566406 229.066406 268.542969 228.984375 C 267.894531 230.550781 267.324219 233.085938 267.03125 234.539062 L 248.371094 234.539062 L 249.292969 232.746094 C 249.457031 232.441406 249.4375 232.066406 249.246094 231.773438 C 249.058594 231.480469 248.714844 231.296875 248.375 231.324219 C 246.023438 231.414062 244.078125 230.648438 242.445312 228.984375 C 237.113281 223.546875 237.023438 210.457031 237.121094 206.632812 Z M 242.484375 231.578125 C 243.785156 232.492188 245.238281 233.046875 246.839844 233.230469 L 246.160156 234.542969 L 240.4375 234.542969 C 239.894531 234.542969 239.453125 234.984375 239.453125 235.523438 L 239.453125 243.996094 C 239.453125 244.261719 239.566406 244.519531 239.761719 244.699219 C 239.953125 244.882812 240.226562 244.980469 240.488281 244.976562 C 240.855469 244.960938 244.058594 244.9375 244.25 248.816406 C 244.320312 250.8125 243.910156 252.203125 243.019531 252.953125 C 241.941406 253.875 240.402344 253.589844 240.398438 253.589844 C 240.109375 253.53125 239.800781 253.601562 239.574219 253.792969 C 239.34375 253.980469 239.210938 254.261719 239.210938 254.5625 L 239.324219 264.613281 L 232.835938 264.613281 C 232.496094 262.621094 231.113281 258.230469 225.515625 258.230469 C 225.449219 258.230469 225.378906 258.230469 225.3125 258.230469 C 220.160156 258.328125 218.058594 261.738281 217.503906 264.117188 L 209.863281 264.117188 C 209.320312 264.117188 208.882812 264.554688 208.882812 265.097656 L 208.882812 270.164062 C 208.007812 270.664062 203.957031 272.742188 193.8125 274.941406 C 184.230469 277.011719 180.148438 272.410156 179.160156 271.011719 C 182.574219 262.5625 185.644531 253.992188 186.394531 248.921875 C 187.449219 241.839844 187.535156 238.441406 186.597656 236.570312 C 186.851562 236.125 187.171875 235.40625 187.265625 234.570312 C 188.015625 234.863281 189.0625 235.121094 190.449219 235.121094 C 192.195312 235.121094 194.484375 234.707031 197.378906 233.484375 L 198.601562 237.871094 C 198.585938 237.917969 198.574219 237.960938 198.574219 238.007812 C 198.535156 238.425781 197.585938 248.347656 198.082031 254.621094 C 198.121094 255.136719 198.554688 255.523438 199.058594 255.523438 C 199.085938 255.523438 199.109375 255.523438 199.136719 255.523438 C 199.679688 255.484375 200.078125 255.007812 200.039062 254.472656 C 199.894531 252.628906 199.882812 250.433594 199.933594 248.25 L 201.28125 247.453125 L 203.644531 255.914062 C 203.769531 256.347656 204.160156 256.632812 204.585938 256.632812 C 204.664062 256.632812 204.75 256.628906 204.828125 256.601562 L 212.074219 254.757812 C 212.597656 254.628906 212.910156 254.097656 212.789062 253.574219 C 212.730469 253.328125 211.394531 247.511719 216.855469 246.171875 C 222.429688 244.804688 224.585938 250.019531 224.671875 250.242188 C 224.855469 250.707031 225.351562 250.957031 225.835938 250.832031 L 233.207031 248.871094 C 233.464844 248.796875 233.6875 248.628906 233.816406 248.398438 C 233.945312 248.164062 233.972656 247.890625 233.894531 247.636719 L 231.214844 239.027344 C 233.242188 238.027344 235.773438 235.859375 235.792969 232.546875 Z M 200.125 243.375 L 200.71875 245.496094 L 199.992188 245.921875 C 200.03125 245.035156 200.078125 244.179688 200.125 243.375 Z M 226.367188 227.128906 C 226.53125 227.625 227.058594 227.898438 227.5625 227.761719 C 228.046875 227.628906 232.324219 226.589844 233.601562 231.015625 C 234.921875 235.578125 229.878906 237.472656 229.667969 237.550781 C 229.171875 237.726562 228.910156 238.261719 229.066406 238.765625 L 231.710938 247.238281 L 226.125 248.726562 C 224.824219 246.277344 221.589844 242.996094 216.386719 244.269531 C 212.519531 245.21875 211.222656 247.871094 210.820312 249.921875 C 210.578125 251.152344 210.621094 252.308594 210.714844 253.078125 L 205.273438 254.464844 L 202.832031 245.71875 C 202.824219 245.6875 202.820312 245.65625 202.804688 245.621094 L 197.816406 227.746094 L 202.414062 226.507812 C 202.804688 227.1875 203.21875 227.890625 203.667969 228.597656 C 204.539062 229.96875 205.480469 230.664062 206.476562 230.664062 C 206.554688 230.664062 206.632812 230.65625 206.710938 230.648438 C 207.582031 230.558594 208.214844 229.949219 208.632812 229.355469 C 209.414062 229.949219 210.542969 230.589844 211.675781 230.40625 C 212.125 230.335938 212.710938 230.121094 213.21875 229.53125 C 214.074219 229.898438 215.417969 230.269531 216.582031 229.746094 C 217.070312 229.527344 217.671875 229.082031 218.058594 228.179688 C 218.589844 228.257812 219.238281 228.246094 219.832031 227.929688 C 220.316406 227.675781 220.929688 227.121094 221.121094 225.9375 C 221.316406 224.707031 221.546875 223.246094 221.324219 221.382812 L 224.207031 220.636719 Z M 217.835938 197.542969 C 217.699219 197.253906 217.574219 197 217.457031 196.785156 C 217.445312 196.613281 217.386719 196.449219 217.28125 196.300781 C 217.128906 196.097656 216.988281 195.914062 216.84375 195.75 C 216.71875 195.574219 216.640625 195.488281 216.621094 195.46875 C 216.554688 195.398438 216.46875 195.351562 216.390625 195.304688 C 214.605469 193.730469 212.859375 194.71875 211.164062 195.679688 C 210.773438 195.902344 210.355469 196.136719 209.898438 196.371094 C 209.425781 196.613281 208.980469 196.875 208.542969 197.136719 C 206.5625 198.3125 206.089844 198.382812 205.652344 197.824219 C 204.945312 194.835938 212.34375 191.410156 215.039062 190.429688 C 215.546875 190.246094 215.808594 189.6875 215.625 189.175781 C 215.441406 188.667969 214.878906 188.40625 214.371094 188.589844 C 213.332031 188.96875 205.617188 191.882812 203.964844 195.90625 C 203.742188 195.902344 203.460938 195.855469 203.285156 195.699219 C 203.125 195.554688 203.046875 195.28125 203.066406 194.847656 C 203.066406 192.144531 209.007812 188.195312 212.75 186.339844 C 213.230469 186.097656 213.433594 185.511719 213.191406 185.027344 C 212.949219 184.542969 212.363281 184.339844 211.878906 184.582031 C 211.042969 184.992188 205.292969 187.921875 202.558594 191.386719 C 202.53125 191.386719 202.511719 191.378906 202.484375 191.386719 C 201.738281 191.429688 200.738281 191.261719 200.503906 190.933594 C 200.375 190.75 200.53125 190.332031 200.613281 190.128906 C 202.625 184.785156 210.746094 182.472656 210.824219 182.453125 C 211.347656 182.308594 211.648438 181.765625 211.503906 181.242188 C 211.363281 180.71875 210.8125 180.414062 210.300781 180.5625 C 209.976562 180.652344 203.226562 182.570312 199.960938 187.214844 C 199.730469 186.949219 199.613281 186.632812 199.621094 186.242188 C 199.628906 184.902344 200.902344 182.992188 202.734375 181.59375 C 206.496094 178.71875 208.398438 178.171875 211.566406 179.046875 C 213.972656 179.714844 215.148438 184.097656 215.398438 185.730469 C 215.457031 186.117188 215.738281 186.429688 216.109375 186.53125 C 216.484375 186.632812 216.882812 186.503906 217.128906 186.203125 L 221.046875 181.414062 C 221.910156 181.4375 225.078125 181.734375 226.894531 184.097656 C 228.945312 186.757812 227.695312 189.601562 227.640625 189.710938 C 227.609375 189.777344 227.589844 189.84375 227.578125 189.910156 C 222.410156 193.84375 218.980469 196.605469 217.835938 197.542969 Z M 217.027344 170.074219 C 210.417969 172.035156 203.269531 172 200.25 171.871094 C 202.78125 167.558594 206.605469 163.242188 207.96875 161.765625 C 210.578125 164.300781 213.90625 167.441406 217.027344 170.074219 Z M 199.226562 173.785156 C 199.941406 173.832031 201.195312 173.898438 202.84375 173.898438 C 206.847656 173.898438 213.074219 173.511719 218.839844 171.558594 C 220.714844 173.054688 222.441406 174.277344 223.789062 174.949219 L 216.871094 183.410156 C 216.226562 181.210938 214.835938 177.910156 212.082031 177.152344 C 208.621094 176.195312 206.265625 176.667969 202.675781 179.195312 C 200.601562 177.679688 199.066406 176.792969 198.222656 176.339844 C 198.457031 175.523438 198.796875 174.667969 199.226562 173.785156 Z M 189.304688 80.054688 C 197.234375 79.851562 203.230469 81.675781 207.148438 85.484375 C 211.082031 89.308594 212.992188 95.039062 212.992188 103 C 212.992188 117.351562 217.691406 125.050781 226.960938 125.882812 C 237.316406 126.804688 239.585938 129.527344 239.886719 133.625 C 240.21875 138.089844 236.503906 142.042969 236.472656 142.074219 C 236.277344 142.277344 236.175781 142.558594 236.203125 142.847656 C 236.230469 143.128906 236.378906 143.390625 236.609375 143.554688 C 236.65625 143.585938 241.359375 147.023438 241.359375 151.957031 C 241.359375 155.847656 238.488281 158.09375 237.269531 158.871094 C 231.257812 150.449219 222.554688 139.671875 217.195312 135.972656 C 211.035156 131.710938 204.371094 130.777344 199.953125 130.15625 C 198.300781 129.925781 196.875 129.722656 196.074219 129.417969 C 194.597656 128.855469 194.949219 123.644531 195.78125 119.921875 L 198.496094 117.628906 C 200.714844 118.378906 203.25 118.066406 205.246094 116.757812 C 207 115.613281 208.007812 113.910156 208.007812 112.085938 C 208.007812 108.660156 203.984375 107.632812 201.359375 107.550781 L 179.273438 89.722656 C 178.855469 89.382812 178.230469 89.445312 177.890625 89.863281 C 176.171875 91.988281 174.957031 94.238281 174.09375 96.40625 C 172.59375 95.101562 170.933594 94.695312 169.265625 94.785156 C 169.363281 92.695312 170.71875 80.539062 189.304688 80.054688 Z M 156.011719 128.359375 C 157.144531 127.640625 158.21875 126.972656 159.21875 126.371094 L 158.890625 128.019531 C 157.957031 128.109375 157 128.214844 156.011719 128.359375 Z M 161.480469 125.042969 C 163.828125 123.71875 165.53125 122.945312 166.183594 123 C 170.1875 123.28125 171.78125 120.085938 173.183594 117.253906 C 173.367188 116.886719 173.542969 116.527344 173.726562 116.183594 C 173.929688 116.914062 174.222656 117.785156 174.65625 118.6875 C 176.046875 121.585938 178.238281 123.496094 181.003906 124.253906 C 181.332031 125.761719 181.515625 127.820312 181.019531 128.605469 C 180.921875 128.761719 180.828125 128.808594 180.71875 128.828125 C 180.195312 128.921875 178.859375 128.742188 177.304688 128.527344 C 173.882812 128.058594 168.328125 127.3125 160.917969 127.84375 Z M 177.042969 130.460938 C 178.972656 130.722656 180.246094 130.902344 181.078125 130.742188 C 181.75 130.621094 182.300781 130.242188 182.679688 129.644531 C 183.890625 127.730469 182.96875 123.925781 182.765625 123.183594 C 182.667969 122.824219 182.378906 122.546875 182.011719 122.476562 C 176.101562 121.261719 175.300781 114.328125 175.269531 114.011719 C 175.261719 113.941406 175.25 113.875 175.230469 113.808594 C 175.6875 113.289062 176.199219 112.875 176.8125 112.621094 C 178.148438 112.078125 178.394531 111.046875 178.207031 110.28125 C 178.34375 110.289062 178.472656 110.300781 178.613281 110.300781 C 180.71875 110.300781 182.570312 109.203125 183.628906 107.550781 C 183.898438 110.589844 186.453125 112.980469 189.5625 112.980469 C 192.484375 112.980469 194.917969 110.871094 195.421875 108.09375 L 200.613281 109.414062 C 200.738281 109.464844 200.871094 109.503906 201.007812 109.503906 C 201.058594 109.503906 206.042969 109.589844 206.042969 112.085938 C 206.042969 113.234375 205.363281 114.339844 204.171875 115.117188 C 202.542969 116.183594 200.453125 116.367188 198.699219 115.601562 C 198.351562 115.449219 197.960938 115.507812 197.671875 115.75 L 194.265625 118.632812 C 194.105469 118.769531 193.988281 118.953125 193.945312 119.15625 C 193.917969 119.261719 193.347656 121.707031 193.160156 124.339844 C 192.878906 128.3125 193.601562 130.574219 195.375 131.246094 C 196.382812 131.632812 197.835938 131.835938 199.679688 132.097656 C 200.039062 132.148438 200.425781 132.199219 200.816406 132.261719 C 198.464844 135.359375 190.484375 144.664062 179.75 144.664062 C 177.992188 144.664062 176.160156 144.414062 174.269531 143.847656 C 172.445312 143.296875 171.402344 142.441406 171.101562 141.226562 C 170.265625 137.867188 174.917969 132.351562 176.839844 130.441406 C 176.910156 130.441406 176.984375 130.457031 177.042969 130.460938 Z M 170.15625 108.746094 C 169.625 107.53125 168.898438 106.398438 168.859375 106.335938 C 168.820312 106.269531 168.769531 106.214844 168.714844 106.164062 C 168.714844 105.734375 168.636719 105.261719 168.464844 104.746094 C 168.007812 103.4375 167.355469 102.4375 166.589844 101.660156 C 167.910156 101.019531 169.664062 100.378906 170.476562 100.550781 C 171.117188 100.6875 171.972656 100.71875 172.789062 100.589844 C 171.855469 104.636719 172.03125 107.707031 172.042969 107.933594 C 172.042969 107.933594 172.042969 107.933594 172.042969 107.941406 C 171.324219 108.113281 170.695312 108.394531 170.15625 108.746094 Z M 162.121094 102.949219 C 160.625 102.015625 159.355469 101.804688 158.359375 101.890625 C 158.425781 101.785156 158.5 101.679688 158.582031 101.582031 C 158.65625 101.582031 158.734375 101.578125 158.804688 101.558594 C 159.046875 101.496094 164.785156 100.117188 166.617188 105.378906 C 166.871094 106.136719 166.746094 106.675781 166.53125 107.039062 C 165.453125 105.105469 162.789062 103.367188 162.121094 102.949219 Z M 160.992188 106.40625 C 159.199219 105.496094 157.53125 105.734375 156.328125 106.261719 C 156.347656 105.570312 156.496094 104.835938 156.988281 104.496094 C 157.015625 104.484375 157.039062 104.464844 157.066406 104.453125 C 157.125 104.417969 157.183594 104.386719 157.253906 104.367188 C 157.433594 104.308594 157.570312 104.195312 157.679688 104.066406 C 158.25 103.796875 159.386719 103.554688 161.089844 104.613281 C 163.785156 106.289062 165.125 108.058594 165.03125 108.632812 C 165.011719 108.746094 164.816406 108.894531 164.429688 109.027344 C 163.429688 107.734375 161.671875 106.753906 160.992188 106.40625 Z M 195.492188 106.355469 C 195.449219 105.921875 195.34375 105.503906 195.207031 105.097656 L 197.34375 106.824219 Z M 193.832031 107.019531 C 193.832031 109.367188 191.921875 111.273438 189.574219 111.273438 C 187.226562 111.273438 185.316406 109.367188 185.316406 107.019531 C 185.316406 104.675781 187.226562 102.765625 189.574219 102.765625 C 191.921875 102.765625 193.832031 104.675781 193.832031 107.019531 Z M 189.574219 101.066406 C 187.46875 101.066406 185.617188 102.164062 184.558594 103.816406 C 184.289062 100.777344 181.730469 98.386719 178.625 98.386719 C 177.308594 98.386719 176.101562 98.816406 175.117188 99.539062 C 175.824219 97.085938 176.976562 94.394531 178.835938 91.871094 L 190.273438 101.105469 C 190.039062 101.085938 189.804688 101.066406 189.574219 101.066406 Z M 174.359375 104.347656 C 174.359375 102 176.269531 100.09375 178.617188 100.09375 C 180.964844 100.09375 182.875 102 182.875 104.347656 C 182.875 106.695312 180.964844 108.601562 178.617188 108.601562 C 176.269531 108.601562 174.359375 106.695312 174.359375 104.347656 Z M 173.167969 98.222656 C 173.234375 98.296875 173.28125 98.355469 173.308594 98.398438 C 172.953125 98.621094 171.863281 98.84375 170.878906 98.636719 C 168.871094 98.210938 165.589844 99.949219 164.953125 100.300781 C 164.914062 100.320312 164.890625 100.347656 164.855469 100.375 C 163.980469 99.910156 163.050781 99.628906 162.140625 99.492188 C 162.4375 99.339844 162.730469 99.191406 163.039062 99.035156 C 167.164062 96.898438 170.539062 95.480469 173.167969 98.222656 Z M 155.164062 115.457031 C 155.671875 115.28125 155.941406 114.726562 155.765625 114.214844 C 155.75 114.175781 154.457031 110.242188 156.144531 108.691406 C 156.148438 108.6875 156.148438 108.679688 156.15625 108.671875 C 156.164062 108.671875 156.164062 108.667969 156.171875 108.667969 C 156.242188 108.601562 157.898438 107.035156 160.101562 108.152344 C 162.476562 109.351562 163.261719 110.621094 163.183594 110.855469 C 163.175781 110.871094 163.128906 110.933594 162.980469 111.011719 C 162.160156 111.453125 159.8125 110.339844 158.441406 109.371094 C 157.996094 109.058594 157.386719 109.171875 157.074219 109.609375 C 156.757812 110.050781 156.863281 110.660156 157.308594 110.972656 C 157.882812 111.378906 160.394531 113.066406 162.507812 113.066406 C 163.011719 113.066406 163.488281 112.96875 163.914062 112.738281 C 164.980469 112.164062 165.144531 111.320312 165.152344 110.851562 C 166.164062 110.484375 166.636719 109.921875 166.84375 109.390625 C 167.171875 109.214844 167.542969 108.929688 167.878906 108.53125 C 168.152344 109.046875 168.433594 109.632812 168.605469 110.144531 C 167.433594 111.574219 167 113.128906 166.96875 113.242188 C 166.832031 113.765625 167.144531 114.300781 167.667969 114.4375 C 168.199219 114.574219 168.726562 114.261719 168.867188 113.746094 C 168.871094 113.710938 169.8125 110.339844 172.707031 109.796875 C 174.679688 109.425781 176.085938 110.28125 176.296875 110.699219 C 176.257812 110.726562 176.191406 110.765625 176.085938 110.8125 C 173.710938 111.769531 172.546875 114.117188 171.429688 116.390625 C 169.9375 119.40625 168.878906 121.222656 166.335938 121.050781 C 164.167969 120.902344 157.28125 125.105469 151.015625 129.28125 C 150.96875 129.304688 150.925781 129.339844 150.878906 129.371094 C 149.339844 130.398438 147.851562 131.417969 146.476562 132.371094 C 145.421875 132.441406 141.386719 132.519531 139.164062 129.652344 C 137.507812 127.515625 138.671875 123.449219 139.339844 121.855469 C 146.96875 118.351562 155.046875 115.503906 155.164062 115.457031 Z M 160.375 166.027344 C 160.296875 165.996094 152.253906 162.519531 152.253906 155.765625 C 152.253906 148.890625 158.054688 144.578125 158.113281 144.53125 C 158.550781 144.214844 158.648438 143.605469 158.328125 143.167969 C 158.007812 142.730469 157.398438 142.632812 156.960938 142.953125 C 156.796875 143.070312 154.46875 144.792969 152.605469 147.832031 C 149.367188 148.148438 146 148.210938 142.570312 148.015625 C 136.273438 147.652344 129.972656 146.625 126.574219 141.636719 C 124.917969 139.214844 124.328125 136.578125 124.867188 134.023438 C 125.5 131.03125 127.597656 128.285156 130.792969 126.300781 C 132.550781 125.203125 134.652344 124.089844 136.875 123.011719 C 136.277344 125.175781 135.800781 128.535156 137.601562 130.855469 C 139.347656 133.101562 141.839844 133.9375 143.8125 134.226562 C 142.105469 135.4375 140.753906 136.410156 140.007812 136.953125 C 139.570312 137.273438 139.472656 137.878906 139.792969 138.316406 C 139.980469 138.578125 140.28125 138.722656 140.582031 138.722656 C 140.785156 138.722656 140.988281 138.664062 141.160156 138.535156 C 143.152344 137.082031 145.214844 135.625 147.25 134.214844 C 147.359375 134.160156 147.457031 134.097656 147.542969 134.011719 C 149.015625 132.992188 150.472656 132.003906 151.890625 131.058594 C 161.855469 129.0625 169.488281 129.554688 174.433594 130.136719 C 172.332031 132.449219 168.199219 137.652344 169.199219 141.703125 C 169.675781 143.625 171.195312 144.976562 173.707031 145.734375 C 175.800781 146.363281 177.820312 146.636719 179.757812 146.636719 C 192.589844 146.636719 201.640625 134.535156 202.996094 132.621094 C 206.886719 133.300781 211.664062 134.539062 216.078125 137.597656 C 224.058594 143.121094 240.757812 166.25 241.953125 169.949219 C 243.027344 173.277344 244.359375 177.40625 234.195312 184.933594 C 232.703125 186.039062 231.3125 187.085938 229.988281 188.078125 C 230.09375 186.632812 229.847656 184.746094 228.433594 182.914062 C 226.714844 180.679688 224.195312 179.890625 222.515625 179.609375 L 228.046875 172.835938 C 228.386719 172.417969 228.328125 171.796875 227.910156 171.457031 C 227.492188 171.117188 226.875 171.179688 226.53125 171.597656 L 225.066406 173.386719 C 219.65625 171.132812 204.808594 155.859375 204.65625 155.703125 C 204.277344 155.308594 203.65625 155.304688 203.269531 155.683594 C 202.886719 156.0625 202.871094 156.683594 203.25 157.066406 C 203.425781 157.246094 204.695312 158.558594 206.566406 160.402344 C 204.664062 162.453125 197.945312 170 196.304688 175.910156 L 163.679688 176.496094 L 160.9375 166.675781 C 160.859375 166.382812 160.652344 166.144531 160.375 166.027344 Z M 163.488281 178.457031 L 196.867188 177.855469 C 197.359375 178.097656 198.835938 178.871094 201.039062 180.4375 C 199.386719 181.851562 197.660156 184.058594 197.652344 186.234375 C 197.644531 187.347656 198.101562 188.289062 198.96875 188.972656 C 198.902344 189.117188 198.84375 189.261719 198.785156 189.410156 C 198.234375 190.710938 198.546875 191.582031 198.902344 192.078125 C 199.496094 192.90625 200.554688 193.207031 201.40625 193.304688 C 201.210938 193.808594 201.097656 194.3125 201.097656 194.808594 C 201.054688 196.066406 201.550781 196.785156 201.976562 197.164062 C 202.511719 197.640625 203.160156 197.804688 203.667969 197.855469 C 203.695312 198.082031 203.742188 198.320312 203.8125 198.554688 C 203.839844 198.644531 203.886719 198.730469 203.9375 198.808594 C 204.605469 199.78125 205.382812 200.128906 206.179688 200.128906 C 207.339844 200.128906 208.550781 199.410156 209.535156 198.824219 C 209.941406 198.582031 210.367188 198.332031 210.78125 198.117188 C 211.261719 197.867188 211.707031 197.621094 212.121094 197.382812 C 213.878906 196.382812 214.480469 196.097656 215.265625 196.941406 C 215.847656 197.789062 218.6875 202.644531 221.207031 219.375 L 220.925781 219.449219 C 220.570312 218.140625 219.988281 216.671875 219.054688 214.992188 C 218.832031 214.585938 218.609375 214.167969 218.378906 213.734375 C 215.730469 208.75 212.101562 201.921875 199.476562 205.972656 C 188.316406 209.554688 183.96875 218.460938 182.792969 221.460938 C 179.226562 219.21875 173.84375 220.054688 171.738281 221.011719 C 169.925781 221.832031 169.007812 223.257812 169.402344 224.644531 C 169.75 225.871094 171.21875 227.042969 174.292969 226.648438 C 175.878906 226.449219 176.765625 226.578125 177.230469 226.742188 C 175.753906 227.355469 174.292969 228.238281 172.980469 229.347656 C 171.875 230.289062 171.195312 231.316406 170.925781 232.402344 C 170.585938 232.433594 170.257812 232.523438 169.957031 232.636719 C 169.519531 228.507812 167.726562 227.171875 166.910156 226.773438 C 165.980469 226.324219 164.992188 226.375 164.273438 226.925781 C 163.582031 227.453125 163.265625 228.347656 163.445312 229.324219 C 163.523438 229.734375 163.585938 230.101562 163.652344 230.433594 C 164.007812 232.285156 164.183594 233.203125 164.289062 237.394531 C 164.386719 241.367188 166.296875 243.269531 167.472656 244.058594 C 165.25 249.359375 160.78125 257.601562 156.921875 264.425781 C 156.175781 259.554688 154.246094 248.8125 150.910156 242.320312 C 149.753906 240.0625 148.09375 238.164062 146.234375 236.578125 C 146.300781 232.570312 147.253906 228.269531 147.835938 226.007812 C 148.054688 226.140625 148.289062 226.265625 148.5625 226.355469 C 149.6875 226.734375 150.957031 226.566406 152.332031 225.847656 C 153.015625 225.488281 153.496094 224.9375 153.703125 224.257812 C 154.214844 222.585938 153.0625 220.46875 151.839844 218.226562 C 151.316406 217.265625 150.785156 216.285156 150.414062 215.390625 C 150.441406 215.296875 150.460938 215.207031 150.464844 215.109375 C 150.695312 199.761719 161.625 181.464844 163.488281 178.457031 Z M 69.554688 243.320312 C 69.910156 243.074219 70.054688 242.628906 69.921875 242.222656 C 69.792969 241.820312 69.410156 241.542969 68.988281 241.542969 C 68.988281 241.542969 68.980469 241.542969 68.980469 241.542969 C 68.929688 241.523438 67.535156 241.539062 66.554688 240.414062 C 65.617188 239.335938 65.316406 237.578125 65.664062 235.179688 C 66.457031 229.746094 70.453125 229.917969 76.941406 230.832031 C 77.613281 230.929688 78.289062 231.023438 78.941406 231.101562 C 86.339844 232.003906 98.878906 227.230469 103.105469 210.363281 C 105.515625 200.722656 110.117188 193.730469 116.40625 190.148438 C 121.574219 187.210938 127.585938 186.730469 134.289062 188.730469 C 148.675781 193.027344 148.175781 206.992188 147.988281 212.246094 C 147.96875 212.722656 147.953125 213.128906 147.953125 213.433594 C 147.953125 215.1875 149.054688 217.207031 150.121094 219.152344 C 151.046875 220.859375 152.101562 222.792969 151.832031 223.675781 C 151.792969 223.800781 151.714844 223.949219 151.433594 224.09375 C 150.558594 224.546875 149.8125 224.683594 149.21875 224.492188 C 148.542969 224.277344 148.234375 223.695312 148.230469 223.691406 C 148.230469 223.683594 148.222656 223.683594 148.222656 223.675781 C 148.183594 223.597656 148.132812 223.527344 148.074219 223.460938 C 148.058594 223.449219 148.046875 223.433594 148.039062 223.421875 C 147.980469 223.363281 147.914062 223.308594 147.835938 223.265625 C 147.832031 223.265625 147.832031 223.257812 147.832031 223.257812 C 147.773438 223.226562 147.707031 223.191406 147.632812 223.171875 C 147.613281 223.167969 147.601562 223.167969 147.582031 223.160156 C 147.5625 223.152344 147.542969 223.152344 147.523438 223.148438 C 147.445312 223.132812 147.367188 223.128906 147.292969 223.132812 C 147.289062 223.132812 147.273438 223.132812 147.269531 223.132812 C 147.269531 223.132812 147.261719 223.132812 147.261719 223.132812 C 147.175781 223.140625 147.089844 223.167969 147.011719 223.191406 C 146.992188 223.199219 146.96875 223.210938 146.949219 223.21875 C 146.867188 223.25 146.796875 223.296875 146.730469 223.351562 C 146.726562 223.355469 146.71875 223.363281 146.710938 223.371094 C 146.652344 223.421875 146.601562 223.480469 146.554688 223.546875 C 146.542969 223.558594 146.535156 223.578125 146.523438 223.589844 C 146.476562 223.664062 146.445312 223.734375 146.417969 223.820312 C 146.410156 223.832031 146.398438 223.871094 146.386719 223.925781 C 146.1875 224.539062 144.789062 228.570312 141.296875 229.152344 C 138.390625 229.636719 137.449219 227.851562 137.203125 227.171875 C 142.566406 220.023438 140.675781 207.238281 140.582031 206.652344 C 140.53125 206.292969 140.28125 206 139.9375 205.875 C 139.59375 205.757812 139.214844 205.835938 138.949219 206.078125 C 136.179688 208.625 132.160156 210.539062 128.167969 211.945312 C 128.011719 211.984375 127.855469 212.035156 127.710938 212.109375 C 122.378906 213.933594 117.199219 214.855469 115.25 215.160156 C 114.550781 213.023438 112.910156 208.964844 110.5 208.75 C 109.238281 208.625 108.113281 209.527344 107.179688 211.398438 C 106.078125 213.585938 105.941406 215.539062 106.761719 217.207031 C 107.800781 219.3125 110.109375 220.292969 111.34375 220.683594 C 110.980469 227.328125 107.082031 228.519531 97.355469 229.886719 C 87.496094 231.269531 83.585938 234.5 78.046875 241.667969 C 76.214844 244.039062 72.324219 250.714844 67.945312 258.5625 C 62.132812 248.785156 69.242188 243.542969 69.554688 243.320312 Z M 79.589844 242.871094 C 85.023438 235.832031 88.570312 233.105469 97.617188 231.832031 C 98.648438 231.6875 99.636719 231.539062 100.578125 231.386719 C 101.253906 231.984375 104.191406 234.917969 103.988281 240.890625 C 103.988281 240.929688 103.992188 240.96875 103.992188 241.007812 C 100.820312 243.621094 98.988281 246.9375 98.269531 248.4375 C 93.265625 247.511719 89.304688 254.425781 89.132812 254.71875 L 65.625 294.910156 L 50.574219 294.910156 C 53.617188 289.140625 74.664062 249.253906 79.589844 242.871094 Z M 79.589844 242.871094 " fill-opacity="1" fill-rule="nonzero"/></g><path fill="#000000" d="M 128.097656 217.996094 C 128.660156 218.238281 129.410156 217.761719 129.765625 216.933594 C 130.125 216.101562 129.960938 215.226562 129.390625 214.984375 C 128.828125 214.742188 128.078125 215.21875 127.722656 216.050781 C 127.363281 216.886719 127.527344 217.753906 128.097656 217.996094 Z M 128.097656 217.996094 " fill-opacity="1" fill-rule="nonzero"/><path fill="#000000" d="M 135.695312 221.199219 C 136.257812 221.441406 137.011719 220.964844 137.363281 220.132812 C 137.726562 219.304688 137.5625 218.429688 136.992188 218.1875 C 136.429688 217.945312 135.683594 218.421875 135.324219 219.253906 C 134.964844 220.082031 135.132812 220.957031 135.695312 221.199219 Z M 135.695312 221.199219 " fill-opacity="1" fill-rule="nonzero"/><path fill="#000000" d="M 129.941406 221.414062 C 130.089844 221.671875 130.261719 221.910156 130.484375 222.132812 C 130.714844 222.355469 130.972656 222.558594 131.308594 222.691406 C 131.636719 222.828125 132.035156 222.90625 132.414062 222.808594 C 132.800781 222.710938 133.105469 222.511719 133.328125 222.160156 C 133.375 222.089844 133.402344 221.996094 133.386719 221.90625 C 133.367188 221.691406 133.171875 221.527344 132.957031 221.546875 L 132.707031 221.570312 C 132.550781 221.585938 132.347656 221.628906 132.210938 221.625 C 132.066406 221.625 131.917969 221.609375 131.753906 221.550781 C 131.589844 221.492188 131.414062 221.375 131.222656 221.265625 C 131.046875 221.128906 130.855469 220.984375 130.660156 220.828125 L 130.628906 220.800781 C 130.476562 220.683594 130.269531 220.664062 130.097656 220.769531 C 129.882812 220.898438 129.808594 221.1875 129.941406 221.414062 Z M 129.941406 221.414062 " fill-opacity="1" fill-rule="nonzero"/><path fill="#000000" d="M 126.9375 224.308594 C 127.136719 224.558594 127.304688 224.832031 127.546875 225.054688 C 127.980469 225.546875 128.5625 225.90625 129.164062 226.167969 C 129.777344 226.429688 130.445312 226.550781 131.097656 226.53125 C 131.757812 226.511719 132.375 226.402344 133.007812 226.109375 C 133.199219 226.023438 133.316406 225.8125 133.277344 225.589844 C 133.230469 225.335938 132.984375 225.167969 132.726562 225.210938 L 132.664062 225.226562 C 132.183594 225.308594 131.621094 225.375 131.113281 225.335938 C 130.59375 225.308594 130.089844 225.210938 129.621094 225.023438 C 129.15625 224.832031 128.699219 224.585938 128.304688 224.238281 C 127.894531 223.910156 127.554688 223.488281 127.195312 223.0625 L 127.167969 223.03125 C 127.050781 222.886719 126.839844 222.839844 126.664062 222.925781 C 126.460938 223.03125 126.382812 223.277344 126.488281 223.480469 C 126.625 223.761719 126.769531 224.042969 126.9375 224.308594 Z M 126.9375 224.308594 " fill-opacity="1" fill-rule="nonzero"/><path fill="#000000" d="M 251.046875 212.90625 C 250.359375 213.011719 249.925781 213.925781 250.082031 214.9375 C 250.242188 215.957031 250.925781 216.695312 251.613281 216.59375 C 252.300781 216.488281 252.734375 215.574219 252.574219 214.558594 C 252.417969 213.539062 251.730469 212.800781 251.046875 212.90625 Z M 251.046875 212.90625 " fill-opacity="1" fill-rule="nonzero"/><path fill="#000000" d="M 243.292969 215.90625 C 243.136719 214.886719 242.449219 214.148438 241.761719 214.253906 C 241.078125 214.355469 240.644531 215.273438 240.800781 216.285156 C 240.960938 217.304688 241.644531 218.042969 242.332031 217.9375 C 243.019531 217.832031 243.449219 216.925781 243.292969 215.90625 Z M 243.292969 215.90625 " fill-opacity="1" fill-rule="nonzero"/><path fill="#000000" d="M 245.480469 220.644531 C 245.871094 220.851562 246.335938 220.890625 246.734375 220.839844 C 247.148438 220.789062 247.488281 220.632812 247.800781 220.460938 C 248.109375 220.285156 248.371094 220.0625 248.605469 219.828125 C 248.753906 219.675781 248.808594 219.441406 248.714844 219.230469 C 248.597656 218.957031 248.277344 218.832031 248.011719 218.953125 L 247.972656 218.972656 C 247.710938 219.082031 247.46875 219.191406 247.230469 219.292969 C 246.996094 219.363281 246.765625 219.441406 246.566406 219.449219 C 246.363281 219.472656 246.199219 219.449219 246.035156 219.402344 C 245.878906 219.371094 245.675781 219.265625 245.503906 219.199219 L 245.238281 219.101562 C 245.144531 219.070312 245.039062 219.0625 244.941406 219.09375 C 244.707031 219.171875 244.578125 219.429688 244.65625 219.664062 C 244.804688 220.121094 245.078125 220.429688 245.480469 220.644531 Z M 245.480469 220.644531 " fill-opacity="1" fill-rule="nonzero"/><path fill="#000000" d="M 243.796875 223.355469 C 243.613281 223.585938 243.648438 223.925781 243.882812 224.109375 C 244.496094 224.597656 245.140625 224.917969 245.863281 225.121094 C 246.578125 225.324219 247.347656 225.382812 248.101562 225.265625 C 248.847656 225.148438 249.585938 224.910156 250.203125 224.5 C 250.527344 224.324219 250.796875 224.074219 251.085938 223.851562 C 251.347656 223.605469 251.589844 223.34375 251.824219 223.074219 C 251.96875 222.917969 251.988281 222.675781 251.855469 222.492188 C 251.707031 222.285156 251.410156 222.230469 251.203125 222.382812 L 251.164062 222.410156 C 250.644531 222.773438 250.148438 223.140625 249.597656 223.382812 C 249.0625 223.648438 248.496094 223.792969 247.925781 223.871094 C 247.355469 223.945312 246.765625 223.910156 246.191406 223.792969 C 245.621094 223.675781 245.015625 223.46875 244.515625 223.226562 L 244.453125 223.191406 C 244.230469 223.101562 243.960938 223.160156 243.796875 223.355469 Z M 243.796875 223.355469 " fill-opacity="1" fill-rule="nonzero"/><path fill="#000000" d="M 242.699219 212.15625 C 243.050781 212.21875 243.390625 212.371094 243.796875 212.480469 L 243.855469 212.5 C 243.992188 212.539062 244.152344 212.515625 244.273438 212.410156 C 244.472656 212.246094 244.496094 211.957031 244.335938 211.761719 C 244.019531 211.390625 243.621094 211.070312 243.136719 210.878906 C 242.667969 210.671875 242.117188 210.597656 241.601562 210.644531 C 241.078125 210.691406 240.574219 210.855469 240.140625 211.117188 C 239.710938 211.375 239.351562 211.691406 239.0625 212.128906 C 239.003906 212.21875 238.992188 212.335938 239.035156 212.449219 C 239.109375 212.617188 239.3125 212.695312 239.480469 212.625 L 239.53125 212.597656 C 239.886719 212.449219 240.265625 212.285156 240.625 212.1875 C 240.984375 212.089844 241.339844 212.03125 241.683594 212.03125 C 242.019531 212.03125 242.359375 212.054688 242.699219 212.15625 Z M 242.699219 212.15625 " fill-opacity="1" fill-rule="nonzero"/><path fill="#000000" d="M 249.3125 211.527344 L 249.363281 211.5 C 249.71875 211.351562 250.097656 211.1875 250.457031 211.089844 C 250.816406 210.992188 251.167969 210.933594 251.515625 210.933594 C 251.855469 210.9375 252.195312 210.957031 252.535156 211.054688 C 252.890625 211.121094 253.230469 211.273438 253.636719 211.382812 L 253.695312 211.402344 C 253.832031 211.441406 253.988281 211.417969 254.113281 211.3125 C 254.308594 211.148438 254.335938 210.859375 254.171875 210.664062 C 253.859375 210.292969 253.457031 209.972656 252.976562 209.78125 C 252.503906 209.574219 251.953125 209.5 251.4375 209.546875 C 250.914062 209.59375 250.410156 209.757812 249.980469 210.015625 C 249.546875 210.277344 249.1875 210.59375 248.898438 211.03125 C 248.839844 211.121094 248.828125 211.238281 248.875 211.351562 C 248.945312 211.519531 249.140625 211.597656 249.3125 211.527344 Z M 249.3125 211.527344 " fill-opacity="1" fill-rule="nonzero"/><path fill="#000000" d="M 184.464844 116.894531 C 184.820312 116.847656 185.132812 116.699219 185.453125 116.589844 C 185.761719 116.449219 186.054688 116.289062 186.34375 116.117188 C 186.539062 116 186.65625 115.769531 186.609375 115.535156 C 186.558594 115.230469 186.265625 115.019531 185.957031 115.070312 L 185.867188 115.085938 C 185.578125 115.128906 185.308594 115.230469 185.042969 115.273438 C 184.765625 115.300781 184.503906 115.378906 184.238281 115.371094 C 183.707031 115.425781 183.195312 115.359375 182.710938 115.25 C 182.222656 115.128906 181.75 114.929688 181.304688 114.660156 C 180.867188 114.398438 180.410156 114.039062 180.058594 113.71875 L 179.980469 113.648438 C 179.777344 113.464844 179.46875 113.417969 179.21875 113.5625 C 178.914062 113.738281 178.800781 114.136719 178.976562 114.445312 C 179.355469 115.105469 179.808594 115.59375 180.382812 116.019531 C 180.953125 116.4375 181.621094 116.746094 182.332031 116.886719 C 183.046875 117.039062 183.785156 117.066406 184.464844 116.894531 Z M 184.464844 116.894531 " fill-opacity="1" fill-rule="nonzero"/><path fill="#000000" d="M 179.742188 104.316406 C 179.953125 103.308594 179.574219 102.375 178.894531 102.230469 C 178.210938 102.085938 177.488281 102.785156 177.269531 103.796875 C 177.054688 104.8125 177.441406 105.738281 178.121094 105.882812 C 178.808594 106.027344 179.535156 105.320312 179.742188 104.316406 Z M 179.742188 104.316406 " fill-opacity="1" fill-rule="nonzero"/><path fill="#000000" d="M 188.488281 106.699219 C 188.277344 107.707031 188.660156 108.640625 189.339844 108.785156 C 190.019531 108.929688 190.746094 108.230469 190.960938 107.214844 C 191.171875 106.210938 190.789062 105.273438 190.109375 105.132812 C 189.421875 104.996094 188.699219 105.695312 188.488281 106.699219 Z M 188.488281 106.699219 " fill-opacity="1" fill-rule="nonzero"/></svg>