<?xml version="1.0" standalone="no"?>
<!DOCTYPE svg PUBLIC "-//W3C//DTD SVG 20010904//EN"
 "http://www.w3.org/TR/2001/REC-SVG-20010904/DTD/svg10.dtd">
<svg version="1.0" xmlns="http://www.w3.org/2000/svg"
 width="2000.000000pt" height="2000.000000pt" viewBox="0 0 2000.000000 2000.000000"
 preserveAspectRatio="xMidYMid meet">

<g transform="translate(0.000000,2000.000000) scale(0.100000,-0.100000)"
fill="#000000" stroke="none">
<path d="M6243 14003 c4 -141 7 -350 7 -465 l0 -208 75 0 76 0 -6 453 c-4 248
-8 458 -10 465 -3 8 -27 12 -76 12 l-72 0 6 -257z"/>
<path d="M7005 14168 c-3 -7 -34 -191 -70 -408 -36 -217 -68 -407 -71 -421 -5
-26 -4 -27 66 -39 39 -7 74 -10 76 -7 3 3 15 62 26 132 l21 126 51 -8 c130
-21 212 2 280 78 60 67 81 130 81 244 0 104 -18 148 -83 207 -46 42 -102 61
-232 83 -52 8 -105 18 -118 20 -13 3 -24 0 -27 -7z m248 -175 c18 -9 37 -32
49 -61 19 -42 20 -54 10 -111 -12 -72 -50 -129 -96 -144 -15 -5 -52 -6 -82 -2
-65 8 -63 -4 -29 195 14 80 25 146 25 148 0 8 98 -12 123 -25z"/>
<path d="M5281 14149 c-70 -14 -113 -41 -139 -90 -20 -37 -23 -54 -19 -109 3
-36 8 -73 12 -82 5 -13 -1 -18 -30 -24 -40 -7 -39 -1 -14 -96 9 -35 12 -37 46
-35 l36 2 65 -260 c36 -143 66 -262 68 -264 2 -2 34 4 72 14 l69 16 -67 270
-68 269 37 9 c20 6 49 13 64 17 19 4 26 11 23 23 -3 9 -10 37 -17 64 -9 36
-15 46 -28 43 -114 -33 -121 -31 -121 36 0 45 18 64 70 73 44 7 47 16 34 98
-7 41 -12 42 -93 26z"/>
<path d="M5942 14000 c-29 -4 -54 -10 -56 -11 -1 -2 10 -107 26 -234 27 -221
28 -231 11 -268 -21 -47 -47 -67 -90 -67 -33 0 -58 18 -67 48 -3 9 -19 125
-35 256 -17 131 -32 240 -34 242 -4 5 -128 -14 -135 -20 -9 -10 48 -458 68
-526 25 -85 69 -130 134 -137 72 -8 113 4 156 47 l38 38 6 -30 c6 -28 9 -30
37 -24 17 3 43 6 58 6 56 0 56 -8 12 343 -23 179 -41 330 -41 336 0 12 -10 12
-88 1z"/>
<path d="M4720 13975 c-30 -13 -54 -29 -54 -37 1 -7 23 -66 49 -131 26 -65 45
-120 43 -122 -3 -3 -19 0 -37 6 -25 9 -46 9 -87 0 -64 -15 -107 -48 -136 -104
-31 -62 -22 -183 23 -302 79 -207 191 -305 313 -274 48 12 121 67 131 99 7 23
25 27 25 6 0 -8 4 -17 9 -20 9 -6 108 30 125 45 10 9 -325 859 -339 858 -5 0
-35 -11 -65 -24z m51 -418 c113 -76 171 -332 90 -394 -33 -26 -91 -9 -129 37
-23 28 -70 125 -86 179 -25 86 -22 137 13 172 35 35 66 37 112 6z"/>
<path d="M7641 13818 c-47 -147 -180 -612 -176 -618 5 -8 125 -43 130 -38 2 2
27 82 55 178 56 188 87 260 122 284 25 18 80 21 108 6 22 -12 22 -13 54 73
l25 68 -27 10 c-41 17 -98 14 -128 -6 l-27 -17 6 28 c5 28 4 30 -53 47 -77 22
-77 22 -89 -15z"/>
<path d="M8115 13637 c-96 -46 -182 -173 -221 -327 -41 -160 20 -289 158 -334
58 -19 80 -20 129 -6 182 51 337 387 254 551 -60 118 -206 171 -320 116z m167
-148 c29 -29 30 -33 26 -94 -9 -104 -84 -247 -148 -280 -43 -22 -68 -18 -102
15 -29 29 -30 34 -26 100 3 58 11 83 48 157 68 132 137 167 202 102z"/>
<path d="M8785 13559 c-19 -33 -33 -64 -30 -69 5 -8 110 -70 119 -70 5 0 76
115 76 123 0 4 -117 77 -125 77 -2 0 -20 -27 -40 -61z"/>
<path d="M4052 13409 c-48 -24 -79 -62 -88 -108 -8 -37 -10 -38 -33 -9 l-18
21 -56 -34 c-32 -18 -57 -38 -57 -43 0 -15 344 -576 353 -576 21 0 117 66 112
77 -2 7 -56 98 -120 202 -101 168 -115 195 -115 235 0 56 37 106 80 106 40 0
66 -34 200 -257 63 -106 119 -192 123 -193 13 0 116 64 117 72 0 17 -255 427
-289 461 -67 71 -130 85 -209 46z"/>
<path d="M8713 13408 c-6 -7 -86 -143 -178 -303 -92 -159 -177 -300 -188 -312
-24 -27 -44 -29 -74 -8 -20 14 -23 13 -53 -37 l-32 -52 32 -27 c73 -61 158
-55 225 15 22 24 120 181 218 351 197 340 189 311 106 359 -36 21 -48 24 -56
14z"/>
<path d="M3407 13225 c-32 -25 -57 -49 -57 -52 0 -3 21 -30 46 -59 l46 -54 59
46 59 47 -42 51 c-23 28 -45 55 -48 59 -4 4 -32 -13 -63 -38z"/>
<path d="M8990 13133 c-56 -20 -183 -144 -228 -222 -79 -140 -78 -254 5 -342
44 -47 118 -90 176 -103 26 -6 30 -3 54 50 21 46 23 58 12 65 -8 5 -20 9 -27
9 -24 0 -90 39 -111 66 -27 34 -27 85 -1 143 15 32 23 41 33 34 104 -82 241
-183 247 -183 4 0 28 22 53 49 62 66 99 142 104 216 4 52 1 67 -24 115 -40 75
-112 120 -193 119 -30 0 -75 -8 -100 -16z m139 -128 c44 -22 53 -68 27 -128
-30 -65 -28 -65 -110 -4 -42 32 -76 62 -76 67 0 18 91 77 123 79 4 1 21 -6 36
-14z"/>
<path d="M3551 13052 l-53 -47 211 -263 c117 -144 215 -262 218 -262 3 0 30
19 60 41 47 37 52 44 40 58 -8 9 -98 122 -202 251 -103 129 -195 243 -204 252
-15 16 -19 14 -70 -30z"/>
<path d="M5906 13058 c-11 -6 -47 -15 -80 -19 -104 -14 -168 -27 -266 -54 -52
-14 -106 -28 -120 -31 -14 -3 -34 -9 -45 -13 -11 -5 -51 -18 -90 -31 -69 -22
-123 -43 -157 -61 -10 -5 -23 -9 -30 -9 -13 0 -298 -141 -388 -192 -104 -59
-309 -205 -425 -303 -152 -128 -366 -352 -445 -465 -13 -19 -29 -39 -36 -45
-11 -10 -164 -233 -164 -240 0 -2 -26 -48 -58 -102 -54 -91 -102 -185 -102
-199 0 -5 -61 -139 -81 -176 -5 -10 -9 -27 -9 -37 0 -11 -4 -23 -10 -26 -5 -3
-10 -15 -10 -25 0 -10 -6 -31 -14 -47 -8 -15 -20 -48 -26 -73 -7 -25 -16 -54
-20 -65 -5 -11 -11 -33 -14 -50 -3 -16 -10 -52 -16 -80 -6 -27 -15 -72 -19
-100 -5 -27 -14 -63 -20 -78 -6 -16 -11 -45 -11 -66 0 -21 -7 -58 -15 -81 -22
-63 -22 -754 0 -807 8 -19 15 -57 15 -84 0 -26 5 -60 11 -76 6 -15 15 -53 20
-83 24 -154 81 -386 100 -405 5 -5 9 -17 9 -27 0 -10 4 -26 9 -36 5 -9 14 -35
20 -57 13 -44 17 -52 56 -140 85 -189 157 -323 242 -450 32 -48 63 -96 70
-107 6 -12 15 -23 20 -27 5 -3 20 -22 33 -41 73 -106 314 -358 429 -450 24
-19 58 -47 75 -61 136 -112 454 -298 631 -369 21 -8 145 -56 180 -70 22 -8 66
-21 135 -39 25 -7 59 -17 75 -23 79 -27 235 -56 410 -77 50 -6 103 -16 119
-21 38 -13 604 -13 642 0 16 5 70 15 119 21 97 11 169 22 255 38 105 20 135
28 157 39 12 7 35 12 52 12 16 0 33 5 36 10 3 6 17 10 31 10 13 0 32 4 42 9 9
5 35 14 57 20 22 7 58 19 80 28 22 8 49 19 60 23 11 4 36 13 55 20 110 38 505
229 553 268 6 5 29 19 50 31 20 12 52 29 70 40 17 10 78 50 135 90 57 39 107
71 112 71 4 0 10 3 12 8 2 4 35 30 73 57 39 27 102 74 140 104 39 31 77 61 85
68 12 9 108 89 195 161 212 178 413 366 853 797 129 127 235 230 236 230 2 0
196 -190 432 -423 236 -232 441 -430 456 -440 14 -9 63 -51 110 -94 102 -93
342 -290 458 -376 47 -35 94 -71 105 -80 43 -35 143 -102 153 -102 6 0 12 -4
14 -8 2 -5 41 -32 88 -62 47 -29 103 -65 125 -79 22 -15 54 -33 70 -41 17 -8
53 -28 80 -45 28 -17 61 -35 75 -42 14 -6 70 -32 125 -58 94 -44 111 -52 168
-74 26 -10 58 -23 107 -44 19 -8 53 -20 75 -27 22 -7 49 -16 60 -20 11 -4 40
-13 65 -19 25 -7 59 -17 75 -22 87 -30 236 -60 386 -79 41 -5 88 -14 103 -20
16 -6 135 -10 301 -10 214 0 287 3 332 15 32 9 103 18 158 22 55 3 115 12 134
19 18 8 45 14 59 14 14 0 39 4 56 9 38 11 125 35 186 51 25 7 53 16 62 21 10
5 24 9 31 9 23 0 306 114 420 170 101 49 254 136 322 184 17 12 37 26 46 31
169 105 457 362 620 555 74 87 229 295 229 307 0 6 9 18 20 28 11 10 20 23 20
29 0 6 12 28 26 49 14 21 41 67 60 103 19 35 38 72 44 82 10 19 96 204 112
242 6 14 14 33 19 42 5 10 9 27 9 37 0 11 4 22 9 25 5 3 11 18 14 33 2 16 14
53 26 83 11 30 21 65 21 77 0 12 4 24 9 27 5 3 11 23 14 43 3 21 11 61 17 88
6 28 15 75 20 105 5 30 13 71 19 90 6 19 11 53 11 76 0 23 7 58 15 77 22 53
22 635 0 697 -8 23 -15 66 -15 94 0 28 -5 67 -11 86 -6 19 -15 62 -20 95 -16
100 -27 158 -38 200 -5 22 -14 58 -20 80 -22 89 -34 130 -42 140 -5 5 -9 19
-9 31 0 13 -4 26 -10 29 -5 3 -10 17 -10 30 0 13 -5 27 -10 30 -5 3 -10 14
-10 25 0 10 -12 42 -26 72 -25 50 -31 65 -53 121 -18 48 -102 208 -144 274
-15 24 -27 46 -27 51 0 5 -9 17 -20 27 -11 10 -20 22 -20 26 0 14 -120 180
-193 269 -136 163 -398 409 -506 475 -9 6 -18 12 -21 15 -11 12 -139 100 -145
100 -4 0 -19 9 -35 20 -24 17 -133 76 -240 130 -33 17 -88 41 -135 60 -11 4
-36 15 -55 23 -63 27 -217 77 -237 77 -10 0 -23 4 -29 9 -5 4 -43 16 -84 26
-41 9 -85 21 -98 26 -13 5 -36 9 -51 9 -32 0 -96 24 -106 40 -9 14 -1017 14
-1031 0 -6 -6 -42 -15 -80 -20 -38 -5 -82 -11 -99 -15 -16 -3 -55 -11 -85 -16
-51 -10 -111 -27 -295 -81 -60 -17 -137 -45 -220 -78 -11 -4 -36 -14 -55 -21
-104 -37 -451 -210 -522 -260 -14 -11 -31 -19 -37 -19 -6 0 -11 -4 -11 -10 0
-5 -5 -10 -11 -10 -23 0 -421 -273 -525 -359 -16 -14 -45 -37 -64 -51 -71 -53
-305 -250 -405 -342 -22 -20 -51 -46 -65 -58 -89 -77 -346 -321 -678 -646 -85
-82 -158 -149 -162 -149 -5 0 -74 63 -152 139 -463 452 -530 516 -708 681
-111 103 -223 201 -285 251 -33 27 -73 61 -90 76 -43 38 -271 215 -340 263
-31 22 -75 54 -98 71 -68 50 -287 188 -357 225 -36 19 -67 37 -70 40 -8 10
-336 169 -348 169 -7 0 -20 4 -30 9 -31 17 -86 38 -152 60 -36 12 -73 26 -82
31 -10 6 -28 10 -41 10 -13 0 -27 4 -32 9 -6 4 -62 21 -125 36 -63 14 -129 31
-146 36 -17 5 -46 9 -65 9 -19 0 -47 7 -63 15 -24 13 -96 15 -460 15 -299 -1
-437 -4 -450 -12z m8274 -674 l0 -516 -27 7 c-53 13 -139 25 -258 35 -66 5
-133 12 -150 15 -32 6 -252 -9 -370 -26 -176 -24 -446 -101 -605 -171 -280
-125 -484 -244 -740 -432 -89 -65 -279 -213 -290 -226 -3 -3 -41 -37 -85 -75
-162 -139 -327 -296 -603 -572 -233 -235 -285 -282 -300 -274 -16 9 -624 627
-629 640 -7 17 843 823 1067 1011 29 25 58 50 64 55 26 24 265 213 334 264
519 383 1063 640 1552 731 63 12 138 28 165 35 37 9 161 13 463 14 l412 1 0
-516z m285 456 c68 -15 77 -17 185 -48 343 -99 712 -298 976 -527 83 -72 245
-233 296 -295 21 -25 49 -58 63 -75 15 -16 38 -48 52 -70 14 -22 29 -42 33
-45 22 -16 175 -272 218 -365 18 -38 37 -77 42 -86 29 -55 120 -297 140 -374
4 -16 17 -64 28 -105 31 -114 47 -199 86 -460 22 -146 22 -605 1 -728 -9 -48
-21 -116 -26 -152 -18 -108 -68 -311 -95 -385 -14 -38 -32 -92 -41 -119 -14
-46 -32 -89 -104 -241 -54 -115 -188 -345 -200 -345 -5 0 -9 -6 -9 -13 0 -7
-7 -22 -15 -32 -18 -23 -71 -94 -101 -135 -88 -119 -366 -400 -484 -488 -41
-31 -77 -59 -80 -62 -3 -3 -39 -29 -80 -57 -278 -186 -470 -281 -770 -379
-108 -36 -287 -84 -310 -84 -20 0 -20 8 -20 508 l0 507 68 24 c288 102 559
293 787 555 63 72 186 250 206 298 6 15 15 28 20 28 5 0 9 5 9 12 0 6 16 44
35 85 19 41 35 78 35 83 0 6 9 29 20 53 26 58 75 227 89 312 7 39 18 106 26
150 20 107 19 352 -1 469 -8 50 -22 132 -31 181 -43 251 -147 508 -295 729
-71 104 -234 278 -349 371 -123 99 -302 203 -441 255 l-58 21 0 525 0 524 28
-5 c15 -4 45 -10 67 -15z m-7895 -1100 c178 -20 195 -22 204 -31 6 -5 23 -9
38 -9 16 0 36 -4 46 -8 9 -5 69 -26 132 -46 63 -21 133 -45 155 -54 70 -29
302 -150 362 -188 32 -20 74 -46 93 -57 19 -11 61 -39 93 -63 31 -24 62 -44
67 -44 6 0 10 -3 10 -7 0 -5 17 -19 37 -33 50 -33 248 -195 342 -278 122 -107
341 -315 641 -609 91 -88 200 -195 242 -236 l77 -74 -312 -311 c-172 -170
-343 -338 -382 -373 -38 -35 -77 -70 -85 -79 -8 -8 -31 -28 -50 -44 -19 -15
-53 -45 -75 -65 -60 -55 -283 -233 -340 -271 -27 -18 -55 -38 -60 -45 -10 -12
-189 -130 -250 -165 -16 -10 -61 -35 -100 -57 -100 -58 -295 -149 -410 -193
-11 -5 -46 -16 -77 -25 -32 -9 -60 -21 -64 -26 -3 -5 -20 -9 -39 -9 -19 0 -36
-4 -39 -9 -3 -5 -23 -11 -43 -14 -21 -3 -63 -11 -93 -17 -229 -44 -526 -47
-730 -9 -97 18 -206 47 -245 64 -16 7 -57 23 -90 36 -165 62 -327 165 -494
314 -41 37 -181 201 -181 213 0 5 -9 17 -20 27 -11 10 -26 30 -34 44 -8 14
-28 51 -44 81 -65 116 -122 242 -122 268 0 10 -3 22 -7 26 -10 9 -33 75 -39
111 -3 17 -9 35 -14 40 -4 6 -11 28 -14 50 -4 22 -11 67 -16 100 -23 141 -32
336 -21 469 14 169 20 217 31 241 5 11 11 34 14 50 9 57 18 90 30 120 7 17 23
57 35 90 22 58 99 219 124 260 153 246 312 417 520 559 37 25 70 46 73 46 3 0
30 16 60 35 30 19 56 35 59 35 2 0 35 14 72 31 169 77 330 120 533 140 57 5
107 13 110 16 5 6 155 -3 290 -17z m7335 0 c164 -18 241 -34 350 -73 157 -56
229 -88 303 -134 29 -18 54 -33 57 -33 26 0 228 -171 325 -275 69 -74 180
-223 180 -241 0 -4 10 -21 23 -38 21 -28 58 -101 77 -151 5 -11 17 -41 29 -67
12 -26 21 -56 21 -66 0 -10 3 -22 7 -26 10 -10 34 -76 44 -123 5 -24 14 -64
20 -90 41 -189 47 -668 9 -758 -5 -11 -11 -36 -15 -55 -3 -19 -8 -50 -12 -68
-3 -18 -9 -35 -14 -38 -5 -3 -9 -13 -9 -22 0 -9 -7 -30 -15 -46 -8 -15 -15
-35 -15 -42 0 -8 -4 -22 -9 -32 -5 -9 -18 -37 -29 -62 -38 -87 -48 -105 -82
-163 -101 -169 -100 -167 -222 -307 -149 -172 -372 -332 -590 -424 -109 -45
-165 -66 -180 -66 -9 0 -19 -4 -22 -9 -3 -5 -20 -11 -38 -14 -18 -4 -58 -11
-88 -17 -269 -53 -588 -46 -850 20 -25 6 -58 14 -75 17 -16 3 -35 9 -40 14 -6
4 -46 19 -89 34 -124 42 -325 138 -461 220 -97 58 -269 176 -273 187 -2 4 -10
8 -17 8 -7 0 -15 3 -17 8 -1 4 -32 30 -68 57 -190 146 -422 354 -729 655 -42
41 -173 169 -290 284 l-213 208 55 57 c501 509 803 795 1000 944 28 21 72 55
97 76 25 20 77 59 115 86 39 27 72 53 73 57 2 4 7 8 12 8 5 0 44 25 88 55 44
30 82 55 85 55 2 0 44 24 93 53 112 67 316 166 404 197 19 7 44 16 55 21 31
13 136 46 175 54 19 4 40 11 45 15 6 4 28 11 50 14 22 4 67 11 100 17 33 5
107 14 164 19 57 5 106 12 110 16 7 7 163 -1 296 -16z m-4347 -2191 l321 -325
-276 -270 c-403 -393 -400 -391 -513 -494 -207 -190 -434 -382 -626 -528 -90
-69 -443 -306 -496 -333 -15 -8 -75 -41 -135 -75 -178 -100 -362 -181 -568
-251 -139 -47 -415 -116 -530 -132 -38 -5 -104 -15 -145 -21 -41 -7 -96 -14
-121 -17 l-46 -5 -6 218 c-4 121 -7 343 -7 495 l0 276 57 12 c31 6 76 11 100
11 24 0 63 4 86 9 23 5 80 17 126 26 224 46 646 214 793 316 14 11 28 19 31
19 8 0 196 121 272 175 138 97 347 260 424 330 31 28 74 66 96 85 114 96 288
263 545 522 157 158 288 286 291 285 3 -1 150 -149 327 -328z"/>
<path d="M3080 12895 c-25 -30 -44 -58 -43 -63 1 -5 61 -107 133 -227 72 -120
129 -219 127 -221 -2 -2 -112 43 -245 100 l-241 104 -46 -54 c-26 -30 -45 -58
-43 -63 4 -12 621 -601 628 -600 3 0 25 24 49 52 l44 52 -174 168 -174 168 70
-30 c39 -16 143 -61 232 -99 l162 -70 22 24 22 24 -126 210 c-69 115 -124 210
-121 210 3 0 83 -63 179 -140 96 -77 179 -140 184 -140 10 0 91 90 91 102 0 6
-676 549 -682 547 -2 0 -23 -25 -48 -54z"/>
<path d="M9452 12701 c-71 -28 -171 -109 -222 -179 -109 -149 -104 -286 15
-390 40 -35 111 -71 119 -60 1 1 17 26 34 55 l31 52 -44 21 c-121 59 -113 177
19 298 52 48 117 81 157 82 38 0 91 -40 114 -85 11 -22 21 -42 23 -44 5 -10
112 49 112 61 -1 54 -86 157 -155 189 -51 24 -145 24 -203 0z"/>
<path d="M9863 12348 c-15 -12 -30 -23 -32 -24 -2 -2 6 -15 18 -30 l21 -27
-175 -124 c-96 -69 -184 -138 -196 -154 -51 -72 -33 -157 49 -237 l55 -54 45
45 45 46 -36 40 c-42 46 -45 60 -19 89 21 24 299 222 311 222 5 0 26 -24 47
-52 21 -29 39 -55 41 -57 5 -7 103 63 103 74 -1 6 -18 35 -40 64 l-39 55 54
39 c30 21 55 42 55 47 0 4 -8 17 -17 28 -16 17 -34 21 -140 25 -113 6 -124 4
-150 -15z"/>
<path d="M2543 11664 c-77 -28 -143 -128 -143 -215 0 -80 77 -184 177 -236
129 -69 291 -95 374 -60 93 38 149 129 157 253 l4 72 -63 8 -64 9 -6 -68 c-8
-80 -27 -113 -77 -134 -33 -14 -116 -13 -130 2 -3 2 19 67 48 144 29 77 50
148 46 156 -3 9 -36 30 -72 47 -81 38 -184 47 -251 22z m169 -142 c7 -7 -43
-166 -57 -180 -6 -7 -50 20 -82 51 -42 40 -45 86 -7 124 23 23 31 25 81 20 31
-3 60 -10 65 -15z"/>
<path d="M2335 10996 c-90 -40 -124 -161 -70 -254 l24 -42 -22 5 c-44 9 -269
36 -273 33 -2 -2 -5 -35 -6 -73 l-3 -70 435 -57 c239 -31 445 -57 456 -57 19
-1 22 6 29 65 4 36 4 68 1 71 -3 3 -103 18 -223 34 -120 16 -231 34 -246 40
-40 17 -67 56 -67 98 1 83 21 87 292 51 288 -39 274 -39 282 8 6 38 8 102 3
102 -1 0 -106 14 -232 30 -250 33 -334 36 -380 16z"/>
<path d="M2078 10343 l-58 -4 0 -34 c0 -50 39 -478 45 -483 2 -2 33 -1 67 2
l64 7 -8 86 c-5 47 -6 88 -3 91 3 3 167 20 365 37 198 18 363 34 365 37 3 3 2
37 -1 77 l-7 71 -61 -6 c-34 -3 -199 -18 -368 -33 -337 -29 -318 -31 -318 33
0 49 -12 126 -19 124 -3 -1 -32 -3 -63 -5z"/>
</g>
</svg>
