<svg xmlns="http://www.w3.org/2000/svg" xmlns:xlink="http://www.w3.org/1999/xlink" width="500" zoomAndPan="magnify" viewBox="0 0 375 374.999991" height="500" preserveAspectRatio="xMidYMid meet" version="1.0"><defs><clipPath id="id1"><path d="M 189 67.421875 L 306.578125 67.421875 L 306.578125 307.421875 L 189 307.421875 Z M 189 67.421875 " clip-rule="nonzero"/></clipPath><clipPath id="id2"><path d="M 232 302 L 261 302 L 261 307.421875 L 232 307.421875 Z M 232 302 " clip-rule="nonzero"/></clipPath><clipPath id="id3"><path d="M 68.078125 69 L 190 69 L 190 302 L 68.078125 302 Z M 68.078125 69 " clip-rule="nonzero"/></clipPath><clipPath id="id4"><path d="M 68.078125 67.421875 L 293 67.421875 L 293 290 L 68.078125 290 Z M 68.078125 67.421875 " clip-rule="nonzero"/></clipPath><clipPath id="id5"><path d="M 72 107 L 306.578125 107 L 306.578125 299 L 72 299 Z M 72 107 " clip-rule="nonzero"/></clipPath><clipPath id="id6"><path d="M 232 302 L 261 302 L 261 307.421875 L 232 307.421875 Z M 232 302 " clip-rule="nonzero"/></clipPath><clipPath id="id7"><path d="M 276 293 L 297 293 L 297 307.421875 L 276 307.421875 Z M 276 293 " clip-rule="nonzero"/></clipPath></defs><path fill="#eaeaea" d="M 223.257812 250.730469 C 223.25 248.945312 223.097656 247.148438 222.824219 245.351562 L 234.242188 245.351562 C 235.851562 245.351562 237.15625 244.046875 237.15625 242.433594 L 237.15625 228.695312 C 236.285156 229.054688 235.332031 229.265625 234.328125 229.265625 C 230.238281 229.265625 226.921875 225.945312 226.921875 221.851562 C 226.921875 217.757812 230.238281 214.441406 234.328125 214.441406 C 235.332031 214.441406 236.285156 214.648438 237.15625 215.011719 L 237.15625 201.945312 C 237.15625 200.332031 235.851562 199.027344 234.242188 199.027344 L 220.257812 199.027344 C 220.816406 197.988281 221.132812 196.796875 221.132812 195.535156 C 221.132812 191.441406 217.816406 188.125 213.726562 188.125 C 209.636719 188.125 206.320312 191.441406 206.320312 195.535156 C 206.320312 196.796875 206.640625 197.988281 207.195312 199.027344 L 193.785156 199.027344 C 192.175781 199.027344 190.871094 200.332031 190.871094 201.945312 L 190.871094 219.664062 C 189.574219 219.417969 188.265625 219.242188 186.9375 219.164062 L 184.660156 212.671875 C 183.183594 212.679688 181.699219 212.789062 180.210938 212.976562 L 180.210938 192.285156 C 180.210938 190.675781 178.90625 189.367188 177.296875 189.367188 L 163.316406 189.367188 C 163.871094 188.328125 164.191406 187.140625 164.191406 185.875 C 164.191406 181.78125 160.875 178.464844 156.785156 178.464844 C 152.695312 178.464844 149.378906 181.78125 149.378906 185.875 C 149.378906 187.140625 149.695312 188.328125 150.253906 189.367188 L 136.839844 189.367188 C 135.230469 189.367188 133.925781 190.675781 133.925781 192.285156 L 133.925781 232.777344 C 133.925781 234.386719 135.230469 235.691406 136.839844 235.691406 L 149.84375 235.691406 C 149.511719 236.457031 149.195312 237.226562 148.914062 238.007812 L 154.265625 242.3125 C 153.644531 244.492188 153.253906 246.734375 153.117188 249.023438 L 146.628906 251.300781 C 146.644531 253.453125 146.851562 255.617188 147.242188 257.785156 L 154.019531 258.824219 C 154.296875 259.921875 154.628906 261.003906 155.03125 262.089844 C 155.429688 263.167969 155.882812 264.207031 156.382812 265.21875 L 151.910156 270.425781 C 153.023438 272.324219 154.273438 274.101562 155.660156 275.746094 L 162.070312 273.253906 C 163.660156 274.898438 165.417969 276.351562 167.304688 277.605469 L 166.035156 284.351562 C 167.925781 285.425781 169.90625 286.335938 171.949219 287.074219 L 176.242188 281.722656 C 178.425781 282.34375 180.667969 282.730469 182.953125 282.867188 L 185.230469 289.359375 C 187.378906 289.347656 189.542969 289.140625 191.707031 288.75 L 192.75 281.964844 C 193.84375 281.6875 194.925781 281.355469 196.003906 280.957031 C 197.085938 280.554688 198.125 280.101562 199.136719 279.601562 L 204.335938 284.074219 C 206.234375 282.960938 208.015625 281.710938 209.65625 280.324219 L 207.164062 273.910156 C 208.808594 272.316406 210.261719 270.558594 211.507812 268.671875 L 218.257812 269.9375 C 219.328125 268.046875 220.238281 266.066406 220.976562 264.019531 L 215.625 259.722656 C 216.242188 257.542969 216.632812 255.296875 216.773438 253.007812 Z M 190.660156 266.496094 C 182.125 269.65625 172.632812 265.289062 169.476562 256.742188 C 166.320312 248.191406 170.683594 238.695312 179.222656 235.535156 C 183.140625 234.085938 187.253906 234.222656 190.867188 235.617188 L 190.867188 242.433594 C 190.867188 244.046875 192.171875 245.351562 193.78125 245.351562 L 200.433594 245.351562 C 203.550781 253.882812 199.1875 263.34375 190.660156 266.496094 Z M 190.660156 266.496094 " fill-opacity="1" fill-rule="nonzero"/><g clip-path="url(#id1)"><path fill="#eaeaea" d="M 306.503906 212.417969 C 306.503906 212.414062 306.507812 212.40625 306.507812 212.402344 C 306.492188 211.984375 306.390625 210.878906 306.253906 209.503906 L 306.25 209.5 C 305.890625 205.871094 305.273438 200.328125 305.273438 200.324219 L 302.792969 178.089844 L 303.75 177.894531 C 302.675781 167.269531 302.347656 154.703125 302.160156 152.21875 C 301.90625 149.285156 301.660156 146.351562 301.292969 143.425781 C 300.949219 140.667969 299.191406 138.441406 296.84375 137.359375 C 296.847656 137.335938 296.847656 137.324219 296.847656 137.324219 C 291.402344 134.972656 286.082031 133.414062 280.8125 132.65625 L 280.898438 133.820312 L 280.144531 123.789062 L 280.164062 124.070312 C 281.660156 123.808594 287.546875 122.429688 286.878906 117.074219 C 286.878906 117.074219 291.515625 111.75 286.914062 107.597656 C 286.964844 102.785156 284.371094 100.449219 279.539062 100.214844 C 279.539062 100.214844 270.761719 99.464844 267.191406 99.203125 C 267.523438 98.214844 267.789062 97.199219 267.96875 96.160156 L 272.351562 95.152344 C 272.496094 93.753906 272.519531 92.328125 272.421875 90.894531 L 268.09375 89.722656 C 267.992188 88.992188 267.855469 88.265625 267.675781 87.535156 C 267.492188 86.800781 267.273438 86.09375 267.023438 85.398438 L 270.304688 82.339844 C 269.722656 81.027344 269.039062 79.777344 268.253906 78.609375 L 263.910156 79.765625 C 262.996094 78.578125 261.957031 77.507812 260.824219 76.558594 L 262.136719 72.261719 C 260.988281 71.425781 259.765625 70.691406 258.492188 70.0625 L 255.308594 73.230469 C 253.941406 72.671875 252.511719 72.25 251.035156 71.996094 L 250.027344 67.609375 C 248.628906 67.464844 247.207031 67.441406 245.773438 67.539062 L 244.605469 71.871094 C 243.871094 71.972656 243.144531 72.109375 242.410156 72.292969 C 241.683594 72.472656 240.976562 72.691406 240.28125 72.941406 L 237.226562 69.65625 C 235.914062 70.242188 234.664062 70.925781 233.5 71.710938 L 234.652344 76.058594 C 233.464844 76.972656 232.398438 78.011719 231.445312 79.148438 L 227.15625 77.832031 C 226.320312 78.984375 225.585938 80.203125 224.957031 81.480469 L 228.125 84.664062 C 227.5625 86.035156 227.144531 87.464844 226.890625 88.941406 L 222.507812 89.953125 C 222.363281 91.351562 222.339844 92.773438 222.4375 94.210938 L 226.765625 95.378906 C 226.867188 96.109375 227.003906 96.839844 227.183594 97.574219 C 227.367188 98.304688 227.582031 99.011719 227.835938 99.707031 L 226.378906 101.0625 L 220.371094 101.0625 C 220.917969 102.085938 221.230469 103.253906 221.230469 104.496094 C 221.230469 108.542969 217.949219 111.824219 213.90625 111.824219 C 209.859375 111.824219 206.582031 108.542969 206.582031 104.496094 C 206.582031 103.253906 206.894531 102.089844 207.4375 101.0625 L 192.675781 101.0625 C 191.078125 101.0625 189.78125 102.359375 189.78125 103.960938 L 189.78125 117.316406 C 190.832031 116.898438 192.003906 116.714844 193.234375 116.847656 C 196.785156 117.234375 199.585938 120.238281 199.710938 123.8125 C 199.859375 127.953125 196.550781 131.351562 192.449219 131.351562 C 191.503906 131.351562 190.605469 131.167969 189.78125 130.839844 L 189.78125 144.195312 C 189.78125 145.796875 191.078125 147.09375 192.675781 147.09375 L 197.957031 147.09375 C 197.914062 147.628906 198.285156 148.121094 199.128906 148.246094 C 199.410156 148.289062 199.761719 148.328125 200.160156 148.367188 C 199.863281 148.960938 200.082031 149.589844 200.949219 149.6875 C 201.324219 149.730469 201.890625 149.792969 202.558594 149.863281 C 202.722656 150.089844 202.96875 150.277344 203.316406 150.382812 C 204.84375 150.84375 207.769531 151.492188 208.894531 151.738281 C 209.199219 151.800781 209.5 151.847656 209.808594 151.871094 C 209.808594 151.871094 215.691406 152.363281 216.570312 152.410156 L 216.589844 152.410156 C 216.792969 152.417969 216.996094 152.425781 217.203125 152.425781 L 229.722656 175.101562 C 231.847656 178.597656 236.402344 179.707031 239.898438 177.578125 C 240.496094 177.214844 243.007812 174.640625 245.566406 171.945312 L 248.199219 175.640625 L 252.523438 165.875 L 252.636719 167.082031 C 252.648438 167.230469 252.773438 167.339844 252.917969 167.339844 C 252.925781 167.339844 252.933594 167.339844 252.945312 167.339844 C 252.957031 167.335938 252.96875 167.328125 252.984375 167.324219 C 253.207031 170.320312 253.34375 172.824219 253.34375 174.363281 C 253.34375 180.128906 252.46875 190.28125 252.46875 194.503906 C 252.46875 195.226562 252.816406 195.878906 253.355469 196.296875 L 253.1875 200.929688 C 253.203125 200.925781 253.222656 200.917969 253.242188 200.917969 C 253.054688 200.917969 252.902344 201.070312 252.902344 201.257812 C 252.902344 201.441406 253.054688 201.59375 253.242188 201.59375 C 253.210938 201.59375 253.1875 201.585938 253.160156 201.578125 L 251.667969 242.316406 L 249.710938 288.253906 L 250.011719 288.253906 C 249.792969 291.042969 249.382812 292.925781 248.761719 294.496094 C 251.8125 298.527344 255.804688 298.210938 258.460938 297.15625 C 255.804688 298.210938 251.8125 298.527344 248.761719 294.496094 C 246.773438 296.984375 241.5625 300.152344 237.527344 302.113281 L 239.28125 304.855469 L 260.320312 304.855469 C 260.375 302.6875 260.246094 299.523438 259.351562 296.761719 C 259.335938 294.152344 259.703125 290.65625 260 288.253906 L 261.148438 288.253906 C 263.636719 279.984375 269.417969 259.59375 266.597656 244.945312 L 272.765625 203.117188 L 269.09375 202.886719 L 274.292969 203.214844 C 274.300781 203.214844 274.308594 203.214844 274.316406 203.214844 C 274.316406 203.214844 274.320312 203.210938 274.324219 203.210938 L 276.917969 288.253906 L 277.558594 288.253906 C 277.554688 288.433594 277.546875 288.605469 277.546875 288.789062 C 277.546875 292.050781 277.355469 294.546875 277.195312 298.023438 C 277.183594 298.28125 277.171875 298.550781 277.160156 298.820312 C 277.15625 298.921875 277.152344 299.027344 277.148438 299.132812 C 277.144531 299.285156 277.136719 299.4375 277.132812 299.597656 C 277.125 299.765625 277.117188 299.9375 277.113281 300.109375 C 277.109375 300.210938 277.105469 300.308594 277.101562 300.410156 C 277.09375 300.617188 277.089844 300.828125 277.082031 301.042969 C 277.082031 301.101562 277.078125 301.164062 277.078125 301.226562 C 277.03125 302.742188 277 304.441406 276.992188 306.429688 C 276.988281 306.992188 277.445312 307.453125 278.007812 307.453125 L 295.828125 307.453125 C 296.449219 307.453125 296.933594 306.898438 296.832031 306.285156 C 296.457031 303.976562 294.972656 302.351562 293.28125 300.808594 C 293.28125 300.808594 293.285156 300.808594 293.285156 300.808594 C 293.222656 300.753906 293.160156 300.699219 293.101562 300.644531 C 292.589844 300.183594 292.066406 299.726562 291.550781 299.261719 C 291.429688 299.152344 291.308594 299.042969 291.191406 298.933594 C 291.0625 298.816406 290.9375 298.699219 290.8125 298.582031 C 290.683594 298.460938 290.558594 298.335938 290.433594 298.210938 C 290.320312 298.097656 290.207031 297.984375 290.097656 297.871094 C 289.96875 297.738281 289.847656 297.601562 289.726562 297.464844 C 289.625 297.351562 289.523438 297.238281 289.425781 297.125 C 289.300781 296.976562 289.183594 296.820312 289.066406 296.667969 C 288.980469 296.554688 288.894531 296.445312 288.8125 296.332031 C 288.6875 296.152344 288.574219 295.96875 288.460938 295.78125 C 288.398438 295.679688 288.332031 295.582031 288.273438 295.480469 C 288.113281 295.1875 287.964844 294.886719 287.832031 294.574219 C 287.832031 294.566406 287.828125 294.5625 287.828125 294.558594 C 287.773438 294.429688 287.730469 294.296875 287.683594 294.167969 C 286.960938 292.210938 286.84375 290.234375 286.917969 288.253906 L 288.335938 288.253906 C 289.289062 282.558594 291.09375 271.632812 291.957031 265.148438 C 293.164062 256.082031 291.375 242.753906 291.375 242.753906 L 292.183594 201.59375 C 292.1875 201.59375 292.1875 201.59375 292.191406 201.59375 C 292.375 201.59375 292.527344 201.441406 292.527344 201.257812 C 292.527344 201.070312 292.378906 200.925781 292.195312 200.921875 L 292.285156 196.40625 C 292.902344 195.996094 293.308594 195.300781 293.308594 194.519531 C 293.308594 192.609375 293.128906 189.46875 292.929688 186.074219 C 294.582031 191.976562 296.511719 198.859375 297.203125 201.332031 L 297.199219 201.332031 C 297.046875 201.378906 296.964844 201.535156 297.011719 201.6875 C 297.03125 201.75 297.074219 201.800781 297.125 201.835938 C 297.074219 201.914062 297.015625 201.996094 296.972656 202.078125 C 295.875 204.101562 295.664062 205.464844 295.980469 208.371094 C 295.878906 208.429688 295.828125 208.542969 295.847656 208.664062 C 295.796875 208.648438 295.746094 208.625 295.691406 208.617188 C 294.9375 208.527344 294.28125 209.132812 294.3125 209.890625 L 294.472656 213.855469 C 294.484375 214.226562 294.664062 214.566406 294.960938 214.789062 L 297.734375 216.890625 C 297.890625 217.160156 298.074219 217.402344 298.3125 217.585938 C 298.492188 217.730469 298.714844 217.804688 298.941406 217.804688 C 298.945312 217.804688 298.953125 217.800781 298.957031 217.800781 C 299.390625 218.097656 299.964844 218.09375 300.386719 217.773438 L 306.023438 213.519531 C 306.34375 213.273438 306.527344 212.890625 306.511719 212.484375 Z M 277.972656 298.183594 C 278.027344 298.1875 278.082031 298.1875 278.140625 298.1875 C 278.082031 298.1875 278.027344 298.1875 277.972656 298.183594 Z M 279.859375 297.421875 C 279.992188 297.3125 280.121094 297.1875 280.253906 297.046875 C 280.425781 296.867188 280.59375 296.695312 280.765625 296.527344 C 280.59375 296.695312 280.425781 296.867188 280.253906 297.046875 C 280.121094 297.1875 279.992188 297.3125 279.859375 297.421875 Z M 278.296875 298.171875 C 278.359375 298.167969 278.425781 298.15625 278.488281 298.144531 C 278.425781 298.15625 278.359375 298.167969 278.296875 298.171875 Z M 278.632812 298.113281 C 278.746094 298.082031 278.855469 298.046875 278.972656 297.996094 C 278.855469 298.046875 278.746094 298.082031 278.632812 298.113281 Z M 279.054688 297.957031 C 279.152344 297.910156 279.246094 297.859375 279.34375 297.800781 C 279.246094 297.859375 279.152344 297.910156 279.054688 297.957031 Z M 279.46875 297.71875 C 279.558594 297.660156 279.652344 297.59375 279.742188 297.519531 C 279.652344 297.59375 279.558594 297.660156 279.46875 297.71875 Z M 285.792969 293.910156 C 285.476562 293.925781 285.160156 293.972656 284.84375 294.046875 C 284.664062 294.085938 284.484375 294.140625 284.304688 294.203125 C 285.109375 293.929688 285.921875 293.835938 286.738281 293.949219 C 286.421875 293.90625 286.109375 293.894531 285.792969 293.910156 Z M 280.921875 296.378906 C 281.042969 296.265625 281.164062 296.152344 281.285156 296.046875 C 281.164062 296.152344 281.042969 296.265625 280.921875 296.378906 Z M 281.464844 295.890625 C 281.585938 295.789062 281.707031 295.6875 281.828125 295.59375 C 281.707031 295.6875 281.585938 295.789062 281.464844 295.890625 Z M 281.988281 295.46875 C 282.339844 295.203125 282.6875 294.96875 283.042969 294.769531 C 282.691406 294.96875 282.339844 295.203125 281.988281 295.46875 Z M 283.203125 294.683594 C 283.328125 294.617188 283.453125 294.550781 283.582031 294.492188 C 283.457031 294.550781 283.328125 294.617188 283.203125 294.683594 Z M 283.761719 294.410156 C 283.890625 294.355469 284.015625 294.304688 284.144531 294.261719 C 284.015625 294.304688 283.890625 294.355469 283.761719 294.410156 Z M 287.210938 294.035156 C 287.066406 294.003906 286.925781 293.976562 286.785156 293.957031 C 286.925781 293.976562 287.066406 294.003906 287.210938 294.035156 Z M 287.765625 197.304688 C 287.578125 197.328125 287.390625 197.355469 287.203125 197.378906 C 287.667969 197.320312 288.132812 197.257812 288.59375 197.195312 C 288.320312 197.230469 288.042969 197.269531 287.769531 197.308594 C 287.765625 197.308594 287.765625 197.304688 287.765625 197.304688 Z M 289.316406 197.09375 C 290.019531 196.992188 290.714844 196.882812 291.402344 196.765625 C 290.714844 196.882812 290.019531 196.992188 289.316406 197.09375 Z M 286.308594 197.484375 C 285.894531 197.53125 285.480469 197.578125 285.0625 197.621094 C 285.480469 197.578125 285.894531 197.53125 286.308594 197.484375 Z M 284.066406 197.71875 C 283.683594 197.753906 283.296875 197.789062 282.910156 197.820312 C 283.296875 197.789062 283.683594 197.753906 284.066406 197.71875 Z M 281.832031 197.90625 C 281.472656 197.933594 281.109375 197.957031 280.75 197.980469 C 281.109375 197.957031 281.472656 197.933594 281.832031 197.90625 Z M 279.59375 198.046875 C 279.261719 198.066406 278.933594 198.082031 278.601562 198.09375 C 278.929688 198.082031 279.261719 198.066406 279.59375 198.046875 Z M 244.835938 82.074219 C 250.617188 80.640625 256.464844 84.171875 257.898438 89.957031 C 259.328125 95.738281 255.804688 101.59375 250.019531 103.027344 C 244.242188 104.460938 238.394531 100.929688 236.960938 95.148438 C 235.53125 89.363281 239.054688 83.507812 244.835938 82.074219 Z M 251.722656 136.695312 C 251.714844 136.699219 251.707031 136.703125 251.699219 136.707031 C 249.859375 137.34375 248.273438 138.699219 247.390625 140.617188 L 236.667969 159.472656 L 243.671875 169.292969 L 237.179688 160.1875 L 236.667969 160.703125 L 226.1875 147.09375 L 232.878906 147.09375 C 234.476562 147.09375 235.773438 145.796875 235.773438 144.195312 L 235.773438 114.734375 C 235.96875 114.835938 236.167969 114.941406 236.367188 115.042969 L 239.546875 111.875 C 240.917969 112.433594 242.347656 112.851562 243.824219 113.105469 L 244.832031 117.492188 C 246.230469 117.640625 247.652344 117.660156 249.085938 117.566406 L 250.253906 113.230469 C 250.988281 113.128906 251.714844 112.992188 252.445312 112.8125 C 253.175781 112.628906 253.882812 112.414062 254.578125 112.160156 L 257.632812 115.445312 C 258.945312 114.859375 260.195312 114.175781 261.359375 113.394531 L 260.207031 109.042969 C 261.394531 108.128906 262.464844 107.09375 263.410156 105.957031 L 263.625 106.019531 C 263.683594 106.230469 263.761719 106.417969 263.855469 106.585938 C 263.234375 107.816406 262.832031 109.179688 262.710938 110.632812 C 262.554688 112.53125 262.890625 114.355469 263.609375 115.980469 C 263.597656 116.277344 263.59375 116.441406 263.59375 116.441406 L 263.699219 122.523438 C 263.746094 125.273438 265.109375 127.757812 267.199219 129.269531 L 267.167969 132.496094 C 262.0625 133.121094 256.9375 134.515625 251.722656 136.695312 Z M 265.101562 107.554688 C 265.015625 107.816406 264.9375 108.078125 264.863281 108.335938 C 264.9375 108.078125 265.015625 107.816406 265.101562 107.554688 Z M 264.796875 108.578125 C 264.746094 108.753906 264.695312 108.933594 264.652344 109.113281 C 264.695312 108.933594 264.746094 108.753906 264.796875 108.578125 Z M 264.582031 109.378906 C 264.539062 109.554688 264.496094 109.726562 264.457031 109.898438 C 264.496094 109.726562 264.539062 109.554688 264.582031 109.378906 Z M 264.402344 110.136719 C 264.355469 110.355469 264.308594 110.574219 264.265625 110.789062 C 264.308594 110.574219 264.355469 110.355469 264.402344 110.136719 Z M 264.246094 110.863281 C 264.199219 111.105469 264.15625 111.34375 264.113281 111.574219 C 264.15625 111.34375 264.199219 111.105469 264.246094 110.863281 Z M 264.082031 111.765625 C 264.050781 111.933594 264.023438 112.097656 264 112.257812 C 264.023438 112.097656 264.050781 111.933594 264.082031 111.765625 Z M 263.964844 112.480469 C 263.941406 112.632812 263.921875 112.78125 263.898438 112.921875 C 263.921875 112.78125 263.941406 112.632812 263.964844 112.480469 Z M 263.875 113.121094 C 263.851562 113.292969 263.828125 113.460938 263.808594 113.621094 C 263.828125 113.460938 263.851562 113.292969 263.875 113.121094 Z M 263.800781 113.710938 C 263.777344 113.902344 263.757812 114.085938 263.738281 114.257812 C 263.757812 114.085938 263.777344 113.902344 263.800781 113.710938 Z M 263.726562 114.402344 C 263.714844 114.523438 263.703125 114.640625 263.691406 114.753906 C 263.703125 114.640625 263.714844 114.523438 263.726562 114.402344 Z M 263.679688 114.929688 C 263.671875 115.023438 263.664062 115.109375 263.65625 115.195312 C 263.664062 115.109375 263.671875 115.023438 263.679688 114.929688 Z M 263.644531 115.359375 C 263.640625 115.4375 263.636719 115.507812 263.632812 115.578125 C 263.636719 115.507812 263.640625 115.4375 263.644531 115.359375 Z M 263.621094 115.722656 C 263.621094 115.761719 263.617188 115.796875 263.617188 115.832031 C 263.621094 115.796875 263.621094 115.761719 263.621094 115.722656 Z M 258.378906 197.316406 C 258.347656 197.3125 258.320312 197.308594 258.289062 197.304688 C 258.304688 197.304688 258.320312 197.308594 258.339844 197.308594 C 258.351562 197.3125 258.367188 197.3125 258.378906 197.316406 Z M 253.921875 196.617188 C 253.859375 196.589844 253.796875 196.5625 253.738281 196.53125 C 253.796875 196.5625 253.855469 196.589844 253.921875 196.617188 Z M 254.394531 196.75 C 254.273438 196.730469 254.160156 196.699219 254.046875 196.664062 C 254.160156 196.699219 254.273438 196.730469 254.394531 196.75 Z M 260.21875 197.527344 C 260.285156 197.535156 260.351562 197.542969 260.417969 197.550781 C 260.351562 197.542969 260.285156 197.535156 260.21875 197.527344 Z M 266.539062 198.039062 C 266.625 198.042969 266.707031 198.046875 266.792969 198.050781 C 266.707031 198.046875 266.625 198.042969 266.539062 198.039062 Z M 262.273438 197.730469 C 262.367188 197.738281 262.464844 197.746094 262.558594 197.753906 C 262.464844 197.746094 262.367188 197.738281 262.273438 197.730469 Z M 264.390625 197.902344 C 264.492188 197.910156 264.59375 197.914062 264.695312 197.921875 C 264.59375 197.914062 264.492188 197.910156 264.390625 197.902344 Z M 274.546875 203.121094 C 274.554688 203.113281 274.554688 203.105469 274.5625 203.101562 C 274.558594 203.105469 274.554688 203.113281 274.546875 203.121094 Z M 274.621094 203.023438 C 274.636719 202.984375 274.648438 202.941406 274.652344 202.898438 C 274.648438 202.941406 274.636719 202.984375 274.621094 203.023438 Z M 276.519531 198.171875 C 276.792969 198.164062 277.070312 198.15625 277.34375 198.148438 C 277.070312 198.15625 276.792969 198.164062 276.519531 198.171875 Z M 274.761719 198.207031 C 274.871094 198.207031 274.976562 198.207031 275.085938 198.203125 C 274.976562 198.207031 274.871094 198.207031 274.761719 198.207031 Z M 287.21875 197.730469 C 287.167969 197.617188 287.125 197.503906 287.082031 197.394531 C 287.125 197.503906 287.167969 197.617188 287.21875 197.730469 Z M 288.207031 199.488281 C 288.207031 199.488281 288.207031 199.488281 288.207031 199.484375 C 288.207031 199.488281 288.207031 199.488281 288.207031 199.488281 Z M 287.546875 198.429688 C 287.542969 198.417969 287.535156 198.410156 287.53125 198.398438 C 287.535156 198.410156 287.542969 198.417969 287.546875 198.429688 Z M 291.859375 196.632812 C 291.871094 196.628906 291.878906 196.625 291.890625 196.621094 C 291.878906 196.625 291.871094 196.628906 291.859375 196.632812 Z M 292.765625 183.148438 C 292.789062 183.574219 292.8125 184.003906 292.835938 184.429688 C 292.8125 184.003906 292.789062 183.574219 292.765625 183.148438 Z M 292.605469 180.125 C 292.625 180.558594 292.648438 181 292.671875 181.441406 C 292.648438 181 292.625 180.558594 292.605469 180.125 Z M 292.691406 181.820312 C 292.710938 182.199219 292.734375 182.574219 292.753906 182.957031 C 292.734375 182.574219 292.710938 182.199219 292.691406 181.820312 Z M 292.875 185.078125 C 292.882812 185.222656 292.890625 185.371094 292.898438 185.515625 C 292.890625 185.371094 292.882812 185.222656 292.875 185.078125 Z M 292.875 185.078125 " fill-opacity="1" fill-rule="nonzero"/></g><g clip-path="url(#id2)"><path fill="#eaeaea" d="M 232.628906 306.304688 C 232.550781 306.914062 233.027344 307.453125 233.640625 307.453125 L 259.234375 307.453125 C 259.765625 307.453125 260.207031 307.042969 260.246094 306.515625 C 260.277344 306.082031 260.308594 305.511719 260.324219 304.855469 L 239.28125 304.855469 L 237.527344 302.113281 C 236.914062 302.410156 236.324219 302.683594 235.78125 302.917969 C 233.386719 303.957031 232.785156 305.152344 232.628906 306.304688 Z M 232.628906 306.304688 " fill-opacity="1" fill-rule="nonzero"/></g><g clip-path="url(#id3)"><path fill="#eaeaea" d="M 133.429688 172.0625 C 133.429688 173.65625 134.71875 174.949219 136.3125 174.949219 L 149.046875 174.949219 C 148.707031 174.097656 148.511719 173.167969 148.511719 172.191406 C 148.511719 168.101562 151.828125 164.78125 155.917969 164.78125 C 160.007812 164.78125 163.324219 168.101562 163.324219 172.191406 C 163.324219 173.167969 163.132812 174.097656 162.789062 174.949219 L 176.316406 174.949219 C 177.90625 174.949219 179.199219 173.65625 179.199219 172.0625 L 179.199219 158.226562 C 180.226562 158.777344 181.398438 159.09375 182.648438 159.09375 C 186.691406 159.09375 189.972656 155.8125 189.972656 151.765625 C 189.972656 147.714844 186.691406 144.433594 182.648438 144.433594 C 181.398438 144.433594 180.226562 144.75 179.199219 145.300781 L 179.199219 132.027344 C 179.199219 130.433594 177.90625 129.144531 176.316406 129.144531 L 150.589844 129.144531 C 150.605469 129.070312 150.625 128.992188 150.640625 128.921875 L 151.707031 126.992188 C 152.023438 126.304688 151.65625 125.496094 150.929688 125.273438 C 150.429688 125.121094 149.929688 125.304688 149.617188 125.683594 C 149.570312 125.113281 149.167969 124.597656 148.566406 124.453125 C 147.886719 124.285156 147.234375 124.664062 146.964844 125.292969 C 146.996094 124.5625 146.449219 123.914062 145.695312 123.847656 C 144.90625 123.777344 144.253906 124.382812 144.175781 125.171875 C 144.171875 125.222656 144.167969 125.289062 144.164062 125.363281 L 143.257812 125.28125 C 143.027344 124.664062 142.386719 124.261719 141.699219 124.390625 C 141.28125 124.46875 140.957031 124.722656 140.765625 125.0625 L 140.605469 125.046875 C 140.605469 125.046875 140.34375 126.566406 140.019531 128.9375 C 139.757812 128.453125 139.433594 127.828125 139.121094 127.160156 C 138.742188 126.347656 138.3125 125.769531 137.890625 125.367188 C 138.226562 124.769531 138.554688 124.160156 138.859375 123.542969 L 136.183594 120.847656 C 136.710938 118.136719 137.378906 115.738281 137.628906 112.0625 L 142.503906 110.941406 C 142.722656 108.859375 142.753906 106.746094 142.613281 104.609375 L 136.171875 102.871094 C 136.023438 101.78125 135.820312 100.699219 135.550781 99.613281 C 135.28125 98.519531 134.957031 97.46875 134.578125 96.433594 L 139.460938 91.890625 C 138.59375 89.933594 137.578125 88.078125 136.414062 86.339844 L 129.949219 88.054688 C 128.589844 86.292969 127.046875 84.699219 125.363281 83.289062 L 127.316406 76.898438 C 125.605469 75.65625 123.789062 74.5625 121.894531 73.628906 L 117.160156 78.339844 C 115.125 77.507812 113 76.882812 110.804688 76.503906 L 109.304688 69.984375 C 107.226562 69.765625 105.113281 69.734375 102.976562 69.878906 L 101.238281 76.320312 C 100.152344 76.472656 99.070312 76.675781 97.980469 76.945312 C 96.894531 77.214844 95.84375 77.539062 94.808594 77.914062 L 90.265625 73.027344 C 88.3125 73.898438 86.457031 74.917969 84.722656 76.082031 L 86.4375 82.546875 C 84.675781 83.910156 83.085938 85.457031 81.667969 87.144531 L 75.289062 85.1875 C 74.050781 86.898438 72.957031 88.714844 72.019531 90.613281 L 76.730469 95.351562 C 75.894531 97.386719 75.273438 99.515625 74.894531 101.710938 L 68.378906 103.210938 C 68.160156 105.289062 68.128906 107.40625 68.269531 109.542969 L 74.710938 111.28125 C 74.859375 112.371094 75.0625 113.453125 75.335938 114.542969 C 75.601562 115.628906 75.925781 116.683594 76.300781 117.714844 L 71.417969 122.261719 C 72.289062 124.21875 73.304688 126.074219 74.46875 127.8125 L 80.929688 126.09375 C 82.292969 127.859375 83.832031 129.453125 85.523438 130.871094 L 83.566406 137.253906 C 84.6875 138.066406 85.855469 138.808594 87.054688 139.488281 C 81.917969 148.820312 79.839844 161.191406 88.503906 169.285156 C 88.765625 169.03125 89.011719 168.800781 89.230469 168.597656 C 89.484375 168.820312 89.777344 169 90.109375 169.121094 C 90.21875 169.160156 90.335938 169.199219 90.445312 169.238281 L 88.671875 169.453125 C 88.613281 169.398438 88.5625 169.339844 88.503906 169.285156 C 84.902344 172.761719 77.488281 181.191406 77.488281 191.617188 L 78.046875 221.179688 C 78.109375 225.261719 77.429688 229.320312 76.027344 233.15625 C 70.160156 249.171875 71.265625 274.949219 71.265625 286.132812 L 72.257812 286.132812 C 72.257812 287.601562 72.246094 289.238281 72.210938 290.933594 C 72.210938 290.933594 72.210938 290.933594 72.210938 290.9375 C 72.210938 290.933594 72.210938 290.933594 72.210938 290.933594 C 71.792969 294.054688 71.25 296.371094 71.179688 299.335938 L 71.121094 299.335938 C 70.964844 299.335938 70.839844 299.460938 70.839844 299.617188 C 70.839844 299.773438 70.964844 299.898438 71.121094 299.898438 L 71.175781 299.898438 C 71.171875 300.546875 71.191406 301.226562 71.242188 301.957031 L 87.652344 301.957031 C 87.621094 301.042969 87.40625 300.289062 87.074219 299.632812 C 87.074219 299.628906 87.078125 299.621094 87.078125 299.617188 C 87.078125 299.515625 87.023438 299.429688 86.941406 299.382812 C 85.292969 296.472656 81.335938 295.542969 81.308594 291.074219 C 81.25 290.714844 81.148438 290.425781 81.007812 290.191406 C 81.074219 290.304688 81.136719 290.429688 81.183594 290.570312 C 81.210938 289.179688 81.316406 287.628906 81.457031 286.132812 L 82.582031 286.132812 L 94.878906 232.925781 L 96.355469 222.828125 C 96.363281 222.890625 96.367188 222.949219 96.371094 223.011719 L 95.648438 228.496094 C 95.625 228.679688 95.753906 228.851562 95.9375 228.875 C 95.953125 228.878906 95.96875 228.878906 95.984375 228.878906 C 96.148438 228.878906 96.292969 228.753906 96.316406 228.585938 L 101.050781 192.691406 L 96.542969 226.878906 C 96.511719 229.011719 96.269531 231.117188 95.808594 233.15625 C 92.203125 249.171875 95.691406 274.949219 97.265625 286.132812 L 97.847656 286.132812 C 97.878906 288.125 97.757812 290.074219 97.359375 291.804688 C 97.359375 291.8125 96.179688 294.882812 96.261719 299.335938 C 96.109375 299.335938 95.984375 299.460938 95.984375 299.617188 C 95.984375 299.773438 96.109375 299.898438 96.265625 299.898438 L 96.277344 299.898438 C 96.304688 300.5625 96.359375 301.25 96.453125 301.960938 L 124.183594 301.957031 C 124.183594 301.957031 124.402344 300.980469 123.875 299.867188 C 123.964844 299.820312 124.03125 299.726562 124.03125 299.617188 C 124.03125 299.460938 123.90625 299.332031 123.75 299.332031 L 123.5625 299.332031 C 123.101562 298.667969 122.339844 298.003906 121.066406 297.5 C 117.652344 296.160156 113.285156 295.121094 108.34375 289.761719 C 104.144531 294.09375 97.996094 292.03125 97.410156 291.820312 C 97.996094 292.03125 104.109375 294.078125 108.308594 289.796875 C 108.230469 288.699219 108.210938 287.445312 108.222656 286.132812 L 108.582031 286.132812 L 113.457031 232.925781 L 112.316406 186.699219 L 112.316406 171.148438 C 112.6875 171.015625 113.015625 170.808594 113.296875 170.542969 C 115.050781 171.4375 117.238281 171.273438 118.855469 169.945312 L 138.925781 153.484375 L 133.429688 157.992188 Z M 80.648438 289.777344 C 80.601562 289.738281 80.554688 289.695312 80.5 289.664062 C 80.554688 289.695312 80.601562 289.738281 80.648438 289.777344 Z M 80.347656 289.585938 C 80.292969 289.558594 80.238281 289.53125 80.183594 289.507812 C 80.238281 289.53125 80.292969 289.558594 80.347656 289.585938 Z M 80.011719 289.460938 C 79.949219 289.445312 79.890625 289.429688 79.828125 289.421875 C 79.890625 289.429688 79.949219 289.445312 80.011719 289.460938 Z M 79.640625 289.402344 C 79.574219 289.394531 79.511719 289.390625 79.441406 289.390625 C 79.511719 289.390625 79.574219 289.394531 79.640625 289.402344 Z M 79.242188 289.398438 C 79.171875 289.402344 79.105469 289.40625 79.03125 289.414062 C 79.105469 289.40625 79.171875 289.402344 79.242188 289.398438 Z M 78.824219 289.445312 C 78.75 289.457031 78.675781 289.472656 78.601562 289.488281 C 78.675781 289.472656 78.75 289.457031 78.824219 289.445312 Z M 78.386719 289.539062 C 78.3125 289.558594 78.234375 289.578125 78.15625 289.601562 C 78.234375 289.578125 78.3125 289.558594 78.386719 289.539062 Z M 77.941406 289.667969 C 77.863281 289.695312 77.78125 289.722656 77.699219 289.753906 C 77.78125 289.722656 77.863281 289.695312 77.941406 289.667969 Z M 77.488281 289.832031 C 77.40625 289.863281 77.324219 289.898438 77.242188 289.933594 C 77.324219 289.898438 77.40625 289.867188 77.488281 289.832031 Z M 77.035156 290.023438 C 76.949219 290.0625 76.867188 290.101562 76.78125 290.140625 C 76.867188 290.101562 76.949219 290.0625 77.035156 290.023438 Z M 76.585938 290.234375 C 76.496094 290.277344 76.410156 290.324219 76.324219 290.367188 C 76.410156 290.324219 76.496094 290.277344 76.585938 290.234375 Z M 76.144531 290.460938 C 76.046875 290.511719 75.953125 290.566406 75.859375 290.621094 C 75.953125 290.566406 76.046875 290.511719 76.144531 290.460938 Z M 75.722656 290.695312 C 75.585938 290.773438 75.449219 290.855469 75.320312 290.933594 C 75.449219 290.855469 75.585938 290.773438 75.722656 290.695312 Z M 80.777344 289.890625 C 80.828125 289.9375 80.867188 290 80.910156 290.058594 C 80.867188 290 80.828125 289.9375 80.777344 289.890625 Z M 136.289062 129.144531 C 136.007812 129.148438 135.742188 129.203125 135.484375 129.277344 C 135.480469 129.164062 135.480469 129.046875 135.476562 128.933594 L 135.59375 128.96875 C 135.789062 128.699219 135.976562 128.421875 136.164062 128.144531 C 136.203125 128.472656 136.242188 128.804688 136.289062 129.144531 Z M 116.410156 137.886719 C 116.371094 137.847656 116.332031 137.808594 116.296875 137.769531 C 116.332031 137.808594 116.371094 137.847656 116.410156 137.886719 Z M 96.699219 170.941406 C 96.652344 170.933594 96.601562 170.921875 96.554688 170.914062 C 96.601562 170.921875 96.652344 170.933594 96.699219 170.941406 Z M 95.355469 170.65625 C 95.328125 170.652344 95.296875 170.644531 95.265625 170.636719 C 95.296875 170.644531 95.328125 170.652344 95.355469 170.65625 Z M 94.050781 170.339844 C 94.035156 170.335938 94.019531 170.332031 94.007812 170.328125 C 94.023438 170.332031 94.035156 170.335938 94.050781 170.339844 Z M 98.082031 171.191406 C 98.011719 171.179688 97.941406 171.167969 97.871094 171.15625 C 97.941406 171.167969 98.011719 171.179688 98.082031 171.191406 Z M 103.882812 171.773438 C 103.707031 171.765625 103.535156 171.765625 103.363281 171.757812 C 103.535156 171.765625 103.707031 171.765625 103.882812 171.773438 Z M 102.40625 171.695312 C 102.257812 171.6875 102.109375 171.679688 101.960938 171.667969 C 102.109375 171.679688 102.257812 171.6875 102.40625 171.695312 Z M 100.945312 171.570312 C 100.824219 171.558594 100.699219 171.550781 100.578125 171.535156 C 100.699219 171.550781 100.824219 171.558594 100.945312 171.570312 Z M 99.496094 171.402344 C 99.402344 171.390625 99.308594 171.378906 99.214844 171.363281 C 99.308594 171.378906 99.402344 171.390625 99.496094 171.402344 Z M 104.773438 171.800781 C 104.976562 171.804688 105.175781 171.800781 105.375 171.800781 C 105.175781 171.800781 104.976562 171.804688 104.773438 171.800781 Z M 116.980469 138.507812 C 117.015625 138.546875 117.046875 138.582031 117.082031 138.621094 C 117.046875 138.582031 117.015625 138.546875 116.980469 138.507812 Z M 117.695312 139.398438 C 117.847656 139.492188 118 139.589844 118.148438 139.699219 C 118 139.589844 117.847656 139.492188 117.695312 139.398438 Z M 101.582031 91.496094 C 108.5625 89.765625 115.613281 92.902344 119.15625 98.75 C 119.003906 98.78125 118.855469 98.804688 118.699219 98.839844 C 109.65625 100.484375 104.417969 100.203125 102.613281 110.542969 C 101.578125 116.457031 101.859375 119.417969 100.621094 122.386719 C 95.472656 120.757812 91.265625 116.566406 89.875 110.941406 C 87.742188 102.335938 92.988281 93.628906 101.582031 91.496094 Z M 88.351562 165.902344 C 88.316406 166.054688 88.296875 166.207031 88.289062 166.363281 C 88.296875 166.207031 88.316406 166.054688 88.351562 165.902344 Z M 88.289062 166.496094 C 88.285156 166.609375 88.292969 166.71875 88.304688 166.828125 C 88.292969 166.71875 88.285156 166.609375 88.289062 166.496094 Z M 88.421875 167.386719 C 88.375 167.25 88.34375 167.105469 88.320312 166.960938 C 88.34375 167.105469 88.375 167.25 88.421875 167.386719 Z M 88.4375 167.421875 C 88.480469 167.546875 88.535156 167.671875 88.597656 167.789062 C 88.535156 167.671875 88.480469 167.546875 88.4375 167.421875 Z M 88.929688 168.289062 C 89.023438 168.398438 89.121094 168.503906 89.230469 168.597656 C 89.121094 168.503906 89.023438 168.398438 88.929688 168.289062 Z M 88.671875 167.917969 C 88.722656 168.003906 88.78125 168.089844 88.839844 168.171875 C 88.777344 168.089844 88.722656 168.003906 88.671875 167.917969 Z M 92.800781 169.996094 C 92.792969 169.996094 92.789062 169.996094 92.78125 169.992188 C 92.789062 169.996094 92.792969 169.996094 92.800781 169.996094 Z M 107.621094 171.746094 C 107.878906 171.730469 108.132812 171.707031 108.390625 171.6875 C 108.132812 171.707031 107.878906 171.730469 107.621094 171.746094 Z M 106.195312 171.796875 C 106.421875 171.792969 106.648438 171.78125 106.878906 171.773438 C 106.648438 171.78125 106.421875 171.792969 106.195312 171.796875 Z M 110.472656 171.480469 C 110.945312 171.417969 111.414062 171.347656 111.886719 171.265625 C 111.414062 171.347656 110.945312 171.417969 110.472656 171.480469 Z M 109.046875 171.640625 C 109.351562 171.613281 109.652344 171.574219 109.953125 171.539062 C 109.652344 171.574219 109.351562 171.613281 109.046875 171.640625 Z M 117.804688 157.792969 C 117.949219 157.296875 118.089844 156.800781 118.226562 156.308594 L 119.082031 156.941406 Z M 133.363281 147.421875 C 133.386719 147.277344 133.40625 147.136719 133.429688 146.996094 L 133.429688 147.378906 L 134.925781 146.382812 Z M 133.363281 147.421875 " fill-opacity="1" fill-rule="nonzero"/></g><g clip-path="url(#id4)"><path fill="#eaeaea" d="M 94.8125 77.914062 L 90.269531 73.027344 C 88.3125 73.898438 86.460938 74.914062 84.722656 76.082031 L 86.4375 82.546875 C 84.675781 83.910156 83.085938 85.457031 81.667969 87.144531 L 75.289062 85.1875 C 74.050781 86.898438 72.957031 88.714844 72.019531 90.609375 L 76.730469 95.347656 C 75.894531 97.386719 75.273438 99.511719 74.894531 101.710938 L 68.378906 103.210938 C 68.160156 105.289062 68.128906 107.40625 68.269531 109.542969 L 74.710938 111.28125 C 74.859375 112.371094 75.0625 113.453125 75.335938 114.542969 C 75.601562 115.628906 75.925781 116.683594 76.300781 117.714844 L 71.417969 122.261719 C 72.289062 124.21875 73.304688 126.074219 74.46875 127.8125 L 80.929688 126.09375 C 82.292969 127.859375 83.832031 129.453125 85.523438 130.871094 L 83.566406 137.253906 C 85.277344 138.496094 87.09375 139.589844 88.988281 140.523438 L 93.714844 135.8125 C 95.757812 136.648438 97.882812 137.269531 100.078125 137.648438 L 101.578125 144.167969 C 103.65625 144.386719 105.769531 144.421875 107.902344 144.277344 L 109.640625 137.832031 C 110.730469 137.683594 111.8125 137.480469 112.898438 137.210938 C 113.988281 136.941406 115.039062 136.617188 116.070312 136.238281 L 120.613281 141.125 C 122.566406 140.253906 124.421875 139.238281 126.160156 138.074219 L 124.445312 131.605469 C 126.207031 130.246094 127.796875 128.703125 129.207031 127.011719 L 135.59375 128.96875 C 136.832031 127.253906 137.925781 125.441406 138.859375 123.542969 L 134.15625 118.8125 C 134.984375 116.769531 135.605469 114.640625 135.988281 112.445312 L 142.503906 110.945312 C 142.722656 108.863281 142.753906 106.746094 142.613281 104.613281 L 136.171875 102.871094 C 136.023438 101.78125 135.816406 100.699219 135.550781 99.617188 C 135.28125 98.523438 134.957031 97.472656 134.578125 96.4375 L 139.460938 91.890625 C 138.59375 89.9375 137.578125 88.082031 136.414062 86.34375 L 129.949219 88.058594 C 128.589844 86.296875 127.046875 84.703125 125.363281 83.292969 L 127.316406 76.902344 C 125.605469 75.660156 123.789062 74.566406 121.894531 73.628906 L 117.160156 78.34375 C 115.125 77.511719 113 76.886719 110.804688 76.507812 L 109.304688 69.984375 C 107.226562 69.765625 105.113281 69.734375 102.976562 69.878906 L 101.238281 76.320312 C 100.152344 76.472656 99.070312 76.675781 97.980469 76.945312 C 96.894531 77.214844 95.84375 77.539062 94.8125 77.914062 Z M 101.582031 91.496094 C 110.179688 89.367188 118.878906 94.613281 121.011719 103.21875 C 123.136719 111.820312 117.894531 120.527344 109.296875 122.660156 C 100.703125 124.789062 92.003906 119.539062 89.875 110.941406 C 87.742188 102.335938 92.988281 93.628906 101.582031 91.496094 Z M 240.28125 72.941406 L 237.226562 69.65625 C 235.914062 70.242188 234.664062 70.925781 233.5 71.707031 L 234.652344 76.058594 C 233.464844 76.972656 232.398438 78.011719 231.445312 79.148438 L 227.15625 77.832031 C 226.320312 78.980469 225.585938 80.203125 224.957031 81.476562 L 228.125 84.664062 C 227.5625 86.035156 227.144531 87.464844 226.890625 88.941406 L 222.507812 89.953125 C 222.363281 91.351562 222.339844 92.773438 222.4375 94.207031 L 226.765625 95.378906 C 226.867188 96.109375 227.003906 96.839844 227.1875 97.570312 C 227.367188 98.300781 227.585938 99.007812 227.835938 99.703125 L 224.554688 102.761719 C 225.140625 104.078125 225.820312 105.324219 226.605469 106.492188 L 230.949219 105.339844 C 231.863281 106.523438 232.898438 107.597656 234.035156 108.546875 L 232.722656 112.839844 C 233.871094 113.675781 235.09375 114.410156 236.367188 115.039062 L 239.546875 111.875 C 240.917969 112.433594 242.347656 112.851562 243.824219 113.105469 L 244.832031 117.492188 C 246.230469 117.636719 247.652344 117.660156 249.085938 117.5625 L 250.253906 113.230469 C 250.988281 113.128906 251.714844 112.992188 252.445312 112.8125 C 253.175781 112.628906 253.882812 112.414062 254.578125 112.160156 L 257.632812 115.445312 C 258.949219 114.859375 260.195312 114.175781 261.363281 113.394531 L 260.207031 109.042969 C 261.394531 108.128906 262.464844 107.09375 263.410156 105.957031 L 267.707031 107.269531 C 268.539062 106.117188 269.273438 104.898438 269.902344 103.621094 L 266.738281 100.441406 C 267.296875 99.066406 267.714844 97.636719 267.96875 96.160156 L 272.351562 95.148438 C 272.5 93.75 272.519531 92.328125 272.425781 90.890625 L 268.09375 89.722656 C 267.992188 88.988281 267.855469 88.261719 267.675781 87.53125 C 267.492188 86.796875 267.277344 86.089844 267.023438 85.394531 L 270.304688 82.339844 C 269.722656 81.023438 269.039062 79.773438 268.257812 78.609375 L 263.910156 79.761719 C 262.996094 78.574219 261.957031 77.503906 260.824219 76.554688 L 262.136719 72.257812 C 260.988281 71.425781 259.769531 70.6875 258.492188 70.058594 L 255.308594 73.226562 C 253.941406 72.667969 252.511719 72.25 251.035156 71.992188 L 250.027344 67.609375 C 248.628906 67.460938 247.207031 67.4375 245.773438 67.535156 L 244.605469 71.867188 C 243.871094 71.96875 243.144531 72.105469 242.414062 72.289062 C 241.683594 72.472656 240.976562 72.6875 240.28125 72.941406 Z M 244.835938 82.074219 C 250.617188 80.640625 256.464844 84.171875 257.898438 89.957031 C 259.328125 95.738281 255.804688 101.59375 250.019531 103.027344 C 244.242188 104.460938 238.394531 100.929688 236.960938 95.148438 C 235.53125 89.363281 239.054688 83.507812 244.835938 82.074219 Z M 170.75 222.429688 L 165.550781 217.957031 C 163.652344 219.070312 161.875 220.320312 160.234375 221.707031 L 162.726562 228.121094 C 161.078125 229.714844 159.628906 231.476562 158.375 233.363281 L 151.632812 232.09375 C 150.5625 233.984375 149.652344 235.964844 148.914062 238.007812 L 154.265625 242.3125 C 153.640625 244.492188 153.253906 246.734375 153.117188 249.023438 L 146.628906 251.300781 C 146.644531 253.453125 146.851562 255.617188 147.242188 257.785156 L 154.019531 258.824219 C 154.296875 259.921875 154.628906 261.003906 155.03125 262.089844 C 155.429688 263.167969 155.878906 264.207031 156.382812 265.21875 L 151.910156 270.425781 C 153.023438 272.324219 154.273438 274.101562 155.660156 275.746094 L 162.070312 273.253906 C 163.660156 274.898438 165.414062 276.351562 167.304688 277.605469 L 166.035156 284.351562 C 167.925781 285.425781 169.90625 286.335938 171.949219 287.074219 L 176.242188 281.722656 C 178.425781 282.34375 180.667969 282.730469 182.953125 282.867188 L 185.230469 289.359375 C 187.378906 289.347656 189.542969 289.140625 191.707031 288.75 L 192.75 281.964844 C 193.84375 281.6875 194.925781 281.355469 196.003906 280.957031 C 197.085938 280.554688 198.125 280.101562 199.136719 279.601562 L 204.335938 284.074219 C 206.234375 282.960938 208.015625 281.710938 209.65625 280.324219 L 207.164062 273.910156 C 208.808594 272.316406 210.261719 270.558594 211.507812 268.671875 L 218.257812 269.9375 C 219.328125 268.046875 220.238281 266.066406 220.976562 264.019531 L 215.625 259.722656 C 216.242188 257.542969 216.632812 255.296875 216.773438 253.007812 L 223.257812 250.730469 C 223.246094 248.578125 223.039062 246.414062 222.648438 244.246094 L 215.871094 243.203125 C 215.59375 242.109375 215.257812 241.027344 214.859375 239.945312 C 214.460938 238.863281 214.007812 237.824219 213.507812 236.8125 L 217.976562 231.605469 C 216.867188 229.707031 215.617188 227.925781 214.226562 226.285156 L 207.820312 228.777344 C 206.226562 227.132812 204.46875 225.679688 202.585938 224.429688 L 203.851562 217.679688 C 201.960938 216.605469 199.984375 215.695312 197.941406 214.957031 L 193.640625 220.3125 C 191.464844 219.695312 189.21875 219.300781 186.933594 219.164062 L 184.65625 212.671875 C 182.507812 212.683594 180.34375 212.890625 178.179688 213.28125 L 177.140625 220.066406 C 176.042969 220.34375 174.964844 220.675781 173.878906 221.078125 C 172.800781 221.476562 171.765625 221.929688 170.75 222.429688 Z M 179.222656 235.535156 C 187.765625 232.375 197.253906 236.742188 200.414062 245.292969 C 203.570312 253.839844 199.207031 263.335938 190.660156 266.496094 C 182.125 269.65625 172.632812 265.289062 169.476562 256.742188 C 166.316406 248.191406 170.683594 238.695312 179.222656 235.535156 Z M 95.984375 228.878906 C 95.96875 228.878906 95.953125 228.878906 95.9375 228.875 C 95.753906 228.851562 95.625 228.679688 95.648438 228.496094 L 100.398438 192.484375 C 100.410156 192.410156 100.445312 192.339844 100.5 192.285156 L 105.488281 187.542969 C 105.621094 187.414062 105.835938 187.417969 105.964844 187.554688 C 106.09375 187.6875 106.085938 187.902344 105.953125 188.03125 L 101.050781 192.691406 L 96.316406 228.585938 C 96.292969 228.753906 96.148438 228.878906 95.984375 228.878906 Z M 274.316406 203.214844 C 274.308594 203.214844 274.300781 203.214844 274.292969 203.214844 L 269.09375 202.886719 C 268.910156 202.875 268.769531 202.714844 268.78125 202.527344 C 268.792969 202.34375 268.949219 202.191406 269.136719 202.210938 L 274.335938 202.539062 C 274.523438 202.550781 274.664062 202.710938 274.652344 202.898438 C 274.640625 203.078125 274.492188 203.214844 274.316406 203.214844 Z M 258.378906 197.316406 C 257.726562 199.066406 256.257812 201.59375 253.242188 201.59375 C 253.054688 201.59375 252.90625 201.441406 252.90625 201.257812 C 252.90625 201.070312 253.054688 200.917969 253.242188 200.917969 C 255.785156 200.917969 257.082031 198.796875 257.695312 197.226562 C 257.921875 197.257812 258.152344 197.289062 258.378906 197.316406 Z M 292.527344 201.257812 C 292.527344 201.441406 292.375 201.59375 292.191406 201.59375 C 289.21875 201.59375 287.75 199.140625 287.082031 197.394531 C 287.3125 197.367188 287.539062 197.335938 287.765625 197.304688 C 288.390625 198.867188 289.6875 200.921875 292.191406 200.921875 C 292.375 200.917969 292.527344 201.070312 292.527344 201.257812 Z M 292.527344 201.257812 " fill-opacity="1" fill-rule="nonzero"/></g><path fill="#576ac3" d="M 72.210938 290.933594 C 72.210938 290.933594 73.390625 292.105469 75.320312 290.933594 C 77.472656 289.625 80.828125 288.167969 81.3125 291.074219 C 81.34375 296.640625 87.46875 296.710938 87.652344 301.957031 L 71.246094 301.957031 C 70.9375 297.578125 71.679688 294.914062 72.210938 290.933594 M 97.359375 291.804688 C 97.359375 291.804688 95.691406 296.125 96.453125 301.957031 L 124.183594 301.957031 C 124.183594 301.957031 124.859375 298.992188 121.066406 297.5 C 117.652344 296.160156 113.285156 295.121094 108.34375 289.761719 C 103.929688 294.3125 97.359375 291.804688 97.359375 291.804688 M 132.859375 150.472656 L 118.40625 139.902344 C 118.328125 139.839844 118.230469 139.761719 118.148438 139.699219 C 118 139.589844 117.847656 139.492188 117.691406 139.398438 C 115.21875 135.976562 111.085938 133.769531 106.5 133.769531 C 100.105469 133.769531 94.585938 138.257812 93.277344 144.523438 L 88.351562 165.902344 C 88.035156 167.265625 88.796875 168.636719 90.109375 169.121094 C 96.152344 171.339844 104.300781 172.585938 111.882812 171.265625 C 112.859375 171.09375 113.660156 170.410156 113.992188 169.480469 C 114.898438 166.957031 116.773438 161.570312 118.226562 156.308594 L 122.171875 159.234375 Z M 234.328125 229.265625 C 230.238281 229.265625 226.921875 225.945312 226.921875 221.851562 C 226.921875 217.757812 230.238281 214.441406 234.328125 214.441406 C 235.332031 214.441406 236.285156 214.648438 237.15625 215.011719 L 237.15625 201.945312 C 237.15625 200.332031 235.851562 199.027344 234.242188 199.027344 L 220.257812 199.027344 C 220.816406 197.988281 221.132812 196.796875 221.132812 195.535156 C 221.132812 191.441406 217.816406 188.125 213.726562 188.125 C 209.636719 188.125 206.320312 191.441406 206.320312 195.535156 C 206.320312 196.796875 206.640625 197.988281 207.195312 199.027344 L 193.785156 199.027344 C 192.175781 199.027344 190.871094 200.332031 190.871094 201.945312 L 190.871094 242.433594 C 190.871094 244.046875 192.175781 245.351562 193.785156 245.351562 L 234.242188 245.351562 C 235.851562 245.351562 237.15625 244.046875 237.15625 242.433594 L 237.15625 228.695312 C 236.285156 229.054688 235.332031 229.265625 234.328125 229.265625 Z M 303.75 177.894531 C 302.675781 167.269531 302.347656 154.703125 302.160156 152.21875 C 301.90625 149.285156 301.660156 146.351562 301.292969 143.425781 C 300.949219 140.667969 299.191406 138.4375 296.84375 137.359375 C 296.847656 137.335938 296.847656 137.324219 296.847656 137.324219 C 291.402344 134.96875 286.082031 133.414062 280.8125 132.65625 L 280.898438 133.820312 C 281.152344 137.476562 278.527344 140.710938 274.644531 140.972656 C 270.757812 141.234375 267.402344 138.484375 267.148438 134.832031 L 267.167969 132.496094 C 262.0625 133.121094 256.933594 134.515625 251.722656 136.695312 C 251.714844 136.699219 251.707031 136.703125 251.699219 136.707031 C 249.859375 137.347656 248.269531 138.699219 247.390625 140.617188 L 236.667969 159.472656 L 248.199219 175.644531 L 252.820312 165.203125 C 253.136719 169.128906 253.34375 172.472656 253.34375 174.363281 C 253.34375 180.128906 252.46875 190.285156 252.46875 194.503906 C 252.46875 195.625 253.285156 196.574219 254.394531 196.753906 C 266.300781 198.679688 279.804688 198.738281 291.398438 196.769531 C 292.5 196.582031 293.304688 195.636719 293.304688 194.519531 C 293.304688 191.511719 292.859375 185.449219 292.605469 180.128906 Z M 131.925781 115.542969 C 130.675781 115.542969 129.585938 116.394531 129.03125 117.644531 C 128.53125 117.410156 128.015625 117.417969 127.511719 117.667969 C 126.960938 116.402344 125.867188 115.542969 124.613281 115.542969 C 122.800781 115.542969 121.328125 117.332031 121.328125 119.535156 C 121.328125 121.734375 122.800781 123.527344 124.613281 123.527344 C 126.421875 123.527344 127.898438 121.734375 127.898438 119.535156 C 127.898438 119.074219 127.828125 118.632812 127.710938 118.222656 C 128.089844 118.015625 128.457031 118.007812 128.832031 118.199219 C 128.710938 118.617188 128.640625 119.066406 128.640625 119.535156 C 128.640625 121.734375 130.113281 123.527344 131.925781 123.527344 C 133.738281 123.527344 135.210938 121.734375 135.210938 119.535156 C 135.207031 117.332031 133.734375 115.542969 131.925781 115.542969 Z M 124.613281 122.949219 C 123.117188 122.949219 121.90625 121.414062 121.90625 119.53125 C 121.90625 117.648438 123.117188 116.117188 124.613281 116.117188 C 126.105469 116.117188 127.320312 117.648438 127.320312 119.53125 C 127.320312 121.414062 126.105469 122.949219 124.613281 122.949219 Z M 131.925781 122.949219 C 130.429688 122.949219 129.214844 121.414062 129.214844 119.53125 C 129.214844 117.648438 130.429688 116.117188 131.925781 116.117188 C 133.417969 116.117188 134.632812 117.648438 134.632812 119.53125 C 134.632812 121.414062 133.417969 122.949219 131.925781 122.949219 Z M 131.925781 122.949219 " fill-opacity="1" fill-rule="evenodd"/><g clip-path="url(#id5)"><path fill="#f5c0a2" d="M 151.707031 126.996094 L 150.640625 128.921875 C 150.21875 130.894531 149.679688 133.105469 149.242188 135.109375 C 148.734375 137.4375 146.515625 138.53125 143.476562 138.074219 C 140.015625 137.558594 139.132812 135.957031 139.128906 135.953125 C 136.003906 132.382812 136.484375 128.929688 135.867188 126.324219 C 135.597656 125.183594 135.523438 124.902344 136.066406 124.6875 C 136.671875 124.441406 138.078125 124.9375 139.121094 127.164062 C 139.433594 127.832031 139.757812 128.457031 140.019531 128.941406 C 140.34375 126.570312 140.605469 125.050781 140.605469 125.050781 L 140.765625 125.0625 C 140.957031 124.726562 141.28125 124.46875 141.699219 124.390625 C 142.386719 124.265625 143.027344 124.667969 143.257812 125.285156 L 144.164062 125.367188 C 144.167969 125.292969 144.171875 125.222656 144.175781 125.171875 C 144.253906 124.386719 144.90625 123.78125 145.695312 123.851562 C 146.449219 123.914062 146.992188 124.566406 146.964844 125.292969 C 147.234375 124.667969 147.886719 124.289062 148.566406 124.453125 C 149.167969 124.601562 149.570312 125.113281 149.617188 125.683594 C 149.929688 125.308594 150.429688 125.125 150.929688 125.277344 C 151.65625 125.496094 152.023438 126.304688 151.707031 126.996094 Z M 286.914062 288.253906 L 277.558594 288.253906 C 277.554688 288.433594 277.546875 288.605469 277.546875 288.789062 C 277.546875 292.050781 277.355469 294.546875 277.195312 298.023438 C 278.011719 298.347656 279.082031 298.300781 280.253906 297.046875 C 282.613281 294.527344 285.152344 293.328125 287.679688 294.167969 C 286.960938 292.210938 286.84375 290.238281 286.914062 288.253906 Z M 72.210938 290.933594 C 72.210938 290.933594 73.390625 292.105469 75.320312 290.933594 C 77.335938 289.707031 80.40625 288.355469 81.183594 290.570312 C 81.210938 289.179688 81.316406 287.628906 81.457031 286.132812 L 72.257812 286.132812 C 72.257812 287.601562 72.246094 289.238281 72.210938 290.933594 Z M 97.359375 291.804688 C 97.359375 291.804688 103.894531 294.296875 108.308594 289.796875 C 108.230469 288.699219 108.210938 287.445312 108.222656 286.132812 L 97.847656 286.132812 C 97.878906 288.125 97.757812 290.074219 97.359375 291.804688 Z M 153.945312 144.398438 C 152.128906 144.398438 152.1875 144.433594 146.488281 144.410156 C 146.488281 144.410156 146.382812 144.410156 146.203125 144.410156 C 146 144.40625 145.792969 144.40625 145.574219 144.40625 L 145.582031 144.414062 C 143.867188 144.445312 140.039062 144.605469 136.777344 145.429688 C 136.167969 145.582031 135.609375 145.871094 135.136719 146.253906 C 135.066406 146.296875 134.996094 146.335938 134.925781 146.382812 L 117.4375 158.039062 L 114.617188 153.1875 L 105.152344 159.28125 L 111.117188 168.449219 L 111.335938 168.785156 C 111.4375 168.9375 111.542969 169.085938 111.664062 169.230469 C 113.453125 171.414062 116.671875 171.734375 118.855469 169.945312 L 138.925781 153.484375 C 140.179688 153.644531 141.796875 153.78125 143.394531 153.753906 L 144.53125 154.652344 C 144.761719 154.835938 145.054688 154.917969 145.34375 154.882812 L 147.300781 154.652344 C 147.664062 154.609375 147.972656 154.375 148.113281 154.035156 L 149.707031 150.179688 C 149.992188 149.496094 149.816406 148.707031 149.265625 148.210938 L 148.09375 147.152344 C 149.390625 147.003906 152.101562 146.679688 153.328125 146.445312 C 154.746094 146.175781 155.644531 144.398438 153.945312 144.398438 Z M 237.179688 160.1875 L 236.667969 160.703125 L 226.1875 147.09375 L 197.957031 147.09375 C 197.914062 147.628906 198.285156 148.121094 199.128906 148.246094 C 199.410156 148.289062 199.761719 148.328125 200.160156 148.367188 C 199.863281 148.960938 200.082031 149.589844 200.949219 149.6875 C 201.324219 149.730469 201.890625 149.792969 202.558594 149.863281 C 202.722656 150.089844 202.96875 150.277344 203.316406 150.382812 C 204.84375 150.84375 207.769531 151.492188 208.894531 151.738281 C 209.199219 151.800781 209.5 151.847656 209.808594 151.871094 C 209.808594 151.871094 215.6875 152.363281 216.570312 152.410156 L 216.589844 152.410156 C 216.792969 152.417969 216.996094 152.425781 217.203125 152.425781 L 229.722656 175.101562 C 231.847656 178.597656 236.402344 179.707031 239.898438 177.578125 C 240.496094 177.214844 243.007812 174.640625 245.566406 171.945312 Z M 306.503906 212.417969 C 306.503906 212.414062 306.507812 212.40625 306.507812 212.402344 C 306.492188 211.984375 306.390625 210.878906 306.253906 209.503906 L 306.25 209.5 C 305.890625 205.871094 305.273438 200.328125 305.273438 200.324219 L 302.792969 178.089844 L 292.605469 180.128906 C 292.699219 182.070312 292.816406 184.117188 292.929688 186.074219 C 294.640625 192.1875 296.652344 199.367188 297.277344 201.59375 C 297.160156 201.757812 297.058594 201.917969 296.972656 202.078125 C 295.835938 204.179688 295.648438 205.566406 296.019531 208.710938 C 295.914062 208.667969 295.804688 208.636719 295.691406 208.621094 C 294.9375 208.53125 294.28125 209.132812 294.3125 209.894531 L 294.472656 213.859375 C 294.484375 214.226562 294.664062 214.570312 294.960938 214.792969 L 298.089844 217.160156 L 298.902344 217.777344 C 299.34375 218.109375 299.949219 218.109375 300.386719 217.777344 L 306.023438 213.523438 C 306.347656 213.277344 306.527344 212.890625 306.511719 212.488281 Z M 259.351562 296.757812 C 259.351562 296.757812 259.351562 296.757812 259.351562 296.761719 C 259.339844 294.152344 259.703125 290.65625 260 288.253906 L 250.015625 288.253906 C 249.792969 291.042969 249.382812 292.925781 248.761719 294.496094 C 252.171875 299 256.765625 298.078125 259.351562 296.757812 Z M 282.335938 116.324219 C 281.691406 116.269531 281.230469 117.667969 280.929688 119.066406 C 280.796875 118.988281 280.644531 118.941406 280.476562 118.9375 C 280.476562 118.9375 279.832031 113.84375 281.078125 108.667969 C 279.980469 109.753906 275.960938 110.113281 273.050781 109.394531 C 269.5 108.515625 267.4375 107.277344 265.101562 107.558594 C 263.640625 112.082031 263.59375 116.445312 263.59375 116.445312 L 263.699219 122.523438 C 263.746094 125.277344 265.109375 127.761719 267.199219 129.273438 L 267.148438 134.832031 C 267.402344 138.484375 270.757812 141.234375 274.644531 140.972656 C 278.527344 140.710938 281.152344 137.476562 280.898438 133.820312 L 280.144531 123.789062 L 280.589844 122.421875 C 280.78125 122.890625 281.234375 123.183594 281.722656 123.058594 C 283.183594 122.6875 284.226562 121.492188 284.351562 120 C 284.515625 118.078125 283.613281 116.433594 282.335938 116.324219 Z M 131.925781 123.523438 C 130.113281 123.523438 128.640625 121.734375 128.640625 119.53125 C 128.640625 119.0625 128.710938 118.617188 128.832031 118.199219 C 128.453125 118.007812 128.089844 118.015625 127.710938 118.222656 C 127.828125 118.632812 127.894531 119.074219 127.894531 119.53125 C 127.894531 121.734375 126.421875 123.523438 124.609375 123.523438 C 122.800781 123.523438 121.328125 121.734375 121.328125 119.53125 C 121.328125 117.332031 122.800781 115.539062 124.609375 115.539062 C 125.867188 115.539062 126.960938 116.402344 127.511719 117.664062 C 128.011719 117.417969 128.53125 117.410156 129.03125 117.644531 C 129.585938 116.390625 130.675781 115.539062 131.921875 115.539062 C 132.257812 115.539062 132.578125 115.601562 132.878906 115.714844 C 132.890625 114.632812 132.699219 113.589844 132.34375 112.617188 C 132.015625 112.589844 131.6875 112.558594 131.359375 112.511719 C 128.289062 112.074219 123.441406 110.460938 120.210938 108.511719 C 118.273438 111.71875 120.910156 118.171875 116.710938 119.539062 C 116.839844 118.042969 116.664062 116.273438 115.21875 115.917969 C 113.582031 115.515625 112.574219 116.71875 112.121094 118.539062 C 111.765625 119.953125 112.664062 121.457031 114.363281 122.375 C 114.945312 122.691406 115.632812 122.59375 116.03125 122.21875 L 111.015625 134.515625 C 113.730469 135.433594 116.066406 137.152344 117.6875 139.394531 C 117.84375 139.488281 117.996094 139.589844 118.144531 139.699219 C 118.230469 139.761719 118.328125 139.839844 118.40625 139.902344 L 119.746094 141.003906 L 123.25 132.140625 C 124.109375 132.28125 125.007812 132.277344 125.910156 132.085938 C 129.015625 131.4375 131.238281 128.882812 131.628906 125.910156 L 131.9375 123.523438 C 131.933594 123.523438 131.929688 123.523438 131.925781 123.523438 Z M 131.925781 116.117188 C 130.429688 116.117188 129.214844 117.648438 129.214844 119.53125 C 129.214844 121.414062 130.429688 122.949219 131.925781 122.949219 C 131.953125 122.949219 131.984375 122.941406 132.011719 122.941406 L 132.808594 116.773438 C 132.828125 116.625 132.84375 116.476562 132.855469 116.328125 C 132.5625 116.195312 132.25 116.117188 131.925781 116.117188 Z M 124.613281 116.117188 C 123.117188 116.117188 121.90625 117.648438 121.90625 119.53125 C 121.90625 121.414062 123.117188 122.949219 124.613281 122.949219 C 126.105469 122.949219 127.320312 121.414062 127.320312 119.53125 C 127.320312 117.648438 126.105469 116.117188 124.613281 116.117188 Z M 124.613281 116.117188 " fill-opacity="1" fill-rule="evenodd"/></g><path fill="#293237" d="M 86.796875 299.332031 L 71.121094 299.332031 C 70.964844 299.332031 70.839844 299.460938 70.839844 299.617188 C 70.839844 299.773438 70.964844 299.898438 71.121094 299.898438 L 86.796875 299.898438 C 86.953125 299.898438 87.078125 299.773438 87.078125 299.617188 C 87.078125 299.460938 86.953125 299.332031 86.796875 299.332031 Z M 86.796875 299.332031 " fill-opacity="1" fill-rule="nonzero"/><path fill="#293237" d="M 146.605469 151.105469 L 148.804688 152.175781 C 148.84375 152.195312 148.886719 152.203125 148.929688 152.203125 C 149.035156 152.203125 149.136719 152.144531 149.183594 152.046875 C 149.25 151.90625 149.195312 151.734375 149.054688 151.667969 L 146.851562 150.597656 C 146.710938 150.53125 146.542969 150.589844 146.476562 150.730469 C 146.40625 150.871094 146.464844 151.039062 146.605469 151.105469 Z M 146.605469 151.105469 " fill-opacity="1" fill-rule="nonzero"/><path fill="#293237" d="M 123.75 299.332031 L 96.265625 299.332031 C 96.109375 299.332031 95.984375 299.460938 95.984375 299.617188 C 95.984375 299.773438 96.109375 299.898438 96.265625 299.898438 L 123.75 299.898438 C 123.90625 299.898438 124.03125 299.773438 124.03125 299.617188 C 124.03125 299.460938 123.90625 299.332031 123.75 299.332031 Z M 123.75 299.332031 " fill-opacity="1" fill-rule="nonzero"/><path fill="#293237" d="M 77.488281 191.617188 L 78.046875 221.179688 C 78.109375 225.261719 77.429688 229.320312 76.027344 233.152344 C 70.160156 249.171875 71.265625 274.949219 71.265625 286.132812 L 82.582031 286.132812 L 94.878906 232.925781 L 96.355469 222.828125 C 96.363281 222.890625 96.367188 222.949219 96.371094 223.011719 L 100.398438 192.484375 C 100.410156 192.410156 100.445312 192.335938 100.5 192.285156 L 105.488281 187.542969 C 105.621094 187.414062 105.835938 187.417969 105.964844 187.554688 C 106.09375 187.6875 106.085938 187.902344 105.953125 188.03125 L 101.050781 192.691406 L 96.542969 226.875 C 96.511719 229.011719 96.269531 231.113281 95.808594 233.152344 C 92.203125 249.167969 95.691406 274.949219 97.265625 286.128906 L 108.582031 286.128906 L 113.460938 232.921875 L 112.320312 186.695312 L 112.320312 171.144531 C 112.179688 171.195312 112.035156 171.238281 111.886719 171.261719 C 104.441406 172.5625 96.453125 171.382812 90.445312 169.238281 L 88.675781 169.449219 C 88.613281 169.394531 88.5625 169.335938 88.503906 169.28125 C 84.902344 172.761719 77.488281 181.1875 77.488281 191.617188 Z M 77.488281 191.617188 " fill-opacity="1" fill-rule="nonzero"/><path fill="#293237" d="M 115.136719 152.867188 L 108.894531 142.140625 C 108.816406 142.007812 108.640625 141.960938 108.507812 142.039062 C 108.371094 142.117188 108.328125 142.289062 108.40625 142.425781 L 114.648438 153.152344 C 114.699219 153.242188 114.796875 153.292969 114.894531 153.292969 C 114.941406 153.292969 114.992188 153.28125 115.035156 153.253906 C 115.171875 153.175781 115.214844 153.003906 115.136719 152.867188 Z M 115.136719 152.867188 " fill-opacity="1" fill-rule="nonzero"/><path fill="#293237" d="M 297.28125 201.886719 C 297.308594 201.886719 297.335938 201.882812 297.363281 201.875 L 298.5 201.527344 C 298.648438 201.480469 298.734375 201.324219 298.6875 201.175781 C 298.640625 201.027344 298.488281 200.941406 298.335938 200.988281 L 297.199219 201.332031 C 297.046875 201.378906 296.964844 201.539062 297.011719 201.6875 C 297.046875 201.808594 297.160156 201.886719 297.28125 201.886719 Z M 297.28125 201.886719 " fill-opacity="1" fill-rule="nonzero"/><path fill="#293237" d="M 292.8125 180.003906 C 292.816406 180.003906 292.820312 180.003906 292.824219 180.003906 C 292.980469 179.996094 293.101562 179.863281 293.09375 179.707031 L 292.664062 169.886719 L 295.621094 148.457031 C 295.644531 148.304688 295.535156 148.160156 295.378906 148.140625 C 295.226562 148.121094 295.082031 148.226562 295.0625 148.378906 L 292.101562 169.859375 L 292.527344 179.734375 C 292.535156 179.882812 292.660156 180.003906 292.8125 180.003906 Z M 292.8125 180.003906 " fill-opacity="1" fill-rule="nonzero"/><path fill="#293237" d="M 265.101562 107.554688 C 267.4375 107.277344 269.5 108.515625 273.050781 109.394531 C 275.960938 110.113281 279.980469 109.753906 281.078125 108.664062 C 279.832031 113.84375 280.476562 118.9375 280.476562 118.9375 C 280.644531 118.9375 280.796875 118.988281 280.929688 119.066406 C 281.230469 117.667969 281.691406 116.269531 282.335938 116.324219 C 283.613281 116.433594 284.515625 118.078125 284.355469 120 C 284.226562 121.492188 283.1875 122.6875 281.722656 123.058594 C 281.234375 123.183594 280.785156 122.890625 280.59375 122.421875 L 280.144531 123.789062 L 280.164062 124.070312 C 281.660156 123.808594 287.546875 122.425781 286.878906 117.074219 C 286.878906 117.074219 291.515625 111.746094 286.914062 107.597656 C 286.96875 102.785156 284.371094 100.445312 279.539062 100.210938 C 279.539062 100.210938 268.613281 99.28125 266.183594 99.132812 C 262.722656 98.917969 262.582031 101.917969 263.609375 105.96875 C 263.667969 106.203125 263.753906 106.402344 263.855469 106.585938 C 263.234375 107.816406 262.832031 109.179688 262.710938 110.636719 C 262.554688 112.53125 262.890625 114.355469 263.613281 115.980469 C 263.664062 114.75 263.925781 111.207031 265.101562 107.554688 Z M 265.101562 107.554688 " fill-opacity="1" fill-rule="nonzero"/><path fill="#293237" d="M 252.917969 167.339844 C 252.925781 167.339844 252.933594 167.339844 252.945312 167.339844 C 253.101562 167.324219 253.214844 167.1875 253.199219 167.03125 L 251.484375 148.632812 C 251.472656 148.476562 251.34375 148.367188 251.175781 148.378906 C 251.023438 148.390625 250.90625 148.53125 250.921875 148.6875 L 252.636719 167.082031 C 252.652344 167.230469 252.773438 167.339844 252.917969 167.339844 Z M 252.917969 167.339844 " fill-opacity="1" fill-rule="nonzero"/><path fill="#293237" d="M 253.242188 200.917969 C 255.785156 200.917969 257.082031 198.796875 257.695312 197.226562 C 256.585938 197.082031 255.480469 196.925781 254.394531 196.75 C 254.003906 196.6875 253.652344 196.523438 253.355469 196.296875 L 253.1875 200.929688 C 253.207031 200.925781 253.222656 200.917969 253.242188 200.917969 Z M 253.242188 200.917969 " fill-opacity="1" fill-rule="nonzero"/><path fill="#293237" d="M 147.0625 149.25 L 149.402344 150.664062 C 149.445312 150.691406 149.496094 150.707031 149.546875 150.707031 C 149.644531 150.707031 149.738281 150.65625 149.789062 150.570312 C 149.871094 150.433594 149.828125 150.261719 149.695312 150.179688 L 147.355469 148.765625 C 147.226562 148.6875 147.050781 148.730469 146.96875 148.863281 C 146.886719 148.996094 146.929688 149.167969 147.0625 149.25 Z M 147.0625 149.25 " fill-opacity="1" fill-rule="nonzero"/><g clip-path="url(#id6)"><path fill="#293237" d="M 232.628906 306.304688 C 232.550781 306.914062 233.027344 307.453125 233.640625 307.453125 L 259.234375 307.453125 C 259.765625 307.453125 260.207031 307.042969 260.246094 306.515625 C 260.277344 306.082031 260.308594 305.511719 260.324219 304.855469 L 239.28125 304.855469 L 237.527344 302.113281 C 236.914062 302.410156 236.324219 302.683594 235.78125 302.917969 C 233.386719 303.957031 232.785156 305.152344 232.628906 306.304688 Z M 232.628906 306.304688 " fill-opacity="1" fill-rule="nonzero"/></g><path fill="#293237" d="M 248.761719 294.496094 C 246.773438 296.984375 241.566406 300.152344 237.527344 302.113281 L 239.28125 304.855469 L 260.324219 304.855469 C 260.375 302.6875 260.25 299.523438 259.351562 296.757812 C 256.765625 298.078125 252.171875 299 248.761719 294.496094 Z M 248.761719 294.496094 " fill-opacity="1" fill-rule="nonzero"/><path fill="#293237" d="M 291.957031 265.148438 C 293.164062 256.082031 291.375 242.757812 291.375 242.757812 L 292.183594 201.59375 C 289.214844 201.589844 287.75 199.140625 287.082031 197.394531 C 287.3125 197.367188 287.539062 197.335938 287.765625 197.304688 C 288.390625 198.867188 289.6875 200.921875 292.191406 200.921875 C 292.191406 200.921875 292.195312 200.921875 292.195312 200.921875 L 292.285156 196.410156 C 292.023438 196.582031 291.726562 196.710938 291.398438 196.765625 C 281.054688 198.527344 269.183594 198.664062 258.289062 197.304688 C 258.316406 197.308594 258.347656 197.3125 258.378906 197.316406 C 257.726562 199.066406 256.257812 201.59375 253.242188 201.59375 C 253.210938 201.59375 253.1875 201.585938 253.164062 201.578125 L 251.667969 242.316406 L 249.710938 288.253906 L 261.148438 288.253906 C 263.640625 279.984375 269.421875 259.59375 266.597656 244.945312 L 272.765625 203.117188 L 269.09375 202.886719 C 268.910156 202.875 268.769531 202.714844 268.78125 202.527344 C 268.792969 202.339844 268.945312 202.191406 269.136719 202.210938 L 274.335938 202.539062 C 274.523438 202.550781 274.664062 202.710938 274.652344 202.898438 C 274.640625 203.074219 274.496094 203.207031 274.324219 203.210938 L 276.917969 288.253906 L 288.335938 288.253906 C 289.289062 282.558594 291.09375 271.632812 291.957031 265.148438 Z M 291.957031 265.148438 " fill-opacity="1" fill-rule="nonzero"/><path fill="#293237" d="M 302.074219 206.097656 C 301.925781 206.085938 301.78125 206.199219 301.769531 206.355469 L 301.453125 210.011719 L 299.410156 216.886719 C 299.363281 217.042969 299.242188 217.167969 299.085938 217.21875 C 298.933594 217.265625 298.78125 217.238281 298.660156 217.144531 C 298.199219 216.785156 297.9375 216.191406 297.871094 215.382812 C 297.699219 213.140625 297.8125 210.46875 297.8125 210.445312 C 297.816406 210.328125 297.75 210.21875 297.644531 210.171875 C 297.609375 210.15625 296.753906 209.757812 296.394531 208.53125 C 296.351562 208.382812 296.195312 208.296875 296.042969 208.339844 C 295.894531 208.382812 295.808594 208.539062 295.851562 208.691406 C 296.1875 209.839844 296.90625 210.394531 297.242188 210.597656 C 297.21875 211.234375 297.160156 213.484375 297.308594 215.429688 C 297.386719 216.402344 297.722656 217.128906 298.3125 217.589844 C 298.492188 217.730469 298.714844 217.804688 298.941406 217.804688 C 299.046875 217.804688 299.152344 217.789062 299.257812 217.757812 C 299.59375 217.648438 299.851562 217.386719 299.953125 217.046875 L 302.003906 210.144531 C 302.011719 210.128906 302.011719 210.109375 302.015625 210.089844 L 302.332031 206.402344 C 302.34375 206.246094 302.230469 206.109375 302.074219 206.097656 Z M 302.074219 206.097656 " fill-opacity="1" fill-rule="nonzero"/><g clip-path="url(#id7)"><path fill="#293237" d="M 293.285156 300.808594 C 293.226562 300.753906 293.164062 300.699219 293.101562 300.644531 C 292.59375 300.183594 292.070312 299.726562 291.550781 299.261719 C 291.429688 299.15625 291.3125 299.046875 291.191406 298.9375 C 291.066406 298.820312 290.9375 298.699219 290.8125 298.582031 C 290.683594 298.460938 290.558594 298.335938 290.4375 298.214844 C 290.324219 298.101562 290.210938 297.988281 290.097656 297.871094 C 289.972656 297.738281 289.847656 297.601562 289.726562 297.464844 C 289.625 297.355469 289.523438 297.242188 289.425781 297.125 C 289.300781 296.976562 289.1875 296.820312 289.066406 296.667969 C 288.984375 296.554688 288.894531 296.445312 288.8125 296.332031 C 288.691406 296.15625 288.578125 295.96875 288.464844 295.78125 C 288.402344 295.679688 288.335938 295.585938 288.277344 295.480469 C 288.113281 295.1875 287.964844 294.886719 287.835938 294.574219 C 287.832031 294.570312 287.832031 294.566406 287.828125 294.558594 C 287.777344 294.429688 287.730469 294.300781 287.683594 294.167969 C 287.054688 293.960938 286.425781 293.878906 285.796875 293.910156 C 285.476562 293.925781 285.160156 293.972656 284.84375 294.046875 C 283.277344 294.414062 281.730469 295.46875 280.257812 297.046875 C 279.363281 298.003906 278.527344 298.253906 277.820312 298.175781 C 277.601562 298.152344 277.390625 298.097656 277.199219 298.019531 C 277.1875 298.28125 277.175781 298.546875 277.164062 298.820312 C 277.160156 298.921875 277.15625 299.027344 277.152344 299.132812 C 277.144531 299.285156 277.140625 299.4375 277.132812 299.597656 C 277.128906 299.765625 277.121094 299.9375 277.117188 300.109375 C 277.113281 300.210938 277.109375 300.308594 277.105469 300.410156 C 277.097656 300.617188 277.089844 300.828125 277.085938 301.042969 C 277.082031 301.101562 277.082031 301.164062 277.078125 301.226562 C 277.035156 302.742188 277.003906 304.441406 276.996094 306.429688 C 276.992188 306.992188 277.445312 307.453125 278.007812 307.453125 L 295.832031 307.453125 C 296.449219 307.453125 296.9375 306.898438 296.835938 306.285156 C 296.457031 303.976562 294.976562 302.351562 293.285156 300.808594 Z M 293.285156 300.808594 " fill-opacity="1" fill-rule="nonzero"/></g><path fill="#293237" d="M 98.234375 150.421875 C 98.101562 150.503906 98.066406 150.679688 98.152344 150.8125 L 104.101562 159.957031 C 104.15625 160.039062 104.246094 160.085938 104.339844 160.085938 C 104.394531 160.085938 104.445312 160.070312 104.492188 160.039062 C 104.625 159.957031 104.660156 159.78125 104.574219 159.648438 L 98.625 150.503906 C 98.539062 150.371094 98.363281 150.335938 98.234375 150.421875 Z M 98.234375 150.421875 " fill-opacity="1" fill-rule="nonzero"/><path fill="#293237" d="M 177.296875 189.367188 L 163.316406 189.367188 C 163.871094 188.328125 164.191406 187.140625 164.191406 185.875 C 164.191406 181.78125 160.875 178.464844 156.785156 178.464844 C 152.695312 178.464844 149.378906 181.78125 149.378906 185.875 C 149.378906 187.140625 149.695312 188.328125 150.253906 189.367188 L 136.839844 189.367188 C 135.230469 189.367188 133.925781 190.675781 133.925781 192.285156 L 133.925781 232.777344 C 133.925781 234.386719 135.230469 235.691406 136.839844 235.691406 L 177.296875 235.691406 C 178.90625 235.691406 180.210938 234.386719 180.210938 232.777344 L 180.210938 192.285156 C 180.210938 190.675781 178.90625 189.367188 177.296875 189.367188 Z M 177.296875 189.367188 " fill-opacity="1" fill-rule="nonzero"/><path fill="#293237" d="M 135.742188 133.582031 C 134.648438 121.746094 137.164062 119.84375 137.65625 111.722656 C 138.144531 103.601562 129.773438 96.441406 118.699219 98.839844 C 109.65625 100.484375 104.417969 100.203125 102.613281 110.542969 C 100.804688 120.882812 103.023438 122.199219 94.113281 130.300781 C 85.242188 138.359375 76.410156 157.988281 88.503906 169.285156 C 88.765625 169.027344 89.011719 168.796875 89.230469 168.597656 C 88.480469 167.945312 88.117188 166.921875 88.351562 165.902344 L 93.277344 144.523438 C 94.585938 138.257812 100.105469 133.773438 106.5 133.773438 C 108.105469 133.773438 109.652344 134.046875 111.09375 134.542969 C 111.066406 134.535156 111.042969 134.523438 111.015625 134.515625 L 116.03125 122.21875 C 115.632812 122.59375 114.945312 122.691406 114.363281 122.375 C 112.664062 121.457031 111.765625 119.953125 112.121094 118.539062 C 112.574219 116.722656 113.582031 115.515625 115.21875 115.917969 C 116.664062 116.273438 116.839844 118.046875 116.710938 119.539062 C 120.910156 118.171875 118.273438 111.71875 120.210938 108.511719 C 123.441406 110.464844 128.292969 112.074219 131.359375 112.511719 C 131.6875 112.558594 132.015625 112.589844 132.34375 112.617188 C 132.8125 113.90625 132.996094 115.320312 132.808594 116.777344 L 131.628906 125.910156 C 131.238281 128.886719 129.015625 131.441406 125.910156 132.089844 C 125.007812 132.277344 124.109375 132.28125 123.25 132.140625 L 119.746094 141.003906 L 130.492188 149.367188 L 133.332031 147.628906 C 133.882812 143.257812 136.253906 139.109375 135.742188 133.582031 Z M 135.742188 133.582031 " fill-opacity="1" fill-rule="nonzero"/><path fill="#293237" d="M 235.773438 144.195312 L 235.773438 103.960938 C 235.773438 102.359375 234.476562 101.0625 232.878906 101.0625 L 220.371094 101.0625 C 220.917969 102.085938 221.230469 103.253906 221.230469 104.496094 C 221.230469 108.542969 217.949219 111.824219 213.90625 111.824219 C 209.859375 111.824219 206.582031 108.542969 206.582031 104.496094 C 206.582031 103.253906 206.894531 102.085938 207.4375 101.0625 L 192.675781 101.0625 C 191.078125 101.0625 189.78125 102.359375 189.78125 103.960938 L 189.78125 117.316406 C 190.832031 116.898438 192.003906 116.710938 193.234375 116.847656 C 196.785156 117.230469 199.585938 120.238281 199.710938 123.8125 C 199.859375 127.953125 196.550781 131.351562 192.449219 131.351562 C 191.503906 131.351562 190.605469 131.164062 189.78125 130.839844 L 189.78125 144.195312 C 189.78125 145.792969 191.078125 147.09375 192.675781 147.09375 L 232.878906 147.09375 C 234.476562 147.09375 235.773438 145.796875 235.773438 144.195312 Z M 235.773438 144.195312 " fill-opacity="1" fill-rule="nonzero"/><path fill="#293237" d="M 221.367188 152.199219 L 217.742188 152.199219 C 217.585938 152.199219 217.460938 152.328125 217.460938 152.484375 C 217.460938 152.640625 217.585938 152.765625 217.742188 152.765625 L 221.367188 152.765625 C 221.523438 152.765625 221.648438 152.640625 221.648438 152.484375 C 221.648438 152.328125 221.523438 152.199219 221.367188 152.199219 Z M 221.367188 152.199219 " fill-opacity="1" fill-rule="nonzero"/><path fill="#e0e0e0" d="M 182.648438 144.433594 C 181.402344 144.433594 180.226562 144.75 179.199219 145.300781 L 179.199219 132.027344 C 179.199219 130.433594 177.910156 129.144531 176.316406 129.144531 L 150.527344 129.144531 C 150.117188 129.863281 149.207031 129.792969 148.867188 129.144531 L 148.394531 129.144531 C 147.984375 130.117188 146.777344 130.039062 146.4375 129.144531 L 146.199219 129.144531 C 145.890625 130.238281 144.488281 130.246094 144.136719 129.144531 L 143.441406 129.144531 C 143.171875 130.054688 141.902344 130.222656 141.394531 129.144531 L 136.3125 129.144531 C 134.71875 129.144531 133.429688 130.433594 133.429688 132.027344 L 133.429688 147.378906 L 134.925781 146.378906 C 134.996094 146.335938 135.066406 146.296875 135.140625 146.253906 C 135.609375 145.871094 136.167969 145.582031 136.777344 145.429688 C 140.042969 144.605469 143.871094 144.441406 145.582031 144.414062 L 145.578125 144.40625 C 145.792969 144.40625 146 144.40625 146.203125 144.40625 C 146.382812 144.40625 146.492188 144.410156 146.492188 144.410156 C 152.1875 144.433594 152.128906 144.398438 153.949219 144.398438 C 155.644531 144.398438 154.746094 146.175781 153.332031 146.445312 C 152.101562 146.679688 149.390625 147.003906 148.09375 147.152344 L 149.265625 148.210938 C 149.816406 148.707031 149.996094 149.496094 149.710938 150.179688 L 148.113281 154.03125 C 147.976562 154.371094 147.664062 154.609375 147.300781 154.652344 L 145.347656 154.882812 C 145.058594 154.917969 144.765625 154.835938 144.535156 154.652344 L 143.398438 153.753906 C 141.796875 153.78125 140.183594 153.644531 138.925781 153.480469 L 133.433594 157.988281 L 133.433594 172.0625 C 133.433594 173.65625 134.722656 174.949219 136.3125 174.949219 L 149.050781 174.949219 C 148.707031 174.09375 148.515625 173.167969 148.515625 172.191406 C 148.515625 168.097656 151.832031 164.78125 155.921875 164.78125 C 160.011719 164.78125 163.328125 168.097656 163.328125 172.191406 C 163.328125 173.167969 163.132812 174.09375 162.792969 174.949219 L 176.320312 174.949219 C 177.910156 174.949219 179.199219 173.65625 179.199219 172.0625 L 179.199219 158.226562 C 180.230469 158.777344 181.402344 159.089844 182.652344 159.089844 C 186.695312 159.089844 189.972656 155.808594 189.972656 151.761719 C 189.972656 147.71875 186.691406 144.433594 182.648438 144.433594 Z M 182.648438 144.433594 " fill-opacity="1" fill-rule="nonzero"/><path fill="#576ac3" d="M 131.847656 115.457031 C 130.605469 115.457031 129.527344 116.347656 128.992188 117.644531 C 128.398438 117.289062 127.820312 117.472656 127.457031 117.710938 C 126.921875 116.421875 125.847656 115.539062 124.605469 115.539062 C 122.828125 115.539062 121.386719 117.34375 121.386719 119.570312 C 121.386719 121.792969 122.828125 123.597656 124.605469 123.597656 C 126.378906 123.597656 127.820312 121.792969 127.820312 119.570312 C 127.820312 119.117188 127.757812 118.679688 127.648438 118.273438 C 127.730469 118.203125 128.238281 117.785156 128.800781 118.207031 C 128.695312 118.609375 128.632812 119.039062 128.632812 119.488281 C 128.632812 121.714844 130.070312 123.519531 131.847656 123.519531 C 133.625 123.519531 135.066406 121.714844 135.066406 119.488281 C 135.066406 117.265625 133.625 115.457031 131.847656 115.457031 Z M 124.605469 123.03125 C 123.144531 123.03125 121.953125 121.480469 121.953125 119.566406 C 121.953125 117.65625 123.144531 116.101562 124.605469 116.101562 C 126.066406 116.101562 127.253906 117.65625 127.253906 119.566406 C 127.253906 121.480469 126.066406 123.03125 124.605469 123.03125 Z M 131.847656 122.953125 C 130.386719 122.953125 129.199219 121.398438 129.199219 119.488281 C 129.199219 117.578125 130.386719 116.023438 131.847656 116.023438 C 133.308594 116.023438 134.5 117.578125 134.5 119.488281 C 134.5 121.398438 133.308594 122.953125 131.847656 122.953125 Z M 131.847656 122.953125 " fill-opacity="1" fill-rule="nonzero"/></svg>